<svg xmlns="http://www.w3.org/2000/svg" width="20.5" height="22.5" viewBox="0 0 20.5 22.5">
  <g id="calendar-tick" transform="translate(-2.25 -1.25)">
    <path id="Path_13626" data-name="Path 13626" d="M8,2V5" fill="none" stroke="#fff" stroke-linecap="round" stroke-linejoin="round" stroke-miterlimit="10" stroke-width="1.5"/>
    <path id="Path_13627" data-name="Path 13627" d="M16,2V5" fill="none" stroke="#fff" stroke-linecap="round" stroke-linejoin="round" stroke-miterlimit="10" stroke-width="1.5"/>
    <path id="Path_13628" data-name="Path 13628" d="M3.5,9.09h17" fill="none" stroke="#fff" stroke-linecap="round" stroke-linejoin="round" stroke-miterlimit="10" stroke-width="1.5"/>
    <path id="Path_13629" data-name="Path 13629" d="M22,19a3.921,3.921,0,0,1-.58,2.06A3.97,3.97,0,0,1,18,23a3.905,3.905,0,0,1-2.63-1,3.593,3.593,0,0,1-.79-.94A3.921,3.921,0,0,1,14,19a4,4,0,0,1,8,0Z" fill="none" stroke="#fff" stroke-linecap="round" stroke-linejoin="round" stroke-miterlimit="10" stroke-width="1.5"/>
    <path id="Path_13630" data-name="Path 13630" d="M16.44,19l.99.99,2.13-1.97" fill="none" stroke="#fff" stroke-linecap="round" stroke-linejoin="round" stroke-width="1.5"/>
    <path id="Path_13631" data-name="Path 13631" d="M21,8.5v7.86A4,4,0,0,0,14,19a3.921,3.921,0,0,0,.58,2.06,3.593,3.593,0,0,0,.79.94H8c-3.5,0-5-2-5-5V8.5c0-3,1.5-5,5-5h8C19.5,3.5,21,5.5,21,8.5Z" fill="none" stroke="#fff" stroke-linecap="round" stroke-linejoin="round" stroke-miterlimit="10" stroke-width="1.5"/>
    <path id="Path_13632" data-name="Path 13632" d="M12,13.7H12" fill="none" stroke="#fff" stroke-linecap="round" stroke-linejoin="round" stroke-width="2"/>
    <path id="Path_13633" data-name="Path 13633" d="M8.294,13.7H8.3" fill="none" stroke="#fff" stroke-linecap="round" stroke-linejoin="round" stroke-width="2"/>
    <path id="Path_13634" data-name="Path 13634" d="M8.294,16.7H8.3" fill="none" stroke="#fff" stroke-linecap="round" stroke-linejoin="round" stroke-width="2"/>
  </g>
</svg>
