<svg xmlns="http://www.w3.org/2000/svg" width="20.49" height="21.473" viewBox="0 0 20.49 21.473">
  <g id="clipboard" transform="translate(-1.237 -1.268)">
    <path id="Path_14045" data-name="Path 14045" d="M18.63,7.15a9.574,9.574,0,0,1-.13,2.07l-.73,4.69c-.62,3.91-2.43,5.23-6.34,4.62l-4.69-.74a7.352,7.352,0,0,1-3.15-1.11c-1.45-1.01-1.87-2.67-1.47-5.23l.74-4.69C3.48,2.85,5.29,1.53,9.2,2.14l4.69.74C17.03,3.37,18.5,4.65,18.63,7.15Z" fill="none" stroke="#fff" stroke-linecap="round" stroke-linejoin="round" stroke-width="1.5"/>
    <path id="Path_14046" data-name="Path 14046" d="M20.5,13.47,19,17.98c-1.25,3.76-3.25,4.76-7.01,3.51l-4.51-1.5c-2.27-.75-3.53-1.79-3.89-3.31a7.352,7.352,0,0,0,3.15,1.11l4.69.74c3.91.61,5.72-.71,6.34-4.62l.73-4.69a9.574,9.574,0,0,0,.13-2.07C21.02,8.42,21.54,10.34,20.5,13.47Z" fill="none" stroke="#fff" stroke-linecap="round" stroke-linejoin="round" stroke-width="1.5"/>
    <path id="Path_14047" data-name="Path 14047" d="M13.107,16.315a1.74,1.74,0,1,0-1.74-1.74A1.74,1.74,0,0,0,13.107,16.315Z" fill="none" stroke="#fff" stroke-linecap="round" stroke-linejoin="round" stroke-width="1.5"/>
  </g>
</svg>
