<svg xmlns="http://www.w3.org/2000/svg" width="21.5" height="21.5" viewBox="0 0 21.5 21.5">
  <g id="Frame_7" data-name="Frame 7" transform="translate(-1.25 -1.25)">
    <path id="Path_13964" data-name="Path 13964" d="M15,2V12a2.006,2.006,0,0,1-2,2H2V6A4,4,0,0,1,6,2Z" fill="none" stroke="#fff" stroke-linecap="round" stroke-linejoin="round" stroke-width="1.5"/>
    <path id="Path_13965" data-name="Path 13965" d="M22,14v3a3,3,0,0,1-3,3H18a2,2,0,0,0-4,0H10a2,2,0,0,0-4,0H5a3,3,0,0,1-3-3V14H13a2.006,2.006,0,0,0,2-2V5h1.84a2.016,2.016,0,0,1,1.74,1.01L20.29,9H19a1,1,0,0,0-1,1v3a1,1,0,0,0,1,1Z" fill="none" stroke="#fff" stroke-linecap="round" stroke-linejoin="round" stroke-width="1.5"/>
    <path id="Path_13966" data-name="Path 13966" d="M8,22a2,2,0,1,0-2-2A2,2,0,0,0,8,22Z" fill="none" stroke="#fff" stroke-linecap="round" stroke-linejoin="round" stroke-width="1.5"/>
    <path id="Path_13967" data-name="Path 13967" d="M16,22a2,2,0,1,0-2-2A2,2,0,0,0,16,22Z" fill="none" stroke="#fff" stroke-linecap="round" stroke-linejoin="round" stroke-width="1.5"/>
    <path id="Path_13968" data-name="Path 13968" d="M22,12v2H19a1,1,0,0,1-1-1V10a1,1,0,0,1,1-1h1.29Z" fill="none" stroke="#fff" stroke-linecap="round" stroke-linejoin="round" stroke-width="1.5"/>
  </g>
</svg>
