<svg xmlns="http://www.w3.org/2000/svg" width="19.5" height="21.5" viewBox="0 0 19.5 21.5">
  <g id="Frame9" transform="translate(-2.25 -37.75)">
    <g id="Group_24281" data-name="Group 24281">
      <path id="Path_13998" data-name="Path 13998" d="M7.25,43.5h9.5v-2c0-2-.75-3-3-3h-3.5c-2.25,0-3,1-3,3Z" fill="none" stroke="#05396b" stroke-linecap="round" stroke-linejoin="round" stroke-miterlimit="10" stroke-width="1.5"/>
      <path id="Path_13999" data-name="Path 13999" d="M16,51.5v4a2.652,2.652,0,0,1-3,3H11a2.652,2.652,0,0,1-3-3v-4Z" fill="none" stroke="#05396b" stroke-linecap="round" stroke-linejoin="round" stroke-miterlimit="10" stroke-width="1.5"/>
      <path id="Path_14000" data-name="Path 14000" d="M21,46.5v5a2.652,2.652,0,0,1-3,3H16v-3H8v3H6a2.652,2.652,0,0,1-3-3v-5a2.652,2.652,0,0,1,3-3H18A2.652,2.652,0,0,1,21,46.5Z" fill="none" stroke="#05396b" stroke-linecap="round" stroke-linejoin="round" stroke-miterlimit="10" stroke-width="1.5"/>
      <path id="Path_14001" data-name="Path 14001" d="M17,51.5H7" fill="none" stroke="#05396b" stroke-linecap="round" stroke-linejoin="round" stroke-miterlimit="10" stroke-width="1.5"/>
      <path id="Path_14002" data-name="Path 14002" d="M7,47.5h3" fill="none" stroke="#05396b" stroke-linecap="round" stroke-linejoin="round" stroke-miterlimit="10" stroke-width="1.5"/>
    </g>
  </g>
</svg>
