<svg xmlns="http://www.w3.org/2000/svg" width="19.745" height="20.58" viewBox="0 0 19.745 20.58">
  <g id="Group_24579" data-name="Group 24579" transform="translate(-2.25 -145.523)">
    <path id="Path_13934" data-name="Path 13934" d="M13.01,146.92l5.9,2.62c1.7.75,1.7,1.99,0,2.74l-5.9,2.62a3.42,3.42,0,0,1-2.44,0l-5.9-2.62c-1.7-.75-1.7-1.99,0-2.74l5.9-2.62A3.42,3.42,0,0,1,13.01,146.92Z" fill="none" stroke="#292d32" stroke-linecap="round" stroke-linejoin="round" stroke-width="1.5"/>
    <path id="Path_13935" data-name="Path 13935" d="M3,155a2.562,2.562,0,0,0,1.4,2.15l6.79,3.02a1.988,1.988,0,0,0,1.62,0l6.79-3.02A2.562,2.562,0,0,0,21,155" fill="none" stroke="#292d32" stroke-linecap="round" stroke-linejoin="round" stroke-width="1.5"/>
    <path id="Path_13936" data-name="Path 13936" d="M3,160a2.357,2.357,0,0,0,1.4,2.15l6.79,3.02a1.988,1.988,0,0,0,1.62,0l6.79-3.02A2.357,2.357,0,0,0,21,160" fill="none" stroke="#292d32" stroke-linecap="round" stroke-linejoin="round" stroke-width="1.5"/>
    <line id="Line_601" data-name="Line 601" x2="16.948" y2="16.948" transform="translate(3.986 146.584)" fill="none" stroke="#000" stroke-linecap="round" stroke-width="1.5"/>
  </g>
</svg>
