<svg xmlns="http://www.w3.org/2000/svg" width="21.5" height="21.5" viewBox="0 0 21.5 21.5">
  <g id="Group_24581" data-name="Group 24581" transform="translate(-1.25 -397.25)">
    <path id="Path_13895" data-name="Path 13895" d="M12,418A10,10,0,1,0,2,408,10,10,0,0,0,12,418Z" fill="none" stroke="#292d32" stroke-linecap="round" stroke-linejoin="round" stroke-width="1.5"/>
    <path id="Path_13896" data-name="Path 13896" d="M8,399H9a28.424,28.424,0,0,0,0,18H8" fill="none" stroke="#292d32" stroke-linecap="round" stroke-linejoin="round" stroke-width="1.5"/>
    <path id="Path_13897" data-name="Path 13897" d="M15,399a28.424,28.424,0,0,1,0,18" fill="none" stroke="#292d32" stroke-linecap="round" stroke-linejoin="round" stroke-width="1.5"/>
    <path id="Path_13898" data-name="Path 13898" d="M3,412v-1a28.423,28.423,0,0,0,18,0v1" fill="none" stroke="#292d32" stroke-linecap="round" stroke-linejoin="round" stroke-width="1.5"/>
    <path id="Path_13899" data-name="Path 13899" d="M3,405a28.423,28.423,0,0,1,18,0" fill="none" stroke="#292d32" stroke-linecap="round" stroke-linejoin="round" stroke-width="1.5"/>
  </g>
</svg>
