<svg xmlns="http://www.w3.org/2000/svg" width="21.5" height="21.5" viewBox="0 0 21.5 21.5">
  <g id="Group_24575" data-name="Group 24575" transform="translate(-12.25 -12.25)">
    <path id="Path_13728" data-name="Path 13728" d="M17,373.4v3c0,4-1.6,5.6-5.6,5.6H7.6c-4,0-5.6-1.6-5.6-5.6v-3.8c0-4,1.6-5.6,5.6-5.6h3" transform="translate(11 -349)" fill="none" stroke="#fff" stroke-linecap="round" stroke-linejoin="round" stroke-width="1.5"/>
    <path id="Path_13729" data-name="Path 13729" d="M17,373.4H13.8c-2.4,0-3.2-.8-3.2-3.2V367Z" transform="translate(11 -349)" fill="none" stroke="#fff" stroke-linecap="round" stroke-linejoin="round" stroke-width="1.5"/>
    <path id="Path_13730" data-name="Path 13730" d="M11.6,362h4" transform="translate(11 -349)" fill="none" stroke="#fff" stroke-linecap="round" stroke-linejoin="round" stroke-width="1.5"/>
    <path id="Path_13731" data-name="Path 13731" d="M7,365a3,3,0,0,1,3-3h2.62" transform="translate(11 -349)" fill="none" stroke="#fff" stroke-linecap="round" stroke-linejoin="round" stroke-width="1.5"/>
    <path id="Path_13732" data-name="Path 13732" d="M22,368v6.19A2.812,2.812,0,0,1,19.19,377" transform="translate(11 -349)" fill="none" stroke="#fff" stroke-linecap="round" stroke-linejoin="round" stroke-width="1.5"/>
    <path id="Path_13733" data-name="Path 13733" d="M22,368H19c-2.25,0-3-.75-3-3v-3Z" transform="translate(11 -349)" fill="none" stroke="#fff" stroke-linecap="round" stroke-linejoin="round" stroke-width="1.5"/>
  </g>
</svg>
