<svg xmlns="http://www.w3.org/2000/svg" width="22.121" height="22.121" viewBox="0 0 22.121 22.121">
  <g id="Group_24140" data-name="Group 24140" transform="translate(-0.939 -72.939)">
    <path id="Path_13924" data-name="Path 13924" d="M14.53,81.47,9.47,86.53a3.578,3.578,0,1,1,5.06-5.06Z" fill="none" stroke="#05396b" stroke-linecap="round" stroke-linejoin="round" stroke-width="1.5"/>
    <path id="Path_13925" data-name="Path 13925" d="M17.82,77.77A9.631,9.631,0,0,0,12,75.73c-3.53,0-6.82,2.08-9.11,5.68a5.326,5.326,0,0,0,0,5.19A14.326,14.326,0,0,0,5.6,89.77" fill="none" stroke="#05396b" stroke-linecap="round" stroke-linejoin="round" stroke-width="1.5"/>
    <path id="Path_13926" data-name="Path 13926" d="M8.42,91.53a9.214,9.214,0,0,0,3.58.74c3.53,0,6.82-2.08,9.11-5.68a5.326,5.326,0,0,0,0-5.19,16.221,16.221,0,0,0-1.06-1.47" fill="none" stroke="#05396b" stroke-linecap="round" stroke-linejoin="round" stroke-width="1.5"/>
    <path id="Path_13927" data-name="Path 13927" d="M15.51,84.7a3.565,3.565,0,0,1-2.82,2.82" fill="none" stroke="#05396b" stroke-linecap="round" stroke-linejoin="round" stroke-width="1.5"/>
    <path id="Path_13928" data-name="Path 13928" d="M9.47,86.53,2,94" fill="none" stroke="#05396b" stroke-linecap="round" stroke-linejoin="round" stroke-width="1.5"/>
    <path id="Path_13929" data-name="Path 13929" d="M22,74l-7.47,7.47" fill="none" stroke="#05396b" stroke-linecap="round" stroke-linejoin="round" stroke-width="1.5"/>
  </g>
</svg>
