<svg xmlns="http://www.w3.org/2000/svg" width="26.332" height="21.31" viewBox="0 0 26.332 21.31">
  <g id="Group_23491" data-name="Group 23491" transform="translate(-5889.125 3076.56)">
    <g id="Group_23484" data-name="Group 23484" transform="translate(23.515 -70)">
      <path id="Path_13586" data-name="Path 13586" d="M10.678,156.356A1.678,1.678,0,1,0,9,154.678,1.678,1.678,0,0,0,10.678,156.356Z" transform="translate(5874.915 -3153.71)" fill="none" stroke="#05396b" stroke-linecap="round" stroke-linejoin="round" stroke-miterlimit="10" stroke-width="1.5"/>
      <path id="Path_13587" data-name="Path 13587" d="M2,152.333v-.984a1.066,1.066,0,0,1,1.063-1.063c1.012,0,1.426-.716.917-1.594a1.062,1.062,0,0,1,.392-1.449l.968-.554a.934.934,0,0,1,1.275.336l.062.106a.972.972,0,0,0,1.84,0l.062-.106a.934.934,0,0,1,1.275-.336l.968.554a1.062,1.062,0,0,1,.392,1.449c-.509.878-.1,1.594.917,1.594a1.066,1.066,0,0,1,1.063,1.063v.984a1.066,1.066,0,0,1-1.063,1.063c-1.012,0-1.426.716-.917,1.594a1.061,1.061,0,0,1-.392,1.449l-.968.554a.934.934,0,0,1-1.275-.336l-.062-.106a.972.972,0,0,0-1.84,0l-.062.106a.934.934,0,0,1-1.275.336l-.968-.554a1.062,1.062,0,0,1-.392-1.449c.509-.878.1-1.594-.917-1.594A1.066,1.066,0,0,1,2,152.333Z" transform="translate(5878 -3150.872)" fill="none" stroke="#05396b" stroke-linecap="round" stroke-linejoin="round" stroke-miterlimit="10" stroke-width="1.5"/>
    </g>
    <path id="Path_13365" data-name="Path 13365" d="M9.16,250.87a1.819,1.819,0,0,0-.33,0,4.445,4.445,0,1,1,.33,0Z" transform="translate(5887.53 -3317.81)" fill="rgba(255,255,255,0)" stroke="#05396b" stroke-linecap="round" stroke-linejoin="round" stroke-width="1.5"/>
    <path id="Path_13367" data-name="Path 13367" d="M4.16,254.56c-2.42,1.62-2.42,4.26,0,5.87a9.766,9.766,0,0,0,10.01,0c2.42-1.62,2.42-4.26,0-5.87A9.812,9.812,0,0,0,4.16,254.56Z" transform="translate(5887.53 -3317.81)" fill="rgba(255,255,255,0)" stroke="#05396b" stroke-linecap="round" stroke-linejoin="round" stroke-width="1.5"/>
  </g>
</svg>
