<svg xmlns="http://www.w3.org/2000/svg" width="21.5" height="21.5" viewBox="0 0 21.5 21.5">
  <g id="Group_24119" data-name="Group 24119" transform="translate(-75.25 -1.593)">
    <path id="Path_13847" data-name="Path 13847" d="M96,11.443v-4.2c0-3.5-1.4-4.9-4.9-4.9H86.9c-3.5,0-4.9,1.4-4.9,4.9v1.1h3.1c3.5,0,4.9,1.4,4.9,4.9v3.1h1.1C94.6,16.343,96,14.943,96,11.443Z" fill="none" stroke="#fff" stroke-linecap="round" stroke-linejoin="round" stroke-width="1.5"/>
    <path id="Path_13848" data-name="Path 13848" d="M90,17.442v-4.2c0-3.5-1.4-4.9-4.9-4.9H80.9c-3.5,0-4.9,1.4-4.9,4.9v4.2c0,3.5,1.4,4.9,4.9,4.9h4.2C88.6,22.343,90,20.942,90,17.442Z" fill="none" stroke="#fff" stroke-linecap="round" stroke-linejoin="round" stroke-width="1.5"/>
    <path id="Path_13849" data-name="Path 13849" d="M80.08,15.343l1.95,1.95,3.89-3.9" fill="none" stroke="#fff" stroke-linecap="round" stroke-linejoin="round" stroke-width="1.5"/>
  </g>
</svg>
