<svg xmlns="http://www.w3.org/2000/svg" width="21.808" height="21.811" viewBox="0 0 21.808 21.811">
  <g id="Group_24203" data-name="Group 24203" transform="translate(-1.25 -68.939)">
    <path id="Path_13978" data-name="Path 13978" d="M9,78a2,2,0,1,0-2-2A2,2,0,0,0,9,78Z" fill="none" stroke="#05396b" stroke-linecap="round" stroke-linejoin="round" stroke-width="1.5"/>
    <path id="Path_13979" data-name="Path 13979" d="M13,70H9c-5,0-7,2-7,7v6c0,5,2,7,7,7h6c5,0,7-2,7-7V78" fill="none" stroke="#05396b" stroke-linecap="round" stroke-linejoin="round" stroke-width="1.5"/>
    <path id="Path_13980" data-name="Path 13980" d="M18,76V70l2,2" fill="none" stroke="#05396b" stroke-linecap="round" stroke-linejoin="round" stroke-width="1.5"/>
    <path id="Path_13981" data-name="Path 13981" d="M18,70l-2,2" fill="none" stroke="#05396b" stroke-linecap="round" stroke-linejoin="round" stroke-width="1.5"/>
    <path id="Path_13982" data-name="Path 13982" d="M2.67,86.95,7.6,83.64a2.253,2.253,0,0,1,2.64.14l.33.29a2.229,2.229,0,0,0,2.82,0l4.16-3.57a2.229,2.229,0,0,1,2.82,0L22,81.9" fill="none" stroke="#05396b" stroke-linecap="round" stroke-linejoin="round" stroke-width="1.5"/>
  </g>
</svg>
