<svg xmlns="http://www.w3.org/2000/svg" width="21.5" height="21.487" viewBox="0 0 21.5 21.487">
  <g id="Group_24192" data-name="Group 24192" transform="translate(-1.25 -37.259)">
    <path id="Path_13969" data-name="Path 13969" d="M12.92,38.26l6.51,3.51a1.153,1.153,0,0,1,0,1.99l-6.51,3.51a1.936,1.936,0,0,1-1.84,0L4.57,43.76a1.153,1.153,0,0,1,0-1.99l6.51-3.51A1.936,1.936,0,0,1,12.92,38.26Z" fill="none" stroke="#05396b" stroke-linecap="round" stroke-linejoin="round" stroke-width="1.5"/>
    <path id="Path_13970" data-name="Path 13970" d="M3.61,46.13l6.05,3.03a2.238,2.238,0,0,1,1.23,1.99v5.72a1.109,1.109,0,0,1-1.61.99L3.23,54.83A2.238,2.238,0,0,1,2,52.84V47.12A1.109,1.109,0,0,1,3.61,46.13Z" fill="none" stroke="#05396b" stroke-linecap="round" stroke-linejoin="round" stroke-width="1.5"/>
    <path id="Path_13971" data-name="Path 13971" d="M20.39,46.13l-6.05,3.03a2.238,2.238,0,0,0-1.23,1.99v5.72a1.109,1.109,0,0,0,1.61.99l6.05-3.03A2.238,2.238,0,0,0,22,52.84V47.12A1.109,1.109,0,0,0,20.39,46.13Z" fill="none" stroke="#05396b" stroke-linecap="round" stroke-linejoin="round" stroke-width="1.5"/>
  </g>
</svg>
