<svg xmlns="http://www.w3.org/2000/svg" width="17.5" height="17.5" viewBox="0 0 17.5 17.5">
  <g id="Group_2" data-name="Group 2" transform="translate(-1.25 -865.25)">
    <path id="Path_362" data-name="Path 362" d="M13.2,866H6.8Q2,866,2,870.8v10.4a.8.8,0,0,0,.8.8H13.2q4.8,0,4.8-4.8v-6.4Q18,866,13.2,866Z" fill="none" stroke="#292d32" stroke-linecap="round" stroke-linejoin="round" stroke-width="1.5"/>
    <path id="Path_363" data-name="Path 363" d="M11.727,871.672l-4.152,4.152a1.431,1.431,0,0,0-.344.7L7.007,878.1a.751.751,0,0,0,.9.9l1.584-.224a1.43,1.43,0,0,0,.7-.344l4.152-4.152a1.6,1.6,0,0,0,0-2.6A1.6,1.6,0,0,0,11.727,871.672Z" transform="translate(-0.999 -1)" fill="none" stroke="#292d32" stroke-linecap="round" stroke-linejoin="round" stroke-miterlimit="10" stroke-width="1.5"/>
    <path id="Path_364" data-name="Path 364" d="M12.17,872.58a3.75,3.75,0,0,0,2.6,2.6" transform="translate(-2.034 -1.316)" fill="none" stroke="#292d32" stroke-linecap="round" stroke-linejoin="round" stroke-miterlimit="10" stroke-width="1.5"/>
  </g>
</svg>
