<svg xmlns="http://www.w3.org/2000/svg" width="21.5" height="21.5" viewBox="0 0 21.5 21.5">
  <g id="Group_23472" data-name="Group 23472" transform="translate(-1.25 -625.25)">
    <path id="Path_13510" data-name="Path 13510" d="M3.5,646V629a2.8,2.8,0,0,1,3-3h8a2.8,2.8,0,0,1,3,3v17Z" fill="none" stroke="#fff" stroke-linecap="round" stroke-linejoin="round" stroke-width="1.5"/>
    <path id="Path_13511" data-name="Path 13511" d="M2,646H19" fill="none" stroke="#fff" stroke-linecap="round" stroke-linejoin="round" stroke-width="1.5"/>
    <path id="Path_13512" data-name="Path 13512" d="M8.39,634h4.23a1.7,1.7,0,0,0,1.89-1.89v-1.23a1.7,1.7,0,0,0-1.89-1.89H8.39a1.7,1.7,0,0,0-1.89,1.89v1.23A1.7,1.7,0,0,0,8.39,634Z" fill="none" stroke="#fff" stroke-linecap="round" stroke-linejoin="round" stroke-width="1.5"/>
    <path id="Path_13513" data-name="Path 13513" d="M6.5,637h3" fill="none" stroke="#fff" stroke-linecap="round" stroke-linejoin="round" stroke-width="1.5"/>
    <path id="Path_13514" data-name="Path 13514" d="M17.5,640.01,22,640v-6l-2-1" fill="none" stroke="#fff" stroke-linecap="round" stroke-linejoin="round" stroke-width="1.5"/>
  </g>
</svg>
