<svg xmlns="http://www.w3.org/2000/svg" width="22.5" height="22.265" viewBox="0 0 22.5 22.265">
  <g id="Group_24294" data-name="Group 24294" transform="translate(7947.75 -19063.567)">
    <path id="Path_14008" data-name="Path 14008" d="M7.721,130.6l8.559-8.559" transform="translate(-7948 18948.766)" fill="none" stroke="#fff" stroke-linecap="round" stroke-linejoin="round" stroke-miterlimit="10" stroke-width="1.5"/>
    <path id="Path_14009" data-name="Path 14009" d="M14.925,130.6h2.71" transform="translate(-7948 18948.766)" fill="none" stroke="#fff" stroke-linecap="round" stroke-linejoin="round" stroke-miterlimit="10" stroke-width="1.5"/>
    <path id="Path_14010" data-name="Path 14010" d="M16.279,133.6a3,3,0,1,0-3-3A3,3,0,0,0,16.279,133.6Z" transform="translate(-7948 18948.766)" fill="none" stroke="#fff" stroke-width="1.5"/>
    <path id="Path_14019" data-name="Path 14019" d="M6,125.551a5,5,0,1,0-5-5A5,5,0,0,0,6,125.551Z" transform="translate(-7948 18948.766)" fill="none" stroke="#fff" stroke-linecap="round" stroke-linejoin="round" stroke-width="1.5"/>
    <path id="Path_14020" data-name="Path 14020" d="M12.818,116.316H15c5,0,7,2,7,7v6c0,5-2,7-7,7H9c-5,0-7-2-7-7v-2.079" transform="translate(-7948 18948.766)" fill="none" stroke="#fff" stroke-linecap="round" stroke-linejoin="round" stroke-width="1.5"/>
    <path id="Path_14021" data-name="Path 14021" d="M3.557,120.5l1.663,1.663,1.611-1.611,1.611-1.611" transform="translate(-7948 18948.766)" fill="none" stroke="#fff" stroke-linecap="round" stroke-linejoin="round" stroke-width="1.5"/>
  </g>
</svg>
