<svg xmlns="http://www.w3.org/2000/svg" width="20.73" height="21.706" viewBox="0 0 20.73 21.706">
  <g id="Group_23492" data-name="Group 23492" transform="translate(-999.25 -122.151)">
    <path id="Path_13373" data-name="Path 13373" d="M3.17,343.44,12,348.55l8.77-5.08" transform="translate(997.61 -214.992)" fill="rgba(255,255,255,0)" stroke="#05396b" stroke-linecap="round" stroke-linejoin="round" stroke-width="1.5"/>
    <path id="Path_13374" data-name="Path 13374" d="M12,357.61v-9.07" transform="translate(997.61 -214.992)" fill="rgba(255,255,255,0)" stroke="#05396b" stroke-linecap="round" stroke-linejoin="round" stroke-width="1.5"/>
    <path id="Path_13375" data-name="Path 13375" d="M9.93,338.48l-5.34,2.96a4.719,4.719,0,0,0-2.2,3.73v5.65a4.719,4.719,0,0,0,2.2,3.73l5.34,2.97a4.792,4.792,0,0,0,4.15,0l5.34-2.97a4.719,4.719,0,0,0,2.2-3.73v-5.65a4.719,4.719,0,0,0-2.2-3.73l-5.34-2.97A4.758,4.758,0,0,0,9.93,338.48Z" transform="translate(997.61 -214.992)" fill="rgba(255,255,255,0)" stroke="#05396b" stroke-linecap="round" stroke-linejoin="round" stroke-width="1.5"/>
  </g>
</svg>
