<svg xmlns="http://www.w3.org/2000/svg" width="21.5" height="21.5" viewBox="0 0 21.5 21.5">
  <g id="Group_23486" data-name="Group 23486" transform="translate(-1.25 -193.25)">
    <path id="Path_13477" data-name="Path 13477" d="M5,202H7a2.652,2.652,0,0,0,3-3v-2a2.652,2.652,0,0,0-3-3H5a2.652,2.652,0,0,0-3,3v2A2.652,2.652,0,0,0,5,202Z" fill="none" stroke="#05396b" stroke-linecap="round" stroke-linejoin="round" stroke-miterlimit="10" stroke-width="1.5"/>
    <path id="Path_13478" data-name="Path 13478" d="M17,202h2a2.652,2.652,0,0,0,3-3v-2a2.652,2.652,0,0,0-3-3H17a2.652,2.652,0,0,0-3,3v2A2.652,2.652,0,0,0,17,202Z" fill="none" stroke="#05396b" stroke-linecap="round" stroke-linejoin="round" stroke-miterlimit="10" stroke-width="1.5"/>
    <path id="Path_13479" data-name="Path 13479" d="M17,214h2a2.652,2.652,0,0,0,3-3v-2a2.652,2.652,0,0,0-3-3H17a2.652,2.652,0,0,0-3,3v2A2.652,2.652,0,0,0,17,214Z" fill="none" stroke="#05396b" stroke-linecap="round" stroke-linejoin="round" stroke-miterlimit="10" stroke-width="1.5"/>
    <path id="Path_13480" data-name="Path 13480" d="M5,214H7a2.652,2.652,0,0,0,3-3v-2a2.652,2.652,0,0,0-3-3H5a2.652,2.652,0,0,0-3,3v2A2.652,2.652,0,0,0,5,214Z" fill="none" stroke="#05396b" stroke-linecap="round" stroke-linejoin="round" stroke-miterlimit="10" stroke-width="1.5"/>
  </g>
</svg>
