<svg xmlns="http://www.w3.org/2000/svg" width="21.5" height="21.5" viewBox="0 0 21.5 21.5">
  <g id="Group_23512" data-name="Group 23512" transform="translate(-1.25 -1489.25)">
    <path id="Path_13568" data-name="Path 13568" d="M14,1490q3,0,3,3.03v7.05c0,1.99-1.41,2.76-3.14,1.72l-1.32-.8a1.147,1.147,0,0,0-1.08,0l-1.32.8c-1.73,1.04-3.14.27-3.14-1.72v-7.05q0-3.03,3-3.03Z" fill="none" stroke="#389583" stroke-linecap="round" stroke-linejoin="round" stroke-width="1.5"/>
    <path id="Path_13569" data-name="Path 13569" d="M6.82,1492.99c-3.41.57-4.82,2.67-4.82,6.91v3.03c0,5.05,2,7.07,7,7.07h6c5,0,7-2.02,7-7.07v-3.03c0-4.31-1.46-6.42-5-6.94" fill="none" stroke="#389583" stroke-linecap="round" stroke-linejoin="round" stroke-width="1.5"/>
  </g>
</svg>
