<svg xmlns="http://www.w3.org/2000/svg" width="19.971" height="19.953" viewBox="0 0 19.971 19.953">
  <g id="Group_23510" data-name="Group 23510" transform="translate(-2.249 -722.248)">
    <path id="Path_13402" data-name="Path 13402" d="M4.4,735.526l4.53,4.53a4.78,4.78,0,0,0,6.75,0l4.39-4.39a4.78,4.78,0,0,0,0-6.75l-4.54-4.52a4.75,4.75,0,0,0-3.6-1.39l-5,.24a3.864,3.864,0,0,0-3.69,3.67l-.24,5A4.8,4.8,0,0,0,4.4,735.526Z" fill="rgba(255,255,255,0)" stroke="#389583" stroke-linecap="round" stroke-linejoin="round" stroke-width="1.5"/>
    <path id="Path_13403" data-name="Path 13403" d="M9.735,732.226a2.5,2.5,0,1,0-2.5-2.5A2.5,2.5,0,0,0,9.735,732.226Z" fill="rgba(255,255,255,0)" stroke="#389583" stroke-linecap="round" stroke-width="1.5"/>
    <path id="Path_13404" data-name="Path 13404" d="M13.235,737.226l4-4" fill="rgba(255,255,255,0)" stroke="#389583" stroke-linecap="round" stroke-linejoin="round" stroke-miterlimit="10" stroke-width="1.5"/>
  </g>
</svg>
