<svg xmlns="http://www.w3.org/2000/svg" width="19.5" height="21.5" viewBox="0 0 19.5 21.5">
  <g id="Group_23464" data-name="Group 23464" transform="translate(-2.25 -1.25)">
    <path id="Path_13454" data-name="Path 13454" d="M8,12.2h7" fill="none" stroke="#fff" stroke-linecap="round" stroke-linejoin="round" stroke-miterlimit="10" stroke-width="1.5"/>
    <path id="Path_13455" data-name="Path 13455" d="M8,16.2h4.38" fill="none" stroke="#fff" stroke-linecap="round" stroke-linejoin="round" stroke-miterlimit="10" stroke-width="1.5"/>
    <path id="Path_13456" data-name="Path 13456" d="M10,6h4c2,0,2-1,2-2,0-2-1-2-2-2H10C9,2,8,2,8,4S9,6,10,6Z" fill="none" stroke="#fff" stroke-linecap="round" stroke-linejoin="round" stroke-miterlimit="10" stroke-width="1.5"/>
    <path id="Path_13457" data-name="Path 13457" d="M16,4.02c3.33.18,5,1.41,5,5.98v6c0,4-1,6-6,6H9c-5,0-6-2-6-6V10C3,5.44,4.67,4.2,8,4.02" fill="none" stroke="#fff" stroke-linecap="round" stroke-linejoin="round" stroke-miterlimit="10" stroke-width="1.5"/>
  </g>
</svg>
