<svg xmlns="http://www.w3.org/2000/svg" width="21.564" height="21.359" viewBox="0 0 21.564 21.359">
  <g id="Group_23526" data-name="Group 23526" transform="translate(-2.138 -1.25)">
    <path id="Path_13591" data-name="Path 13591" d="M19.92,9a6.953,6.953,0,0,1-5.95,6.91,6.17,6.17,0,0,1-2.1,0A7,7,0,1,1,19.92,9Z" fill="none" stroke="#fff" stroke-linecap="round" stroke-linejoin="round" stroke-width="1.5"/>
    <path id="Path_13592" data-name="Path 13592" d="M22.17,18.47l-1.65.39a.981.981,0,0,0-.74.74l-.35,1.47a1,1,0,0,1-1.74.41L12.92,16,8.15,21.49a1,1,0,0,1-1.74-.41l-.35-1.47a1,1,0,0,0-.74-.74l-1.65-.39a1,1,0,0,1-.48-1.68l3.9-3.9a6.985,6.985,0,0,0,4.78,3.02,6.17,6.17,0,0,0,2.1,0,6.985,6.985,0,0,0,4.78-3.02l3.9,3.9A1,1,0,0,1,22.17,18.47Z" fill="none" stroke="#fff" stroke-linecap="round" stroke-linejoin="round" stroke-width="1.5"/>
    <path id="Path_13593" data-name="Path 13593" d="M13.5,5.98l.59,1.18a.724.724,0,0,0,.48.35l1.07.18c.68.11.84.61.35,1.1l-.83.83a.709.709,0,0,0-.17.61l.24,1.03c.19.81-.24,1.13-.96.7l-1-.59a.7.7,0,0,0-.66,0l-1,.59c-.72.42-1.15.11-.96-.7l.24-1.03a.751.751,0,0,0-.17-.61l-.83-.83c-.49-.49-.33-.98.35-1.1l1.07-.18a.729.729,0,0,0,.47-.35l.59-1.18C12.66,5.34,13.18,5.34,13.5,5.98Z" fill="none" stroke="#fff" stroke-linecap="round" stroke-linejoin="round" stroke-width="1.5"/>
  </g>
</svg>
