<svg xmlns="http://www.w3.org/2000/svg" width="21.5" height="22.113" viewBox="0 0 21.5 22.113">
  <g id="Group_4" data-name="Group 4" transform="translate(0.75 1.056)">
    <path id="Path_13646" data-name="Path 13646" d="M19,16V6.5a2.006,2.006,0,0,0-2-2H11.5" transform="translate(-2 -2)" fill="none" stroke="#fff" stroke-linecap="round" stroke-linejoin="round" stroke-width="1.5"/>
    <path id="Path_13647" data-name="Path 13647" d="M14,2,11,4.5,14,7" transform="translate(-2 -2)" fill="none" stroke="#fff" stroke-linecap="round" stroke-linejoin="round" stroke-width="1.5"/>
    <path id="Path_13648" data-name="Path 13648" d="M19,22a3,3,0,1,0-3-3A3,3,0,0,0,19,22Z" transform="translate(-2 -2)" fill="none" stroke="#fff" stroke-linecap="round" stroke-linejoin="round" stroke-width="1.5"/>
    <path id="Path_13649" data-name="Path 13649" d="M5,8v9.5a2.006,2.006,0,0,0,2,2h5.5" transform="translate(-2 -2)" fill="none" stroke="#fff" stroke-linecap="round" stroke-linejoin="round" stroke-width="1.5"/>
    <path id="Path_13650" data-name="Path 13650" d="M10,22l3-2.5L10,17" transform="translate(-2 -2)" fill="none" stroke="#fff" stroke-linecap="round" stroke-linejoin="round" stroke-width="1.5"/>
    <path id="Path_13651" data-name="Path 13651" d="M5,8A3,3,0,1,0,2,5,3,3,0,0,0,5,8Z" transform="translate(-2 -2)" fill="none" stroke="#fff" stroke-linecap="round" stroke-linejoin="round" stroke-width="1.5"/>
  </g>
</svg>
