<svg xmlns="http://www.w3.org/2000/svg" width="19.598" height="21.747" viewBox="0 0 19.598 21.747">
  <g id="Group_23729" data-name="Group 23729" transform="translate(-2.395 -181.247)">
    <path id="Path_13710" data-name="Path 13710" d="M15.03,190.77l5.66-3.79a1.241,1.241,0,0,0,.34-1.72l-1.82-2.71a1.241,1.241,0,0,0-1.72-.34L11.83,186Z" fill="none" stroke="#fff" stroke-linecap="round" stroke-linejoin="round" stroke-width="1.5"/>
    <path id="Path_13711" data-name="Path 13711" d="M12.174,186.479l-4.778,3.2,2.56,3.822,4.778-3.2Z" fill="none" stroke="#fff" stroke-linecap="round" stroke-linejoin="round" stroke-width="1.5"/>
    <path id="Path_13712" data-name="Path 13712" d="M5.83,195.9l3.95-2.64-2.24-3.34-3.95,2.64a1,1,0,0,0-.27,1.39l1.13,1.68A1,1,0,0,0,5.83,195.9Z" fill="none" stroke="#fff" stroke-linecap="round" stroke-linejoin="round" stroke-width="1.5"/>
    <path id="Path_13713" data-name="Path 13713" d="M12.05,192.2,7.56,202" fill="none" stroke="#fff" stroke-linecap="round" stroke-linejoin="round" stroke-width="1.5"/>
    <path id="Path_13714" data-name="Path 13714" d="M12,192.2l4.44,9.8" fill="none" stroke="#fff" stroke-linecap="round" stroke-linejoin="round" stroke-width="1.5"/>
  </g>
</svg>
