<svg xmlns="http://www.w3.org/2000/svg" width="19.5" height="21.5" viewBox="0 0 19.5 21.5">
  <g id="Group_23483" data-name="Group 23483" transform="translate(-2.25 -49.25)">
    <g id="Group_23481" data-name="Group 23481">
      <path id="Path_13458" data-name="Path 13458" d="M8,50v3" fill="none" stroke="#05396b" stroke-linecap="round" stroke-linejoin="round" stroke-miterlimit="10" stroke-width="1.5"/>
      <path id="Path_13459" data-name="Path 13459" d="M16,50v3" fill="none" stroke="#05396b" stroke-linecap="round" stroke-linejoin="round" stroke-miterlimit="10" stroke-width="1.5"/>
      <path id="Path_13460" data-name="Path 13460" d="M3.5,57.09h17" fill="none" stroke="#05396b" stroke-linecap="round" stroke-linejoin="round" stroke-miterlimit="10" stroke-width="1.5"/>
      <path id="Path_13461" data-name="Path 13461" d="M21,56.5V65c0,3-1.5,5-5,5H8c-3.5,0-5-2-5-5V56.5c0-3,1.5-5,5-5h8C19.5,51.5,21,53.5,21,56.5Z" fill="none" stroke="#05396b" stroke-linecap="round" stroke-linejoin="round" stroke-miterlimit="10" stroke-width="1.5"/>
      <path id="Path_13462" data-name="Path 13462" d="M15.695,61.7H15.7" fill="none" stroke="#05396b" stroke-linecap="round" stroke-linejoin="round" stroke-width="2"/>
      <path id="Path_13463" data-name="Path 13463" d="M15.695,64.7H15.7" fill="none" stroke="#05396b" stroke-linecap="round" stroke-linejoin="round" stroke-width="2"/>
      <path id="Path_13464" data-name="Path 13464" d="M12,61.7H12" fill="none" stroke="#05396b" stroke-linecap="round" stroke-linejoin="round" stroke-width="2"/>
      <path id="Path_13465" data-name="Path 13465" d="M12,64.7H12" fill="none" stroke="#05396b" stroke-linecap="round" stroke-linejoin="round" stroke-width="2"/>
      <path id="Path_13466" data-name="Path 13466" d="M8.294,61.7H8.3" fill="none" stroke="#05396b" stroke-linecap="round" stroke-linejoin="round" stroke-width="2"/>
      <path id="Path_13467" data-name="Path 13467" d="M8.294,64.7H8.3" fill="none" stroke="#05396b" stroke-linecap="round" stroke-linejoin="round" stroke-width="2"/>
    </g>
  </g>
</svg>
