<svg xmlns="http://www.w3.org/2000/svg" width="21.5" height="21.5" viewBox="0 0 21.5 21.5">
  <g id="Group_23458" data-name="Group 23458" transform="translate(-1.25 -289.25)">
    <path id="Path_13369" data-name="Path 13369" d="M22,298.9v-6.8c0-1.5-.64-2.1-2.23-2.1H15.73c-1.59,0-2.23.6-2.23,2.1v6.8c0,1.5.64,2.1,2.23,2.1h4.04C21.36,301,22,300.4,22,298.9Z" fill="rgba(255,255,255,0)" stroke="#fff" stroke-linecap="round" stroke-linejoin="round" stroke-width="1.5"/>
    <path id="Path_13370" data-name="Path 13370" d="M22,307.9v-1.8c0-1.5-.64-2.1-2.23-2.1H15.73c-1.59,0-2.23.6-2.23,2.1v1.8c0,1.5.64,2.1,2.23,2.1h4.04C21.36,310,22,309.4,22,307.9Z" fill="rgba(255,255,255,0)" stroke="#fff" stroke-linecap="round" stroke-linejoin="round" stroke-width="1.5"/>
    <path id="Path_13371" data-name="Path 13371" d="M10.5,301.1v6.8c0,1.5-.64,2.1-2.23,2.1H4.23C2.64,310,2,309.4,2,307.9v-6.8c0-1.5.64-2.1,2.23-2.1H8.27C9.86,299,10.5,299.6,10.5,301.1Z" fill="rgba(255,255,255,0)" stroke="#fff" stroke-linecap="round" stroke-linejoin="round" stroke-width="1.5"/>
    <path id="Path_13372" data-name="Path 13372" d="M10.5,292.1v1.8c0,1.5-.64,2.1-2.23,2.1H4.23C2.64,296,2,295.4,2,293.9v-1.8c0-1.5.64-2.1,2.23-2.1H8.27C9.86,290,10.5,290.6,10.5,292.1Z" fill="rgba(255,255,255,0)" stroke="#fff" stroke-linecap="round" stroke-linejoin="round" stroke-width="1.5"/>
  </g>
</svg>
