<svg xmlns="http://www.w3.org/2000/svg" width="22.636" height="21.31" viewBox="0 0 22.636 21.31">
  <g id="Group_23966" data-name="Group 23966" transform="translate(-298.777 -247.873)">
    <g id="Group_23965" data-name="Group 23965" transform="translate(-5590.348 3324.434)">
      <path id="Path_13365" data-name="Path 13365" d="M9.16,250.87a1.819,1.819,0,0,0-.33,0,4.445,4.445,0,1,1,.33,0Z" transform="translate(5887.53 -3317.811)" fill="rgba(255,255,255,0)" stroke="#389583" stroke-linecap="round" stroke-linejoin="round" stroke-width="1.5"/>
      <path id="Path_13367" data-name="Path 13367" d="M4.16,254.56c-2.42,1.62-2.42,4.26,0,5.87a9.766,9.766,0,0,0,10.01,0c2.42-1.62,2.42-4.26,0-5.87A9.812,9.812,0,0,0,4.16,254.56Z" transform="translate(5887.53 -3317.811)" fill="rgba(255,255,255,0)" stroke="#389583" stroke-linecap="round" stroke-linejoin="round" stroke-width="1.5"/>
    </g>
    <path id="Path_13834" data-name="Path 13834" d="M9.5,476.13a.956.956,0,0,1-.094.409,1.55,1.55,0,0,1-.255.383,1.693,1.693,0,0,1-.616.443,1.886,1.886,0,0,1-.732.143,3.128,3.128,0,0,1-1.224-.274,6.593,6.593,0,0,1-1.291-.743,10.789,10.789,0,0,1-1.231-1.051,10.67,10.67,0,0,1-1.047-1.227,6.691,6.691,0,0,1-.736-1.28A3.162,3.162,0,0,1,2,471.7a1.942,1.942,0,0,1,.135-.724,1.728,1.728,0,0,1,.432-.627A1.1,1.1,0,0,1,3.348,470a.7.7,0,0,1,.3.068.612.612,0,0,1,.251.21l.871,1.227a1.285,1.285,0,0,1,.15.263.593.593,0,0,1,.053.229.51.51,0,0,1-.079.267,1.274,1.274,0,0,1-.21.266l-.285.3a.2.2,0,0,0-.06.15.341.341,0,0,0,.011.086c.011.03.023.053.03.075a3.116,3.116,0,0,0,.349.481c.169.2.349.394.544.593s.4.383.6.552a2.877,2.877,0,0,0,.484.345l.068.03a.259.259,0,0,0,.094.015.207.207,0,0,0,.154-.064l.285-.282a1.153,1.153,0,0,1,.27-.21.5.5,0,0,1,.267-.079.6.6,0,0,1,.229.049,1.456,1.456,0,0,1,.263.146l1.242.882a.57.57,0,0,1,.206.24A.77.77,0,0,1,9.5,476.13Z" transform="translate(311.167 -217.697)" fill="none" stroke="#389583" stroke-miterlimit="10" stroke-width="1.5"/>
  </g>
</svg>
