<svg xmlns="http://www.w3.org/2000/svg" width="19.5" height="20.21" viewBox="0 0 19.5 20.21">
  <g id="Group_24580" data-name="Group 24580" transform="translate(-39.25 -145.893)">
    <path id="Path_13937" data-name="Path 13937" d="M50.01,146.92l5.9,2.62c1.7.75,1.7,1.99,0,2.74l-5.9,2.62a3.42,3.42,0,0,1-2.44,0l-5.9-2.62c-1.7-.75-1.7-1.99,0-2.74l5.9-2.62A3.42,3.42,0,0,1,50.01,146.92Z" fill="none" stroke="#292d32" stroke-linecap="round" stroke-linejoin="round" stroke-width="1.5"/>
    <path id="Path_13938" data-name="Path 13938" d="M40,155a2.562,2.562,0,0,0,1.4,2.15l6.79,3.02a1.988,1.988,0,0,0,1.62,0l6.79-3.02A2.562,2.562,0,0,0,58,155" fill="none" stroke="#292d32" stroke-linecap="round" stroke-linejoin="round" stroke-width="1.5"/>
    <path id="Path_13939" data-name="Path 13939" d="M40,160a2.357,2.357,0,0,0,1.4,2.15l6.79,3.02a1.988,1.988,0,0,0,1.62,0l6.79-3.02A2.357,2.357,0,0,0,58,160" fill="none" stroke="#292d32" stroke-linecap="round" stroke-linejoin="round" stroke-width="1.5"/>
  </g>
</svg>
