<svg xmlns="http://www.w3.org/2000/svg" width="22.11" height="21.717" viewBox="0 0 22.11 21.717">
  <g id="Group_24141" data-name="Group 24141" transform="translate(-1.64 -217.141)">
    <path id="Path_13951" data-name="Path 13951" d="M3.17,223.44,12,228.55l8.77-5.08" fill="none" stroke="#05396b" stroke-linecap="round" stroke-linejoin="round" stroke-width="1.5"/>
    <path id="Path_13952" data-name="Path 13952" d="M12,237.61v-9.07" fill="none" stroke="#05396b" stroke-linecap="round" stroke-linejoin="round" stroke-width="1.5"/>
    <path id="Path_13953" data-name="Path 13953" d="M21.61,225.17v5.66a.66.66,0,0,1-.01.14A3.921,3.921,0,0,0,19,230a4,4,0,0,0-4,4,3.921,3.921,0,0,0,.58,2.06,2.827,2.827,0,0,0,.32.45l-1.83,1.01a4.7,4.7,0,0,1-4.14,0l-5.34-2.96a4.719,4.719,0,0,1-2.2-3.73v-5.66a4.719,4.719,0,0,1,2.2-3.73l5.34-2.96a4.7,4.7,0,0,1,4.14,0l5.34,2.96A4.719,4.719,0,0,1,21.61,225.17Z" fill="none" stroke="#05396b" stroke-linecap="round" stroke-linejoin="round" stroke-width="1.5"/>
    <path id="Path_13954" data-name="Path 13954" d="M23,234a3.921,3.921,0,0,1-.58,2.06,3.593,3.593,0,0,1-.79.94A3.905,3.905,0,0,1,19,238a3.97,3.97,0,0,1-3.42-1.94A3.921,3.921,0,0,1,15,234a4,4,0,0,1,8,0Z" fill="none" stroke="#05396b" stroke-linecap="round" stroke-linejoin="round" stroke-miterlimit="10" stroke-width="1.5"/>
    <path id="Path_13955" data-name="Path 13955" d="M20.07,235.04l-2.12-2.11" fill="none" stroke="#05396b" stroke-linecap="round" stroke-linejoin="round" stroke-miterlimit="10" stroke-width="1.5"/>
    <path id="Path_13956" data-name="Path 13956" d="M20.05,232.96l-2.12,2.11" fill="none" stroke="#05396b" stroke-linecap="round" stroke-linejoin="round" stroke-miterlimit="10" stroke-width="1.5"/>
  </g>
</svg>
