<svg xmlns="http://www.w3.org/2000/svg" width="19.67" height="21.58" viewBox="0 0 19.67 21.58">
  <g id="Group_23463" data-name="Group 23463" transform="translate(-2.16 -577.21)">
    <path id="Path_13392" data-name="Path 13392" d="M21.08,584.58v6.84a3.174,3.174,0,0,1-1.57,2.73l-5.94,3.43a3.163,3.163,0,0,1-3.15,0l-5.94-3.43a3.15,3.15,0,0,1-1.57-2.73v-6.84a3.174,3.174,0,0,1,1.57-2.73l5.94-3.43a3.163,3.163,0,0,1,3.15,0l5.94,3.43A3.162,3.162,0,0,1,21.08,584.58Z" fill="rgba(255,255,255,0)" stroke="#05396b" stroke-linecap="round" stroke-linejoin="round" stroke-width="1.5"/>
    <path id="Path_13393" data-name="Path 13393" d="M9.75,588v-1.2c0-1.54,1.09-2.17,2.42-1.4l1.04.6,1.04.6c1.33.77,1.33,2.03,0,2.8l-1.04.6-1.04.6c-1.33.77-2.42.14-2.42-1.4Z" fill="rgba(255,255,255,0)" stroke="#05396b" stroke-linecap="round" stroke-linejoin="round" stroke-miterlimit="10" stroke-width="1.5"/>
  </g>
</svg>
