<svg xmlns="http://www.w3.org/2000/svg" width="21.51" height="20.624" viewBox="0 0 21.51 20.624">
  <g id="Group_23475" data-name="Group 23475" transform="translate(-1.25 -145.688)">
    <path id="Path_13359" data-name="Path 13359" d="M12,159a3,3,0,1,0-3-3A3,3,0,0,0,12,159Z" fill="rgba(255,255,255,0)" stroke="#05396b" stroke-linecap="round" stroke-linejoin="round" stroke-miterlimit="10" stroke-width="1.5"/>
    <path id="Path_13360" data-name="Path 13360" d="M2,156.88v-1.76a1.906,1.906,0,0,1,1.9-1.9c1.81,0,2.55-1.28,1.64-2.85a1.9,1.9,0,0,1,.7-2.59l1.73-.99a1.669,1.669,0,0,1,2.28.6l.11.19c.9,1.57,2.38,1.57,3.29,0l.11-.19a1.669,1.669,0,0,1,2.28-.6l1.73.99a1.9,1.9,0,0,1,.7,2.59c-.91,1.57-.17,2.85,1.64,2.85a1.906,1.906,0,0,1,1.9,1.9v1.76a1.906,1.906,0,0,1-1.9,1.9c-1.81,0-2.55,1.28-1.64,2.85a1.9,1.9,0,0,1-.7,2.59l-1.73.99a1.669,1.669,0,0,1-2.28-.6l-.11-.19c-.9-1.57-2.38-1.57-3.29,0l-.11.19a1.669,1.669,0,0,1-2.28.6l-1.73-.99a1.9,1.9,0,0,1-.7-2.59c.91-1.57.17-2.85-1.64-2.85A1.906,1.906,0,0,1,2,156.88Z" fill="rgba(255,255,255,0)" stroke="#05396b" stroke-linecap="round" stroke-linejoin="round" stroke-miterlimit="10" stroke-width="1.5"/>
  </g>
</svg>
