<svg xmlns="http://www.w3.org/2000/svg" width="22.5" height="22.265" viewBox="0 0 22.5 22.265">
  <g id="Group_24297" data-name="Group 24297" transform="translate(7947.75 -18949.25)">
    <path id="Path_14007" data-name="Path 14007" d="M6,16.229H18.1" transform="translate(-7948 18948.766)" fill="none" stroke="#05396b" stroke-linecap="round" stroke-linejoin="round" stroke-miterlimit="10" stroke-width="1.5"/>
    <path id="Path_14011" data-name="Path 14011" d="M11,11.852h7.1" transform="translate(-7948 18948.766)" fill="none" stroke="#05396b" stroke-linecap="round" stroke-linejoin="round" stroke-miterlimit="10" stroke-width="1.5"/>
    <path id="Path_14012" data-name="Path 14012" d="M14.224,7.846h3.552" transform="translate(-7948 18948.766)" fill="none" stroke="#05396b" stroke-linecap="round" stroke-linejoin="round" stroke-miterlimit="10" stroke-width="1.5"/>
    <path id="Path_14013" data-name="Path 14013" d="M6,11.235a5,5,0,1,0-5-5A5,5,0,0,0,6,11.235Z" transform="translate(-7948 18948.766)" fill="none" stroke="#05396b" stroke-linecap="round" stroke-linejoin="round" stroke-width="1.5"/>
    <path id="Path_14014" data-name="Path 14014" d="M12.818,2H15c5,0,7,2,7,7v6c0,5-2,7-7,7H9c-5,0-7-2-7-7V12.92" transform="translate(-7948 18948.766)" fill="none" stroke="#05396b" stroke-linecap="round" stroke-linejoin="round" stroke-width="1.5"/>
    <path id="Path_14015" data-name="Path 14015" d="M3.557,6.183,5.22,7.846,6.832,6.235,8.443,4.624" transform="translate(-7948 18948.766)" fill="none" stroke="#05396b" stroke-linecap="round" stroke-linejoin="round" stroke-width="1.5"/>
  </g>
</svg>
