<svg xmlns="http://www.w3.org/2000/svg" width="21.5" height="21.5" viewBox="0 0 21.5 21.5">
  <g id="Group_23544" data-name="Group 23544" transform="translate(-1.25 -1729.25)">
    <path id="Path_13581" data-name="Path 13581" d="M15,1750H9c-5,0-7-2-7-7v-6c0-5,2-7,7-7h6c5,0,7,2,7,7v6C22,1748,20,1750,15,1750Z" fill="none" stroke="#389583" stroke-linecap="round" stroke-linejoin="round" stroke-width="1.5"/>
    <path id="Path_13582" data-name="Path 13582" d="M6.888,1746.37a1.251,1.251,0,0,1-.657-.63,1.62,1.62,0,0,1,.12-1.66A4.013,4.013,0,0,1,7.7,1742.9a11.935,11.935,0,0,1,2.223-.97,28.475,28.475,0,0,0,1.593-3.34,10.64,10.64,0,0,1-.645-1.94,4.149,4.149,0,0,1-.069-1.7,1.636,1.636,0,0,1,.975-1.24,1.563,1.563,0,0,1,.9-.11,1.075,1.075,0,0,1,.419.19,1.107,1.107,0,0,1,.3.36,1.825,1.825,0,0,1,.19.8,4.812,4.812,0,0,1-.07.92,14.653,14.653,0,0,1-.78,2.69,15.872,15.872,0,0,0,1.47,2.53,8.932,8.932,0,0,1,2,.08,2.382,2.382,0,0,1,1.44.7,1.252,1.252,0,0,1,.3.77,1.756,1.756,0,0,1-.207.85,1.579,1.579,0,0,1-.531.62,1.3,1.3,0,0,1-.765.21,2.551,2.551,0,0,1-1.4-.63,8.752,8.752,0,0,1-1.366-1.42,17.009,17.009,0,0,0-3,.61,17.063,17.063,0,0,1-1.531,2.26,4,4,0,0,1-1.389,1.18,1.191,1.191,0,0,1-.87.05Zm2.068-2.86c-.249.12-.48.24-.688.36a2.993,2.993,0,0,0-.971.82.489.489,0,0,0-.06.54.214.214,0,0,0,.039.07c.018-.01.035-.01.053-.02a2.954,2.954,0,0,0,.952-.86,10.633,10.633,0,0,0,.675-.91Zm2.46-1.99c.5-.12,1.006-.21,1.515-.29q-.41-.63-.765-1.29c-.235.53-.485,1.06-.75,1.58Zm3.669.67a5.788,5.788,0,0,0,.653.62,1.478,1.478,0,0,0,.747.38.131.131,0,0,0,.1-.02.433.433,0,0,0,.141-.19.633.633,0,0,0,.088-.3.131.131,0,0,0-.039-.09,1.36,1.36,0,0,0-.777-.31,4.713,4.713,0,0,0-.918-.08Zm-2.985-5.25a10.267,10.267,0,0,0,.3-1.25,3.468,3.468,0,0,0,.057-.69.874.874,0,0,0-.048-.3.818.818,0,0,0-.218.06c-.13.05-.237.16-.294.42a3.164,3.164,0,0,0,.069,1.24c.036.16.081.34.135.52Z" fill="#389583"/>
  </g>
</svg>
