<svg xmlns="http://www.w3.org/2000/svg" width="21.195" height="21.5" viewBox="0 0 21.195 21.5">
  <g id="Group_23460" data-name="Group 23460" transform="translate(-1.502 -385.25)">
    <path id="Path_13376" data-name="Path 13376" d="M8,406h8c4.02,0,4.74-1.61,4.95-3.57l.75-8c.27-2.44-.43-4.43-4.7-4.43H7c-4.27,0-4.97,1.99-4.7,4.43l.75,8C3.26,404.39,3.98,406,8,406Z" fill="rgba(255,255,255,0)" stroke="#fff" stroke-linecap="round" stroke-linejoin="round" stroke-miterlimit="10" stroke-width="1.5"/>
    <path id="Path_13377" data-name="Path 13377" d="M8,390v-.8c0-1.77,0-3.2,3.2-3.2h1.6c3.2,0,3.2,1.43,3.2,3.2v.8" fill="rgba(255,255,255,0)" stroke="#fff" stroke-linecap="round" stroke-linejoin="round" stroke-miterlimit="10" stroke-width="1.5"/>
    <path id="Path_13378" data-name="Path 13378" d="M14,397v1.02c0,1.09-.01,1.98-2,1.98s-2-.88-2-1.97V397c0-1,0-1,1-1h2C14,396,14,396,14,397Z" fill="rgba(255,255,255,0)" stroke="#fff" stroke-linecap="round" stroke-linejoin="round" stroke-miterlimit="10" stroke-width="1.5"/>
    <path id="Path_13379" data-name="Path 13379" d="M21.65,395A16.484,16.484,0,0,1,14,398.02" fill="rgba(255,255,255,0)" stroke="#fff" stroke-linecap="round" stroke-linejoin="round" stroke-miterlimit="10" stroke-width="1.5"/>
    <path id="Path_13380" data-name="Path 13380" d="M2.62,395.27A16.283,16.283,0,0,0,10,398.03" fill="rgba(255,255,255,0)" stroke="#fff" stroke-linecap="round" stroke-linejoin="round" stroke-miterlimit="10" stroke-width="1.5"/>
  </g>
</svg>
