<svg xmlns="http://www.w3.org/2000/svg" width="21.49" height="21.49" viewBox="0 0 21.49 21.49">
  <g id="Group_24146" data-name="Group 24146" transform="translate(-1.26 -181.26)">
    <path id="Path_13943" data-name="Path 13943" d="M19.32,190H4.69a2.687,2.687,0,0,1-2.68-2.68v-2.63a2.687,2.687,0,0,1,2.68-2.68H19.32A2.687,2.687,0,0,1,22,184.69v2.63A2.693,2.693,0,0,1,19.32,190Z" fill="none" stroke="#fff" stroke-linecap="round" stroke-linejoin="round" stroke-width="1.5"/>
    <path id="Path_13944" data-name="Path 13944" d="M19.32,202H4.69a2.687,2.687,0,0,1-2.68-2.68v-2.63a2.687,2.687,0,0,1,2.68-2.68H19.32A2.687,2.687,0,0,1,22,196.69v2.63A2.693,2.693,0,0,1,19.32,202Z" fill="none" stroke="#fff" stroke-linecap="round" stroke-linejoin="round" stroke-width="1.5"/>
    <path id="Path_13945" data-name="Path 13945" d="M6,185v2" fill="none" stroke="#fff" stroke-linecap="round" stroke-linejoin="round" stroke-width="1.5"/>
    <path id="Path_13946" data-name="Path 13946" d="M10,185v2" fill="none" stroke="#fff" stroke-linecap="round" stroke-linejoin="round" stroke-width="1.5"/>
    <path id="Path_13947" data-name="Path 13947" d="M6,197v2" fill="none" stroke="#fff" stroke-linecap="round" stroke-linejoin="round" stroke-width="1.5"/>
    <path id="Path_13948" data-name="Path 13948" d="M10,197v2" fill="none" stroke="#fff" stroke-linecap="round" stroke-linejoin="round" stroke-width="1.5"/>
    <path id="Path_13949" data-name="Path 13949" d="M14,186h4" fill="none" stroke="#fff" stroke-linecap="round" stroke-linejoin="round" stroke-width="1.5"/>
    <path id="Path_13950" data-name="Path 13950" d="M14,198h4" fill="none" stroke="#fff" stroke-linecap="round" stroke-linejoin="round" stroke-width="1.5"/>
  </g>
</svg>
