<svg xmlns="http://www.w3.org/2000/svg" width="22.5" height="22.265" viewBox="0 0 22.5 22.265">
  <g id="Group_24299" data-name="Group 24299" transform="translate(7947.75 -19026.143)">
    <path id="Path_14022" data-name="Path 14022" d="M6,88.127a5,5,0,1,0-5-5A5,5,0,0,0,6,88.127Z" transform="translate(-7948 18948.766)" fill="none" stroke="#05396b" stroke-linecap="round" stroke-linejoin="round" stroke-width="1.5"/>
    <path id="Path_14023" data-name="Path 14023" d="M12.818,78.893H15c5,0,7,2,7,7v6c0,5-2,7-7,7H9c-5,0-7-2-7-7V89.813" transform="translate(-7948 18948.766)" fill="none" stroke="#05396b" stroke-linecap="round" stroke-linejoin="round" stroke-width="1.5"/>
    <path id="Path_14024" data-name="Path 14024" d="M3.557,83.076,5.22,84.739l1.611-1.611,1.611-1.611" transform="translate(-7948 18948.766)" fill="none" stroke="#05396b" stroke-linecap="round" stroke-linejoin="round" stroke-width="1.5"/>
    <path id="Path_14027" data-name="Path 14027" d="M14.5,92.155a1.43,1.43,0,1,0-1.43-1.43A1.43,1.43,0,0,0,14.5,92.155Z" transform="translate(-7948 18948.766)" fill="none" stroke="#05396b" stroke-width="1.5"/>
    <path id="Path_14028" data-name="Path 14028" d="M10.659,89.891a3.966,3.966,0,0,1,7.682,0c.527,2.328-.921,4.3-2.191,5.518a2.38,2.38,0,0,1-3.3,0C11.58,94.2,10.132,92.22,10.659,89.891Z" transform="translate(-7948 18948.766)" fill="none" stroke="#05396b" stroke-width="1.5"/>
  </g>
</svg>
