<svg xmlns="http://www.w3.org/2000/svg" width="21.465" height="21.686" viewBox="0 0 21.465 21.686">
  <g id="Group_23508" data-name="Group 23508" transform="translate(-1.252 -817.25)">
    <path id="Path_13409" data-name="Path 13409" d="M18,823.16a.608.608,0,0,0-.19,0,2.585,2.585,0,1,1,.19,0Z" fill="rgba(255,255,255,0)" stroke="#389583" stroke-linecap="round" stroke-linejoin="round" stroke-width="1.5"/>
    <path id="Path_13410" data-name="Path 13410" d="M16.97,830.44a5.635,5.635,0,0,0,3.94-.72,1.911,1.911,0,0,0,0-3.42,5.67,5.67,0,0,0-3.97-.71" fill="rgba(255,255,255,0)" stroke="#389583" stroke-linecap="round" stroke-linejoin="round" stroke-width="1.5"/>
    <path id="Path_13411" data-name="Path 13411" d="M5.97,823.16a.608.608,0,0,1,.19,0,2.585,2.585,0,1,0-.19,0Z" fill="rgba(255,255,255,0)" stroke="#389583" stroke-linecap="round" stroke-linejoin="round" stroke-width="1.5"/>
    <path id="Path_13412" data-name="Path 13412" d="M7,830.44a5.635,5.635,0,0,1-3.94-.72,1.911,1.911,0,0,1,0-3.42,5.67,5.67,0,0,1,3.97-.71" fill="rgba(255,255,255,0)" stroke="#389583" stroke-linecap="round" stroke-linejoin="round" stroke-width="1.5"/>
    <path id="Path_13413" data-name="Path 13413" d="M12,830.63a.6.6,0,0,0-.19,0,2.585,2.585,0,1,1,.19,0Z" fill="rgba(255,255,255,0)" stroke="#389583" stroke-linecap="round" stroke-linejoin="round" stroke-width="1.5"/>
    <path id="Path_13414" data-name="Path 13414" d="M9.09,833.78a1.911,1.911,0,0,0,0,3.42,5.677,5.677,0,0,0,5.82,0,1.911,1.911,0,0,0,0-3.42A5.723,5.723,0,0,0,9.09,833.78Z" fill="rgba(255,255,255,0)" stroke="#389583" stroke-linecap="round" stroke-linejoin="round" stroke-width="1.5"/>
  </g>
</svg>
