<svg xmlns="http://www.w3.org/2000/svg" width="22.5" height="22.265" viewBox="0 0 22.5 22.265">
  <g id="Group_24298" data-name="Group 24298" transform="translate(7947.75 -18987.138)">
    <path id="Path_14016" data-name="Path 14016" d="M6,49.123a5,5,0,1,0-5-5A5,5,0,0,0,6,49.123Z" transform="translate(-7948 18948.766)" fill="none" stroke="#05396b" stroke-linecap="round" stroke-linejoin="round" stroke-width="1.5"/>
    <path id="Path_14017" data-name="Path 14017" d="M12.818,39.888H15c5,0,7,2,7,7v6c0,5-2,7-7,7H9c-5,0-7-2-7-7v-2.08" transform="translate(-7948 18948.766)" fill="none" stroke="#05396b" stroke-linecap="round" stroke-linejoin="round" stroke-width="1.5"/>
    <path id="Path_14018" data-name="Path 14018" d="M3.557,44.071,5.22,45.734l1.611-1.611,1.611-1.611" transform="translate(-7948 18948.766)" fill="none" stroke="#05396b" stroke-linecap="round" stroke-linejoin="round" stroke-width="1.5"/>
    <path id="Path_14025" data-name="Path 14025" d="M17,48.505l-4.2,4.2-1.6-2.4L8,53.505" transform="translate(-7948 18948.766)" fill="none" stroke="#05396b" stroke-linecap="round" stroke-linejoin="round" stroke-width="1.5"/>
    <path id="Path_14026" data-name="Path 14026" d="M15,48.505h2v2" transform="translate(-7948 18948.766)" fill="none" stroke="#05396b" stroke-linecap="round" stroke-linejoin="round" stroke-width="1.5"/>
  </g>
</svg>
