<svg xmlns="http://www.w3.org/2000/svg" width="19.971" height="19.953" viewBox="0 0 19.971 19.953">
  <g id="Group_24574" data-name="Group 24574" transform="translate(-12.514 -12.523)">
    <path id="Path_13726" data-name="Path 13726" d="M4.17,339.3l4.53,4.53a4.78,4.78,0,0,0,6.75,0l4.39-4.39a4.78,4.78,0,0,0,0-6.75l-4.54-4.52a4.75,4.75,0,0,0-3.6-1.39l-5,.24a3.864,3.864,0,0,0-3.69,3.67l-.24,5A4.8,4.8,0,0,0,4.17,339.3Z" transform="translate(10.5 -313.499)" fill="none" stroke="#fff" stroke-linecap="round" stroke-linejoin="round" stroke-width="1.5"/>
    <path id="Path_13727" data-name="Path 13727" d="M9.5,336A2.5,2.5,0,1,0,7,333.5,2.5,2.5,0,0,0,9.5,336Z" transform="translate(10.5 -313.499)" fill="none" stroke="#fff" stroke-linecap="round" stroke-width="1.5"/>
  </g>
</svg>
