<svg xmlns="http://www.w3.org/2000/svg" width="20.625" height="21.31" viewBox="0 0 20.625 21.31">
  <g id="Group_23459" data-name="Group 23459" transform="translate(-1.595 -241.25)">
    <path id="Path_13366" data-name="Path 13366" d="M16.41,244a3.5,3.5,0,0,1,.13,7,1.13,1.13,0,0,0-.26,0" fill="rgba(255,255,255,0)" stroke="#fff" stroke-linecap="round" stroke-linejoin="round" stroke-width="1.5"/>
    <g id="Group_23554" data-name="Group 23554">
      <path id="Path_13365" data-name="Path 13365" d="M9.16,250.87a1.819,1.819,0,0,0-.33,0,4.445,4.445,0,1,1,.33,0Z" fill="rgba(255,255,255,0)" stroke="#fff" stroke-linecap="round" stroke-linejoin="round" stroke-width="1.5"/>
      <path id="Path_13367" data-name="Path 13367" d="M4.16,254.56c-2.42,1.62-2.42,4.26,0,5.87a9.766,9.766,0,0,0,10.01,0c2.42-1.62,2.42-4.26,0-5.87A9.812,9.812,0,0,0,4.16,254.56Z" fill="rgba(255,255,255,0)" stroke="#fff" stroke-linecap="round" stroke-linejoin="round" stroke-width="1.5"/>
    </g>
    <path id="Path_13368" data-name="Path 13368" d="M18.34,260a4.837,4.837,0,0,0,1.96-.87,2.533,2.533,0,0,0,0-4.27,4.974,4.974,0,0,0-1.93-.86" fill="rgba(255,255,255,0)" stroke="#fff" stroke-linecap="round" stroke-linejoin="round" stroke-width="1.5"/>
  </g>
</svg>
