<svg xmlns="http://www.w3.org/2000/svg" width="21.5" height="21.5" viewBox="0 0 21.5 21.5">
  <g id="hierarchy-square" transform="translate(-1.25 -1.25)">
    <path id="Path_13746" data-name="Path 13746" d="M7.55,9.6v5.9a1,1,0,0,0,1,1h2.9" fill="none" stroke="#fff" stroke-linecap="round" stroke-linejoin="round" stroke-width="1.5"/>
    <path id="Path_13747" data-name="Path 13747" d="M9.95,18l1.8-1.5L9.95,15" fill="none" stroke="#fff" stroke-linecap="round" stroke-linejoin="round" stroke-width="1.5"/>
    <path id="Path_13748" data-name="Path 13748" d="M16.45,13.8V9.6" fill="none" stroke="#fff" stroke-linecap="round" stroke-linejoin="round" stroke-width="1.5"/>
    <path id="Path_13749" data-name="Path 13749" d="M16.3,14.1a1.95,1.95,0,1,0,1.95,1.95A1.95,1.95,0,0,0,16.3,14.1Z" fill="none" stroke="#fff" stroke-linecap="round" stroke-linejoin="round" stroke-width="1.5"/>
    <path id="Path_13750" data-name="Path 13750" d="M16.45,6a1.8,1.8,0,1,0,1.8,1.8A1.8,1.8,0,0,0,16.45,6Z" fill="none" stroke="#fff" stroke-linecap="round" stroke-linejoin="round" stroke-width="1.5"/>
    <path id="Path_13751" data-name="Path 13751" d="M7.55,6a1.8,1.8,0,1,0,1.8,1.8A1.8,1.8,0,0,0,7.55,6Z" fill="none" stroke="#fff" stroke-linecap="round" stroke-linejoin="round" stroke-width="1.5"/>
    <path id="Path_13752" data-name="Path 13752" d="M15,2H9C4,2,2,4,2,9v6c0,5,2,7,7,7h6c5,0,7-2,7-7V9C22,4,20,2,15,2Z" fill="none" stroke="#fff" stroke-linecap="round" stroke-linejoin="round" stroke-width="1.5"/>
  </g>
</svg>
