<svg xmlns="http://www.w3.org/2000/svg" width="25.517" height="25.517" viewBox="0 0 25.517 25.517">
  <path id="Icon_material-my-location" data-name="Icon material-my-location" d="M14.259,9.619a4.64,4.64,0,1,0,4.64,4.64A4.638,4.638,0,0,0,14.259,9.619ZM24.628,13.1a10.432,10.432,0,0,0-9.209-9.209V1.5H13.1V3.889A10.432,10.432,0,0,0,3.889,13.1H1.5v2.32H3.889A10.432,10.432,0,0,0,13.1,24.628v2.389h2.32V24.628a10.432,10.432,0,0,0,9.209-9.209h2.389V13.1ZM14.259,22.378a8.119,8.119,0,1,1,8.119-8.119A8.113,8.113,0,0,1,14.259,22.378Z" transform="translate(-1.5 -1.5)" fill="#fff"/>
</svg>
