<svg xmlns="http://www.w3.org/2000/svg" width="21.5" height="21.56" viewBox="0 0 21.5 21.56">
  <g id="message-text" transform="translate(-1.25 -1.25)">
    <path id="Path_13836" data-name="Path 13836" d="M8.5,19H8c-4,0-6-1-6-6V8Q2,2,8,2h8q6,0,6,6v5q0,6-6,6h-.5a1.014,1.014,0,0,0-.8.4l-1.5,2a1.421,1.421,0,0,1-2.4,0l-1.5-2A1.13,1.13,0,0,0,8.5,19Z" fill="none" stroke="#389583" stroke-linecap="round" stroke-linejoin="round" stroke-miterlimit="10" stroke-width="1.5"/>
    <path id="Path_13837" data-name="Path 13837" d="M7,8H17" fill="none" stroke="#389583" stroke-linecap="round" stroke-linejoin="round" stroke-width="1.5"/>
    <path id="Path_13838" data-name="Path 13838" d="M7,13h6" fill="none" stroke="#389583" stroke-linecap="round" stroke-linejoin="round" stroke-width="1.5"/>
  </g>
</svg>
