<svg xmlns="http://www.w3.org/2000/svg" width="14" height="13.885" viewBox="0 0 14 13.885">
  <path id="Path_13420" data-name="Path 13420" d="M10.21,963.08l1.232,2.464a1.521,1.521,0,0,0,.994.735l2.233.371c1.428.238,1.764,1.274.735,2.3l-1.736,1.736a1.52,1.52,0,0,0-.364,1.267l.5,2.149c.392,1.7-.511,2.359-2.016,1.47l-2.093-1.239a1.513,1.513,0,0,0-1.386,0l-2.093,1.239c-1.5.889-2.408.224-2.016-1.47l.5-2.149a1.52,1.52,0,0,0-.364-1.267L2.6,968.946c-1.022-1.022-.693-2.058.735-2.3l2.233-.371a1.525,1.525,0,0,0,.987-.735l1.232-2.464C8.454,961.743,9.545,961.743,10.21,963.08Z" transform="translate(-2.001 -962.078)" fill="#fff"/>
</svg>
