<svg xmlns="http://www.w3.org/2000/svg" width="14.241" height="14.26" viewBox="0 0 14.241 14.26">
  <path id="Path_97" data-name="Path 97" d="M14.741,480.419a1.624,1.624,0,0,1-.16.7,2.633,2.633,0,0,1-.434.651,2.876,2.876,0,0,1-1.046.753,3.2,3.2,0,0,1-1.244.242,5.316,5.316,0,0,1-2.08-.466,11.206,11.206,0,0,1-2.195-1.263,18.344,18.344,0,0,1-2.093-1.786,18.127,18.127,0,0,1-1.78-2.086,11.375,11.375,0,0,1-1.251-2.176A5.374,5.374,0,0,1,2,472.9a3.3,3.3,0,0,1,.23-1.231,2.937,2.937,0,0,1,.734-1.065A1.869,1.869,0,0,1,4.29,470a1.2,1.2,0,0,1,.517.115,1.04,1.04,0,0,1,.427.357l1.48,2.086a2.184,2.184,0,0,1,.255.447,1.009,1.009,0,0,1,.089.389.866.866,0,0,1-.134.453,2.17,2.17,0,0,1-.357.453l-.485.5a.341.341,0,0,0-.1.255.579.579,0,0,0,.019.147c.019.051.038.089.051.128a5.294,5.294,0,0,0,.593.817c.287.332.593.67.925,1.008s.676.651,1.014.938a4.9,4.9,0,0,0,.823.587c.032.013.07.032.115.051a.441.441,0,0,0,.16.026.351.351,0,0,0,.262-.108l.485-.479a1.957,1.957,0,0,1,.459-.357.849.849,0,0,1,.453-.134,1.018,1.018,0,0,1,.389.083,2.469,2.469,0,0,1,.447.249l2.112,1.5a.968.968,0,0,1,.351.408A1.309,1.309,0,0,1,14.741,480.419Z" transform="translate(-1.25 -469.25)" fill="none" stroke="#292d32" stroke-miterlimit="10" stroke-width="1.5"/>
</svg>
