<?xml version="1.0" encoding="utf-8"?>
<!-- Generator: Adobe Illustrator 26.0.1, SVG Export Plug-In . SVG Version: 6.00 Build 0)  -->
<svg version="1.1" id="Layer_1" xmlns="http://www.w3.org/2000/svg" xmlns:xlink="http://www.w3.org/1999/xlink" x="0px" y="0px"
	 viewBox="0 0 22.5 22.3" style="enable-background:new 0 0 22.5 22.3;" xml:space="preserve">
<style type="text/css">
	.st0{fill:#05396B;}
</style>
<g>
	<path class="st0" d="M17.8,15H5.8C5.3,15,5,15.3,5,15.7s0.3,0.8,0.8,0.8h12.1c0.4,0,0.8-0.3,0.8-0.8S18.3,15,17.8,15z"/>
	<path class="st0" d="M10,11.4c0,0.4,0.3,0.7,0.8,0.7h7.1c0.4,0,0.8-0.3,0.8-0.7s-0.3-0.8-0.8-0.8h-7.1C10.3,10.6,10,11,10,11.4z"/>
	<path class="st0" d="M17.5,8.1c0.4,0,0.8-0.3,0.8-0.8s-0.3-0.8-0.8-0.8H14c-0.4,0-0.8,0.3-0.8,0.8s0.3,0.8,0.8,0.8H17.5z"/>
	<path class="st0" d="M5.8,11.5c3.2,0,5.8-2.6,5.8-5.8S8.9,0,5.8,0S0,2.6,0,5.8S2.6,11.5,5.8,11.5z M5.8,1.5c2.3,0,4.2,1.9,4.2,4.2
		S8.1,10,5.8,10S1.5,8.1,1.5,5.8S3.4,1.5,5.8,1.5z"/>
	<path class="st0" d="M14.8,0.8h-2.2c-0.4,0-0.8,0.3-0.8,0.8s0.3,0.8,0.8,0.8h2.2c4.6,0,6.2,1.6,6.2,6.2v6c0,4.6-1.6,6.2-6.2,6.2h-6
		c-4.6,0-6.2-1.6-6.2-6.2v-2.1c0-0.4-0.3-0.8-0.8-0.8S1,12,1,12.4v2.1c0,5.4,2.3,7.8,7.8,7.8h6c5.4,0,7.8-2.3,7.8-7.8v-6
		C22.5,3.1,20.2,0.8,14.8,0.8z"/>
	<path class="st0" d="M4.4,7.9C4.6,8,4.8,8.1,5,8.1S5.4,8,5.5,7.9l3.2-3.2C9,4.4,9,3.9,8.7,3.6S8,3.3,7.7,3.6L5,6.3L3.8,5.2
		c-0.3-0.3-0.8-0.3-1.1,0s-0.3,0.8,0,1.1L4.4,7.9z"/>
</g>
</svg>
