<svg xmlns="http://www.w3.org/2000/svg" width="20.09" height="21.5" viewBox="0 0 20.09 21.5">
  <g id="user-tick" transform="translate(-2.66 -1.25)">
    <path id="Path_13635" data-name="Path 13635" d="M12,12A5,5,0,1,0,7,7,5,5,0,0,0,12,12Z" fill="none" stroke="#05396b" stroke-linecap="round" stroke-linejoin="round" stroke-width="1.5"/>
    <path id="Path_13636" data-name="Path 13636" d="M3.41,22c0-3.87,3.85-7,8.59-7a10.391,10.391,0,0,1,2.76.37" fill="none" stroke="#05396b" stroke-linecap="round" stroke-linejoin="round" stroke-width="1.5"/>
    <path id="Path_13637" data-name="Path 13637" d="M22,18a3.921,3.921,0,0,1-.58,2.06,3.593,3.593,0,0,1-.79.94A3.905,3.905,0,0,1,18,22a3.97,3.97,0,0,1-3.42-1.94A3.921,3.921,0,0,1,14,18a4,4,0,0,1,8,0Z" fill="none" stroke="#05396b" stroke-linecap="round" stroke-linejoin="round" stroke-miterlimit="10" stroke-width="1.5"/>
    <path id="Path_13638" data-name="Path 13638" d="M16.44,18l.99.99,2.13-1.97" fill="none" stroke="#05396b" stroke-linecap="round" stroke-linejoin="round" stroke-width="1.5"/>
  </g>
</svg>
