<?xml version="1.0" encoding="utf-8"?>
<!-- Generator: Adobe Illustrator 26.0.1, SVG Export Plug-In . SVG Version: 6.00 Build 0)  -->
<svg version="1.1" id="Layer_1" xmlns="http://www.w3.org/2000/svg" xmlns:xlink="http://www.w3.org/1999/xlink" x="0px" y="0px"
	 viewBox="0 0 26.3 21.3" style="enable-background:new 0 0 26.3 21.3;" xml:space="preserve">
<style type="text/css">
	.st0{fill:#05396B;}
</style>
<g>
	<path class="st0" d="M20,5.1c-1.3,0-2.4,1.1-2.4,2.4S18.6,10,20,10s2.4-1.1,2.4-2.4S21.3,5.1,20,5.1z M20,8.5
		c-0.5,0-0.9-0.4-0.9-0.9s0.4-0.9,0.9-0.9s0.9,0.4,0.9,0.9S20.5,8.5,20,8.5z"/>
	<path class="st0" d="M24.5,5.2c-0.3,0-0.4-0.1-0.4-0.1s0-0.1,0.1-0.4c0.5-0.9,0.2-2-0.7-2.5l-1-0.6c-0.8-0.5-1.8-0.2-2.3,0.6
		l-0.1,0.1c0,0,0,0.1-0.1,0.1c0,0.1-0.1,0.1-0.1,0.1c-0.1,0-0.1,0-0.2,0c0,0-0.1-0.1-0.1-0.1c0,0,0-0.1-0.1-0.1l-0.1-0.1
		c-0.5-0.8-1.5-1.1-2.3-0.6l-1,0.6c-0.9,0.5-1.2,1.6-0.7,2.5c0.1,0.2,0.1,0.4,0.1,0.4c0,0-0.1,0.1-0.4,0.1c-1,0-1.8,0.8-1.8,1.8v1
		c0,0,0,0,0,0c0,1,0.8,1.8,1.8,1.8c0.3,0,0.4,0.1,0.4,0.1s0,0.1-0.1,0.4c-0.5,0.9-0.2,2,0.7,2.5l1,0.6c0.8,0.5,1.8,0.2,2.3-0.6
		l0.1-0.1c0,0,0-0.1,0.1-0.1c0-0.1,0.1-0.1,0.1-0.1c0.1,0,0.2,0,0.3,0.1c0,0,0,0.1,0.1,0.1l0.1,0.1c0.3,0.5,0.9,0.8,1.5,0.8
		c0.3,0,0.6-0.1,0.8-0.2l1-0.6c0.9-0.5,1.2-1.6,0.7-2.5c-0.1-0.2-0.1-0.4-0.1-0.4s0.1-0.1,0.4-0.1c1,0,1.8-0.8,1.8-1.8V7
		C26.3,6,25.5,5.2,24.5,5.2z M24.8,8c0,0.2-0.1,0.3-0.3,0.3c-0.8,0-1.4,0.3-1.7,0.8c-0.3,0.5-0.3,1.2,0.1,1.9c0.1,0.1,0,0.3-0.1,0.4
		l-1,0.6c-0.1,0.1-0.2,0-0.3-0.1l0,0c-0.3-0.8-1.3-1.3-2.2-1c-0.5,0.2-0.9,0.5-1,1l0,0.1c-0.1,0.1-0.2,0.1-0.3,0.1l-1-0.6
		c-0.1-0.1-0.2-0.3-0.1-0.4c0.4-0.7,0.4-1.3,0.1-1.9c-0.3-0.5-0.9-0.8-1.7-0.8c-0.2,0-0.3-0.1-0.3-0.3V7c0-0.2,0.1-0.3,0.3-0.3
		c0.8,0,1.4-0.3,1.7-0.8C17.4,5.3,17.4,4.7,17,4c-0.1-0.1,0-0.3,0.1-0.4l1-0.6c0.1-0.1,0.2,0,0.3,0.1l0,0c0.2,0.4,0.5,0.7,0.8,0.9
		c0.4,0.2,0.9,0.2,1.3,0.1c0.5-0.2,0.9-0.5,1-1l0,0C21.7,3,21.8,3,21.9,3l1,0.6C23,3.7,23,3.9,23,4c-0.4,0.7-0.4,1.3-0.1,1.9
		c0.3,0.5,0.9,0.8,1.7,0.8c0.2,0,0.3,0.1,0.3,0.3V8z"/>
	<path class="st0" d="M7.3,10.4c0.1,0,0.1,0,0.2,0c0,0,0,0,0.1,0c0,0,0,0,0,0c2.7-0.1,4.9-2.3,5-5c0.1-2.9-2.1-5.3-5-5.4
		C6.2-0.1,4.9,0.4,3.9,1.4C2.8,2.3,2.3,3.6,2.2,5C2.1,7.8,4.3,10.3,7.3,10.4z M4.9,2.5c0.7-0.6,1.6-1,2.5-1c0,0,0.1,0,0.1,0
		c2,0.1,3.6,1.8,3.6,3.8C11,7.2,9.5,8.8,7.6,8.9c-0.1,0-0.3,0-0.3,0c-1,0-1.9-0.5-2.6-1.2C4,7,3.7,6,3.7,5S4.2,3.1,4.9,2.5z"/>
	<path class="st0" d="M13,12.7c-3.3-2-7.5-2-10.8,0c0,0,0,0,0,0C0.8,13.6,0,14.9,0,16.3c0,1.4,0.8,2.6,2.2,3.6
		c1.7,1,3.5,1.5,5.4,1.5c1.9,0,3.7-0.5,5.4-1.5c1.4-0.9,2.1-2.2,2.1-3.6C15.1,14.9,14.4,13.6,13,12.7z M12.2,18.5
		c-2.8,1.7-6.4,1.7-9.2,0c-1-0.6-1.5-1.5-1.5-2.3c0-0.8,0.5-1.7,1.5-2.3c2.8-1.7,6.4-1.7,9.2,0c1,0.6,1.5,1.5,1.5,2.3
		C13.6,17.1,13.1,17.9,12.2,18.5z"/>
</g>
</svg>
