<?xml version="1.0" encoding="utf-8"?>
<!-- Generator: Adobe Illustrator 26.0.1, SVG Export Plug-In . SVG Version: 6.00 Build 0)  -->
<svg version="1.1" id="Layer_1" xmlns="http://www.w3.org/2000/svg" xmlns:xlink="http://www.w3.org/1999/xlink" x="0px" y="0px"
	 viewBox="0 0 21 20" style="enable-background:new 0 0 21 20;" xml:space="preserve">
<style type="text/css">
	.st0{fill:#05396B;}
</style>
<g id="paperclip-2">
	<path class="st0" d="M11.5,19c-0.9,0-1.9-0.3-2.6-0.9c-1.8-1.5-2.2-4.1-0.7-6l2.3-2.7c0.3-0.3,0.7-0.4,1.1-0.1
		c0.3,0.3,0.4,0.7,0.1,1.1l-2.2,2.7c-0.9,1.2-0.7,2.9,0.5,3.8c1.1,0.9,2.8,0.8,3.8-0.3l3.5-4.2c1.1-1.3,1.6-2.9,1.4-4.6
		c-0.1-1.7-0.9-3.2-2.2-4.2c-2.6-2.2-6.6-1.9-8.8,0.8L3.7,9c-1.9,2.2-1.6,5.5,0.6,7.4c0.3,0.3,0.4,0.7,0.1,1.1
		c-0.3,0.3-0.7,0.4-1.1,0.1C0.5,15.1,0.1,10.9,2.5,8l3.9-4.6c2.7-3.3,7.6-3.7,10.9-1c1.6,1.3,2.6,3.2,2.7,5.3
		c0.2,2.1-0.5,4.1-1.8,5.7l-3.5,4.2C13.9,18.5,12.7,19,11.5,19z"/>
</g>
</svg>
