<?xml version="1.0" encoding="utf-8"?>
<!-- Generator: Adobe Illustrator 26.0.1, SVG Export Plug-In . SVG Version: 6.00 Build 0)  -->
<svg version="1.1" id="Layer_1" xmlns="http://www.w3.org/2000/svg" xmlns:xlink="http://www.w3.org/1999/xlink" x="0px" y="0px"
	 viewBox="0 0 33 33" style="enable-background:new 0 0 33 33;" xml:space="preserve">
<style type="text/css">
	.st0{fill:#FFFFFF;}
</style>
<g>
	<path class="st0" d="M16.5,0C7.4,0,0,7.4,0,16.5C0,25.6,7.4,33,16.5,33C25.6,33,33,25.6,33,16.5C33,7.4,25.6,0,16.5,0z M16.5,31
		C8.5,31,2,24.5,2,16.5S8.5,2,16.5,2S31,8.5,31,16.5S24.5,31,16.5,31z"/>
	<path class="st0" d="M21.9,15.5h-8.4l2.9-2.9c0.4-0.4,0.4-1,0-1.4s-1-0.4-1.4,0l-4.6,4.6c-0.4,0.4-0.4,1,0,1.4l4.6,4.7
		c0.2,0.2,0.5,0.3,0.7,0.3s0.5-0.1,0.7-0.3c0.4-0.4,0.4-1,0-1.4l-2.9-2.9h8.4c0.6,0,1-0.4,1-1C22.9,15.9,22.5,15.5,21.9,15.5z"/>
</g>
</svg>
