<?xml version="1.0" encoding="utf-8"?>
<!-- Generator: Adobe Illustrator 26.0.1, SVG Export Plug-In . SVG Version: 6.00 Build 0)  -->
<svg version="1.1" id="Layer_1" xmlns="http://www.w3.org/2000/svg" xmlns:xlink="http://www.w3.org/1999/xlink" x="0px" y="0px"
	 viewBox="0 0 19.5 19.5" style="enable-background:new 0 0 19.5 19.5;" xml:space="preserve">
<style type="text/css">
	.st0{fill:#FFFFFF;}
</style>
<g>
	<path class="st0" d="M16.8,0h-3.6c-1.9,0-2.8,0.9-2.8,2.8v3.6c0,1.9,0.9,2.8,2.8,2.8h3.6c1.9,0,2.8-0.9,2.8-2.8V2.8
		C19.5,0.9,18.6,0,16.8,0z M18,6.4c0,1-0.2,1.3-1.3,1.3h-3.6c-1,0-1.3-0.2-1.3-1.3V2.8c0-1,0.2-1.3,1.3-1.3h3.6c1,0,1.3,0.2,1.3,1.3
		V6.4z"/>
	<path class="st0" d="M6.4,0H2.8C0.9,0,0,0.9,0,2.5v4.1c0,1.7,0.9,2.5,2.8,2.5h3.6c0,0,0,0,0,0c1,0,1.6-0.2,2.1-0.7
		c0.4-0.4,0.6-1,0.6-1.9V2.5C9.2,0.9,8.2,0,6.4,0z M7.7,6.6c0,0.4-0.1,0.7-0.2,0.8C7.3,7.6,6.9,7.6,6.4,7.7H2.8
		c-1.2,0-1.3-0.3-1.3-1V2.5c0-0.7,0.1-1,1.3-1h3.6c1.1,0,1.3,0.3,1.3,1V6.6z"/>
	<path class="st0" d="M6.4,10.4H2.8c-1.9,0-2.8,0.9-2.8,2.8v3.6c0,1.9,0.9,2.8,2.8,2.8h3.6c1.9,0,2.8-0.9,2.8-2.8v-3.6
		C9.2,11.3,8.3,10.4,6.4,10.4z M7.7,16.8c0,1-0.2,1.3-1.3,1.3H2.8c-1,0-1.3-0.2-1.3-1.3v-3.6c0-1,0.2-1.3,1.3-1.3h3.6
		c1,0,1.3,0.2,1.3,1.3V16.8z"/>
	<path class="st0" d="M17.4,14h-2v-2c0-0.4-0.3-0.8-0.8-0.8S14,11.6,14,12v2h-2c-0.4,0-0.8,0.3-0.8,0.8s0.3,0.8,0.8,0.8h2v2
		c0,0.4,0.3,0.8,0.8,0.8s0.8-0.3,0.8-0.8v-2h2c0.4,0,0.8-0.3,0.8-0.8S17.8,14,17.4,14z"/>
</g>
</svg>
