<?xml version="1.0" encoding="utf-8"?>
<!-- Generator: Adobe Illustrator 26.0.1, SVG Export Plug-In . SVG Version: 6.00 Build 0)  -->
<svg version="1.1" id="Layer_1" xmlns="http://www.w3.org/2000/svg" xmlns:xlink="http://www.w3.org/1999/xlink" x="0px" y="0px"
	 viewBox="0 0 34.5 28.5" style="enable-background:new 0 0 34.5 28.5;" xml:space="preserve">
<style type="text/css">
	.st0{fill:#FFFFFF;}
</style>
<g>
	<path class="st0" d="M30.8,4.5h-5.6l-2.8-4.2C22.2,0.1,22,0,21.8,0h-9c-0.3,0-0.5,0.1-0.6,0.3L9.3,4.5H3.8C1.7,4.5,0,6.2,0,8.2
		v16.5c0,2.1,1.7,3.8,3.8,3.8h27c2.1,0,3.8-1.7,3.8-3.8V8.2C34.5,6.2,32.8,4.5,30.8,4.5z M33,24.8c0,1.2-1,2.2-2.2,2.2h-27
		c-1.2,0-2.2-1-2.2-2.2V8.2C1.5,7,2.5,6,3.8,6h6c0.3,0,0.5-0.1,0.6-0.3l2.8-4.2h8.2l2.8,4.2C24.3,5.9,24.5,6,24.8,6h6
		C32,6,33,7,33,8.2V24.8z"/>
	<path class="st0" d="M17.2,9c-3.7,0-6.8,3-6.8,6.8c0,3.7,3,6.8,6.8,6.8c3.7,0,6.8-3,6.8-6.8C24,12,21,9,17.2,9z M17.2,21
		c-2.9,0-5.2-2.4-5.2-5.2c0-2.9,2.4-5.2,5.2-5.2c2.9,0,5.2,2.4,5.2,5.2C22.5,18.6,20.1,21,17.2,21z"/>
</g>
</svg>
