<?xml version="1.0" encoding="utf-8"?>
<!-- Generator: Adobe Illustrator 26.0.1, SVG Export Plug-In . SVG Version: 6.00 Build 0)  -->
<svg version="1.1" id="Layer_1" xmlns="http://www.w3.org/2000/svg" xmlns:xlink="http://www.w3.org/1999/xlink" x="0px" y="0px"
	 viewBox="0 0 21.5 21.5" style="enable-background:new 0 0 21.5 21.5;" xml:space="preserve">
<style type="text/css">
	.st0{fill:#FFFFFF;}
</style>
<g>
	<path class="st0" d="M15.8,0h-4.2C7.7,0,6,1.7,6,5.6V6H5.6C1.7,6,0,7.7,0,11.6v4.2c0,3.9,1.7,5.7,5.6,5.7h4.2c0,0,0,0,0,0
		c2,0,3.4-0.4,4.3-1.4s1.4-2.3,1.4-4.3v-0.3h0.3c3.9,0,5.7-1.7,5.7-5.6V5.6C21.5,1.7,19.8,0,15.8,0z M14,15.8c0,1.6-0.3,2.6-0.9,3.2
		S11.4,20,9.9,20c0,0,0,0,0,0H5.6c-3.1,0-4.1-1-4.1-4.2v-4.2c0-3.1,1-4.1,4.1-4.1h1.1c0,0,0,0,0,0h3.1c3.1,0,4.1,1,4.1,4.1v3.1V15.8
		z M20,9.9c0,3.1-1,4.1-4.2,4.1h-0.3v-2.4v0c0-3.9-1.7-5.6-5.6-5.6H7.5V5.6c0-3.1,1-4.1,4.1-4.1h4.2c3.1,0,4.2,1,4.2,4.1V9.9z"/>
	<path class="st0" d="M10.1,11.3l-3.4,3.4l-1.4-1.4c-0.3-0.3-0.8-0.3-1.1,0S4,14,4.3,14.3l1.9,2c0.1,0.1,0.3,0.2,0.5,0.2h0
		c0.2,0,0.4-0.1,0.5-0.2l3.9-3.9c0.3-0.3,0.3-0.8,0-1.1C10.9,11,10.4,11,10.1,11.3z"/>
</g>
</svg>
