<?xml version="1.0" encoding="utf-8"?>
<!-- Generator: Adobe Illustrator 26.0.1, SVG Export Plug-In . SVG Version: 6.00 Build 0)  -->
<svg version="1.1" id="Layer_1" xmlns="http://www.w3.org/2000/svg" xmlns:xlink="http://www.w3.org/1999/xlink" x="0px" y="0px"
	 viewBox="0 0 21.5 21.5" style="enable-background:new 0 0 21.5 21.5;" xml:space="preserve">
<style type="text/css">
	.st0{fill:#BBBFCF;}
</style>
<g>
	<path class="st0" d="M10.8,0C4.8,0,0,4.8,0,10.8c0,5.9,4.8,10.7,10.7,10.7c0,0,0,0,0,0c5.9,0,10.8-4.8,10.8-10.8S16.7,0,10.8,0z
		 M10.8,20c-5.1,0-9.2-4.2-9.3-9.2c0-5.1,4.1-9.2,9.2-9.2S20,5.6,20,10.8C20,15.8,15.9,20,10.8,20z"/>
	<path class="st0" d="M14.1,7.4c-0.3-0.3-0.8-0.3-1.1,0l-2.3,2.3L8.5,7.4c-0.3-0.3-0.8-0.3-1.1,0s-0.3,0.8,0,1.1l2.3,2.3L7.4,13
		c-0.3,0.3-0.3,0.8,0,1.1c0.1,0.1,0.3,0.2,0.5,0.2s0.4-0.1,0.5-0.2l2.3-2.3l2.3,2.3c0.1,0.1,0.3,0.2,0.5,0.2s0.4-0.1,0.5-0.2
		c0.3-0.3,0.3-0.8,0-1.1l-2.3-2.3l2.3-2.3C14.4,8.2,14.4,7.7,14.1,7.4z"/>
</g>
</svg>
