<?xml version="1.0" encoding="utf-8"?>
<!-- Generator: Adobe Illustrator 26.0.1, SVG Export Plug-In . SVG Version: 6.00 Build 0)  -->
<svg version="1.1" id="Layer_1" xmlns="http://www.w3.org/2000/svg" xmlns:xlink="http://www.w3.org/1999/xlink" x="0px" y="0px"
	 viewBox="0 0 21.7 21.7" style="enable-background:new 0 0 21.7 21.7;" xml:space="preserve">
<style type="text/css">
	.st0{fill:#05396B;}
</style>
<g>
	<path class="st0" d="M18.5,3.2C16.5,1.1,13.8,0,10.9,0h0C4.9,0,0,4.9,0,10.9c0,6,4.9,10.9,10.9,10.9s10.9-4.9,10.9-10.9v0
		C21.7,8,20.6,5.2,18.5,3.2z M10.9,20.2c-5.2,0-9.4-4.2-9.4-9.4c0-5.2,4.2-9.4,9.4-9.4c2.5,0,4.9,1,6.6,2.7c1.8,1.8,2.7,4.1,2.7,6.6
		C20.2,16,16,20.2,10.9,20.2z"/>
	<path class="st0" d="M15.2,12.2l-3.6-1.8V4.8c0-0.4-0.3-0.8-0.8-0.8s-0.8,0.3-0.8,0.8v6.1c0,0.3,0.2,0.5,0.4,0.7l4,2
		c0.1,0.1,0.2,0.1,0.3,0.1c0.3,0,0.5-0.2,0.7-0.4C15.8,12.8,15.6,12.4,15.2,12.2z"/>
</g>
</svg>
