<?xml version="1.0" encoding="utf-8"?>
<!-- Generator: Adobe Illustrator 26.0.1, SVG Export Plug-In . SVG Version: 6.00 Build 0)  -->
<svg version="1.1" id="Layer_1" xmlns="http://www.w3.org/2000/svg" xmlns:xlink="http://www.w3.org/1999/xlink" x="0px" y="0px"
	 viewBox="0 0 20.5 21.5" style="enable-background:new 0 0 20.5 21.5;" xml:space="preserve">
<style type="text/css">
	.st0{fill:#FFFFFF;}
</style>
<g>
	<path class="st0" d="M18.1,5.4c-0.4-3.4-3.2-4.2-5.3-4.6L8.1,0.1C3.8-0.5,1.6,1.1,0.9,5.4l-0.7,4.7c-0.3,1.7-0.4,4.2,1.6,5.8
		c0.5,1.6,1.9,2.8,4.3,3.6l4.5,1.5c1.1,0.4,2.1,0.6,2.9,0.6c0.8,0,1.5-0.2,2.1-0.5c1.3-0.7,2.2-1.9,2.9-4.1l1.5-4.5
		C21.1,9.1,20.5,6.9,18.1,5.4z M1.6,10.3l0.7-4.7c0.5-2.9,1.5-4.1,3.9-4.1c0.5,0,1,0,1.6,0.1l4.7,0.7c2.8,0.4,4,1.5,4.1,3.6
		c0,0.6,0,1.3-0.1,1.9l-0.7,4.7c-0.6,3.5-2,4.5-5.5,4l-4.7-0.7c-1-0.1-2-0.5-2.8-1C2,14.2,1.2,13.2,1.6,10.3z M18.6,12l-1.5,4.5
		c-1.1,3.4-2.7,4.2-6.1,3L6.5,18c-0.8-0.3-1.5-0.6-2-0.9c0.3,0.1,0.6,0.1,0.9,0.1l4.7,0.7c0.3,0,0.6,0.1,0.8,0.1c0.1,0,0.2,0,0.3,0
		c0.2,0,0.3,0,0.5,0c0,0,0.1,0,0.1,0c0,0,0.1,0,0.1,0c0.3,0,0.7,0,1-0.1c0,0,0,0,0.1,0c0.3,0,0.6-0.1,0.9-0.2c0,0,0.1,0,0.1,0
		c0.3-0.1,0.5-0.2,0.7-0.4c0,0,0.1-0.1,0.1-0.1c0.2-0.2,0.5-0.3,0.7-0.5c0,0,0,0,0.1-0.1c0.2-0.2,0.4-0.4,0.5-0.7c0,0,0,0,0-0.1
		c0.2-0.3,0.3-0.5,0.4-0.8c0,0,0-0.1,0.1-0.1c0.1-0.3,0.2-0.6,0.3-1c0-0.1,0-0.1,0-0.2c0.1-0.4,0.2-0.8,0.2-1.2L18,8.1
		c0-0.3,0.1-0.5,0.1-0.8C19,8.2,19.4,9.5,18.6,12z"/>
	<path class="st0" d="M11.9,15.8c1.4,0,2.5-1.1,2.5-2.5s-1.1-2.5-2.5-2.5s-2.5,1.1-2.5,2.5S10.5,15.8,11.9,15.8z M11.9,12.3
		c0.5,0,1,0.4,1,1s-0.4,1-1,1s-1-0.4-1-1S11.3,12.3,11.9,12.3z"/>
</g>
</svg>
