<?xml version="1.0" encoding="utf-8"?>
<!-- Generator: Adobe Illustrator 26.0.1, SVG Export Plug-In . SVG Version: 6.00 Build 0)  -->
<svg version="1.1" id="Layer_1" xmlns="http://www.w3.org/2000/svg" xmlns:xlink="http://www.w3.org/1999/xlink" x="0px" y="0px"
	 viewBox="0 0 21.5 18.5" style="enable-background:new 0 0 21.5 18.5;" xml:space="preserve">
<style type="text/css">
	.st0{fill:#389583;}
</style>
<g>
	<path class="st0" d="M6.8,13h-2C4.3,13,4,13.3,4,13.8s0.3,0.8,0.8,0.8h2c0.4,0,0.8-0.3,0.8-0.8S7.2,13,6.8,13z"/>
	<path class="st0" d="M13.2,13h-4c-0.4,0-0.8,0.3-0.8,0.8s0.3,0.8,0.8,0.8h4c0.4,0,0.8-0.3,0.8-0.8S13.7,13,13.2,13z"/>
	<path class="st0" d="M16.3,0H5.2C1.2,0,0,1.2,0,5.1v8.2c0,2.1,0.3,3.3,1.1,4c0.8,0.8,2,1.1,4,1.1c0,0,0,0,0.1,0h11.1
		c4,0,5.2-1.2,5.2-5.1V5.1C21.5,1.2,20.3,0,16.3,0z M5.2,1.5h11.1C19.4,1.5,20,2,20,5H1.5C1.5,2,2.1,1.5,5.2,1.5z M16.3,17H5.2
		c-1.6,0-2.6-0.2-3-0.7c-0.5-0.5-0.7-1.3-0.7-3V6.5H20v6.8C20,16.4,19.4,17,16.3,17z"/>
</g>
</svg>
