<?xml version="1.0" encoding="utf-8"?>
<!-- Generator: Adobe Illustrator 26.0.1, SVG Export Plug-In . SVG Version: 6.00 Build 0)  -->
<svg version="1.1" id="Layer_1" xmlns="http://www.w3.org/2000/svg" xmlns:xlink="http://www.w3.org/1999/xlink" x="0px" y="0px"
	 viewBox="0 0 24.9 23.2" style="enable-background:new 0 0 24.9 23.2;" xml:space="preserve">
<style type="text/css">
	.st0{fill:#05396B;}
</style>
<g>
	<path class="st0" d="M7,12.7c0.7,0,1.2,0.3,1.4,0.8c0.1,0.2,0.2,0.3,0.4,0.2l0.5-0.2c0.2-0.1,0.3-0.2,0.2-0.4
		c-0.3-1-1.1-1.5-2.4-1.5c-1.7,0-2.6,0.9-2.6,2.3v2c0,1.4,0.9,2.3,2.6,2.3c1.3,0,2.1-0.5,2.5-1.5c0.1-0.2,0-0.3-0.2-0.4l-0.5-0.2
		c-0.2-0.1-0.3,0-0.4,0.2C8.2,17,7.7,17.3,7,17.3c-0.9,0-1.4-0.5-1.4-1.3v-2C5.5,13.2,6.1,12.7,7,12.7z"/>
	<path class="st0" d="M12.6,17.3c-0.7,0-1.2-0.3-1.4-0.8c-0.1-0.2-0.2-0.3-0.4-0.2l-0.5,0.2c-0.2,0.1-0.3,0.2-0.2,0.4
		c0.4,1,1.1,1.5,2.5,1.5c1.7,0,2.6-0.8,2.6-2c0-1.5-1.2-1.8-2.3-1.9c-0.8-0.1-1.6-0.2-1.6-0.9c0-0.6,0.4-0.8,1.3-0.8
		c0.7,0,1.1,0.3,1.3,0.8c0.1,0.2,0.2,0.2,0.4,0.2l0.5-0.2c0.2-0.1,0.3-0.2,0.2-0.4c-0.4-0.9-1.1-1.4-2.4-1.4c-1.6,0-2.5,0.8-2.5,2
		c0,1.6,1.4,1.7,2.4,1.9c0.8,0.1,1.4,0.2,1.4,0.8C14,17,13.5,17.3,12.6,17.3z"/>
	<path class="st0" d="M16,11.8h-0.5c-0.2,0-0.3,0.1-0.2,0.3l2.2,5.9c0.1,0.2,0.2,0.2,0.4,0.2h0.5c0.2,0,0.3,0,0.4-0.3l2.2-5.8
		c0.1-0.2,0-0.3-0.2-0.3h-0.4c-0.4,0-0.5,0.1-0.6,0.3l-1.3,3.8c-0.1,0.4-0.2,0.9-0.2,0.9h-0.1c0,0-0.1-0.5-0.2-1l-1.3-3.8
		C16.5,11.9,16.4,11.8,16,11.8z"/>
	<path class="st0" d="M18,6.3c-0.4,0-0.8,0.3-0.8,0.7s0.3,0.8,0.7,0.8c4,0.3,5.6,2.3,5.6,6.8v0.2c0,5-1.9,6.9-7,6.9h-8
		c-5.1,0-7-1.9-7-6.9v-0.2C1.5,10.1,3,8.2,7,7.8c0.4,0,0.7-0.4,0.7-0.8c0-0.4-0.4-0.7-0.8-0.7C2.1,6.7,0,9.3,0,14.6v0.2
		c0,5.9,2.5,8.4,8.5,8.4h8c5.9,0,8.5-2.5,8.5-8.4v-0.2C24.9,9.3,22.8,6.7,18,6.3z"/>
	<path class="st0" d="M11.9,9.6c0.1,0.1,0.3,0.2,0.5,0.2s0.4-0.1,0.5-0.2l3.3-3.4c0.3-0.3,0.3-0.8,0-1.1s-0.8-0.3-1.1,0l-2.1,2.1
		V0.7c0-0.4-0.3-0.8-0.7-0.8s-0.8,0.3-0.8,0.8v6.5L9.7,5.2c-0.3-0.3-0.8-0.3-1.1,0S8.3,6,8.6,6.2L11.9,9.6z"/>
</g>
</svg>
