<?xml version="1.0" encoding="utf-8"?>
<!-- Generator: Adobe Illustrator 26.0.1, SVG Export Plug-In . SVG Version: 6.00 Build 0)  -->
<svg version="1.1" id="Layer_1" xmlns="http://www.w3.org/2000/svg" xmlns:xlink="http://www.w3.org/1999/xlink" x="0px" y="0px"
	 viewBox="0 0 20.6 21.3" style="enable-background:new 0 0 20.6 21.3;" xml:space="preserve">
<style type="text/css">
	.st0{fill:#FFFFFF;}
</style>
<g>
	<path class="st0" d="M15,9c-0.1,0-0.3,0-0.4,0c-0.4,0-0.6,0.4-0.6,0.8c0,0.4,0.5,0.7,0.8,0.7c0,0,0.1,0,0.1,0c2.3,0,4.2-2,4.2-4.3
		c0-1.1-0.5-2.2-1.3-3C17,2.4,15.9,2,14.8,2c-0.4,0-0.7,0.4-0.7,0.8c0,0.4,0.4,0.7,0.8,0.7c0.7,0,1.4,0.3,2,0.8
		c0.5,0.5,0.8,1.2,0.8,1.9C17.7,7.7,16.4,9,15,9z"/>
	<path class="st0" d="M7.3,10.4c0.1,0,0.1,0,0.2,0c0,0,0,0,0.1,0c0,0,0,0,0,0c2.7-0.1,4.9-2.3,5-5c0.1-2.9-2.1-5.3-5-5.4
		C4.7-0.1,2.3,2.1,2.2,5C2.1,7.8,4.3,10.3,7.3,10.4z M4.9,2.5c0.7-0.6,1.6-1,2.5-1c0,0,0.1,0,0.1,0c2,0.1,3.6,1.8,3.6,3.8
		C11,7.2,9.5,8.8,7.6,8.9c-0.1,0-0.3,0-0.3,0c-1,0-1.9-0.5-2.6-1.2C4,7,3.7,6,3.7,5S4.2,3.1,4.9,2.5z"/>
	<path class="st0" d="M13,12.7c-3.3-2-7.5-2-10.8,0c0,0,0,0,0,0C0.8,13.6,0,14.9,0,16.3c0,1.4,0.8,2.6,2.2,3.6
		c1.7,1,3.5,1.5,5.4,1.5c1.9,0,3.8-0.5,5.4-1.5c1.4-0.9,2.1-2.2,2.1-3.6C15.1,14.9,14.4,13.6,13,12.7z M12.2,18.5
		c-2.8,1.7-6.4,1.7-9.2,0c-1-0.6-1.5-1.5-1.5-2.3c0-0.8,0.5-1.7,1.5-2.3c2.8-1.7,6.4-1.7,9.2,0c1,0.6,1.5,1.5,1.5,2.3
		C13.6,17.1,13.1,17.9,12.2,18.5z"/>
	<path class="st0" d="M20.1,14c-0.3-0.4-0.6-0.7-1-1c-0.7-0.5-1.4-0.8-2.2-1c-0.4-0.1-0.8,0.2-0.9,0.6c-0.1,0.4,0.2,0.8,0.6,0.9
		c0.6,0.1,1.1,0.4,1.7,0.8c0.2,0.1,0.4,0.3,0.5,0.5c0.5,0.8,0.3,1.9-0.6,2.5c-0.5,0.4-1.1,0.6-1.7,0.7c-0.4,0.1-0.7,0.5-0.6,0.9
		c0.1,0.4,0.4,0.6,0.7,0.6c0,0,0.1,0,0.1,0c0.8-0.2,1.6-0.5,2.2-1C20.6,17.5,21.1,15.5,20.1,14z"/>
</g>
</svg>
