<?xml version="1.0" encoding="utf-8"?>
<!-- Generator: Adobe Illustrator 26.0.1, SVG Export Plug-In . SVG Version: 6.00 Build 0)  -->
<svg version="1.1" id="Layer_1" xmlns="http://www.w3.org/2000/svg" xmlns:xlink="http://www.w3.org/1999/xlink" x="0px" y="0px"
	 viewBox="0 0 21.5 21.5" style="enable-background:new 0 0 21.5 21.5;" xml:space="preserve">
<style type="text/css">
	.st0{fill:#FFFFFF;}
</style>
<g>
	<path class="st0" d="M18.5,0h-4c-2,0-3,0.9-3,2.9v6.8c0,1.9,1,2.9,3,2.9h4c2,0,3-0.9,3-2.9V2.9C21.5,0.9,20.5,0,18.5,0z M20,9.6
		c0,1-0.2,1.4-1.5,1.4h-4c-1.3,0-1.5-0.4-1.5-1.4V2.9c0-1,0.2-1.4,1.5-1.4h4c1.3,0,1.5,0.4,1.5,1.4V9.6z"/>
	<path class="st0" d="M18.5,14h-4c-2,0-3,0.9-3,2.8v1.8c0,1.9,1,2.8,3,2.8h4c2,0,3-0.9,3-2.8v-1.8C21.5,14.9,20.5,14,18.5,14z
		 M20,18.7c0,1-0.2,1.3-1.5,1.3h-4c-1.3,0-1.5-0.4-1.5-1.3v-1.8c0-1,0.2-1.3,1.5-1.3h4c1.3,0,1.5,0.4,1.5,1.3V18.7z"/>
	<path class="st0" d="M7,9H3c-2,0-3,0.9-3,2.9v6.8c0,1.9,1,2.8,3,2.8h4c2,0,3-0.9,3-2.8v-6.8C10,9.9,9,9,7,9z M8.5,18.7
		c0,1-0.2,1.3-1.5,1.3H3c-1.3,0-1.5-0.4-1.5-1.3v-6.8c0-1,0.2-1.4,1.5-1.4h4c1.3,0,1.5,0.4,1.5,1.4V18.7z"/>
	<path class="st0" d="M7,0H3C1,0,0,0.9,0,2.9v1.8c0,1.9,1,2.9,3,2.9h4c2,0,3-0.9,3-2.9V2.9C10,0.9,9,0,7,0z M8.5,4.6
		C8.5,5.6,8.3,6,7,6H3C1.7,6,1.5,5.6,1.5,4.6V2.9c0-1,0.2-1.4,1.5-1.4h4c1.3,0,1.5,0.4,1.5,1.4V4.6z"/>
</g>
</svg>
