<?xml version="1.0" encoding="utf-8"?>
<!-- Generator: Adobe Illustrator 26.0.1, SVG Export Plug-In . SVG Version: 6.00 Build 0)  -->
<svg version="1.1" id="Layer_1" xmlns="http://www.w3.org/2000/svg" xmlns:xlink="http://www.w3.org/1999/xlink" x="0px" y="0px"
	 viewBox="0 0 19.5 21.5" style="enable-background:new 0 0 19.5 21.5;" xml:space="preserve">
<style type="text/css">
	.st0{fill:#389583;}
</style>
<g>
	<path class="st0" d="M14.5,1.6V0.7c0-0.4-0.3-0.8-0.8-0.8S13,0.3,13,0.7v0.8l-6.5,0V0.7C6.5,0.3,6.2,0,5.8,0S5,0.3,5,0.7v0.8
		C1.4,2,0,4,0,8.4v6.2c0,4.3,1.1,6.9,6.8,6.9h6c5.6,0,6.8-2.7,6.8-6.9V8.4C19.5,4,18,2,14.5,1.6z M1.5,8.4c0-3.9,1.2-5,3.5-5.3v0.7
		c0,0.4,0.3,0.8,0.8,0.8s0.8-0.3,0.8-0.8V3H13v0.8c0,0.4,0.3,0.8,0.8,0.8s0.8-0.3,0.8-0.8V3.1C16.8,3.4,18,4.5,18,8.4v6.2
		c0,0.4,0,0.7,0,1H1.5c0-0.3,0-0.7,0-1V8.4z M12.8,20h-6c-3.4,0-4.6-0.9-5.1-2.9h16.1C17.4,19.1,16.1,20,12.8,20z"/>
	<path class="st0" d="M7.2,12c0,1.2,1,2,2.5,2s2.5-0.8,2.5-2c0-0.7-0.4-1.3-1-1.6C11.7,10.1,12,9.5,12,9c0-1.1-0.9-2-2-2
		C9.9,7,9.8,7,9.8,7C8.6,6.9,7.6,7.6,7.5,8.8c0,0.1,0,0.1,0,0.2c0,0.6,0.3,1.1,0.7,1.4C7.6,10.7,7.2,11.3,7.2,12z M9.7,8.2
		C9.7,8.2,9.7,8.2,9.7,8.2c0.5,0,0.9,0.3,1,0.7c0,0,0,0.1,0,0.1c0,0.4-0.4,0.8-0.8,0.8c0,0-0.1,0-0.1,0c-0.4,0-0.8-0.3-0.9-0.7
		c0,0,0-0.1,0-0.1C8.9,8.6,9.2,8.2,9.7,8.2z M9.8,10.9c0.7,0,1.1,0.3,1.1,0.9s-0.5,0.9-1.1,0.9s-1.1-0.3-1.1-0.9S9.1,10.9,9.8,10.9z
		"/>
</g>
</svg>
