<?xml version="1.0" encoding="utf-8"?>
<!-- Generator: Adobe Illustrator 26.0.1, SVG Export Plug-In . SVG Version: 6.00 Build 0)  -->
<svg version="1.1" id="Layer_1" xmlns="http://www.w3.org/2000/svg" xmlns:xlink="http://www.w3.org/1999/xlink" x="0px" y="0px"
	 viewBox="0 0 21.2 17" style="enable-background:new 0 0 21.2 17;" xml:space="preserve">
<style type="text/css">
	.st0{fill:#FFFFFF;}
</style>
<g>
	<path class="st0" d="M4.7,1.5h8c0.4,0,0.8-0.3,0.8-0.8S13.1,0,12.7,0L4.8,0C3.6-0.1,2.4,0.3,1.5,1.1C0.6,1.9,0.1,3,0,4.2
		c0,0.2,0,0.4,0,0.5v1.6c0,0.4,0.3,0.8,0.8,0.8s0.8-0.3,0.8-0.8l0-1.6c0-0.1,0-0.2,0-0.4C1.6,2.7,3,1.4,4.7,1.5z"/>
	<path class="st0" d="M18.2,10.7c0-0.4-0.3-0.8-0.8-0.8s-0.8,0.3-0.8,0.8l0,1.6c0,0.1,0,0.2,0,0.4c0,0.8-0.4,1.5-1,2.1
		c-0.6,0.5-1.4,0.8-2.2,0.8h-8c-0.4,0-0.8,0.3-0.8,0.8S5.1,17,5.5,17l7.9,0c0.1,0,0.2,0,0.3,0c1.1,0,2.2-0.4,3-1.1
		c0.9-0.8,1.4-1.9,1.5-3.1c0-0.2,0-0.4,0-0.5V10.7z"/>
	<path class="st0" d="M8.5,13.8c0.5,0,0.9-0.1,1.4-0.3l2.6-1.4c0.8-0.5,1.3-1.4,1.4-2.4l0-2.7c-0.1-1-0.6-1.9-1.4-2.4L9.8,3.1
		C9,2.7,8,2.7,7.2,3.1c0,0,0,0,0,0L4.6,4.5C3.7,5.1,3.2,6,3.2,7l0,2.7c0.1,1,0.6,1.9,1.4,2.4l2.6,1.4C7.6,13.7,8,13.8,8.5,13.8z
		 M11.7,10.8l-2.4,1.4V9l3.1-1.8l0,2.4C12.3,10.1,12,10.6,11.7,10.8z M7.9,4.4c0.4-0.2,0.9-0.2,1.3,0l2.5,1.4c0,0,0,0,0,0L8.5,7.7
		L5.3,5.9c0,0,0,0,0,0L7.9,4.4z M4.7,9.7l0-2.4L7.7,9v3.1l-2.4-1.3C5,10.6,4.7,10.1,4.7,9.7z"/>
	<path class="st0" d="M20.6,4.2c-0.3-0.3-0.8-0.3-1.1,0l-1.4,1.4V0.8c0-0.4-0.3-0.8-0.8-0.8s-0.8,0.3-0.8,0.8v4.8l-1.4-1.4
		c-0.3-0.3-0.8-0.3-1.1,0s-0.3,0.8,0,1.1l2.7,2.7c0.1,0.1,0.3,0.2,0.5,0.2S17.8,8,18,7.9l2.7-2.7C20.9,4.9,20.9,4.5,20.6,4.2z"/>
</g>
</svg>
