<?xml version="1.0" encoding="utf-8"?>
<!-- Generator: Adobe Illustrator 26.0.1, SVG Export Plug-In . SVG Version: 6.00 Build 0)  -->
<svg version="1.1" id="Layer_1" xmlns="http://www.w3.org/2000/svg" xmlns:xlink="http://www.w3.org/1999/xlink" x="0px" y="0px"
	 viewBox="0 0 20.2 17.5" style="enable-background:new 0 0 20.2 17.5;" xml:space="preserve">
<style type="text/css">
	.st0{fill:#FFFFFF;}
</style>
<g>
	<path class="st0" d="M20.2,12.7v-1.6c0-0.4-0.3-0.8-0.8-0.8s-0.8,0.3-0.8,0.8l0,1.7c0,0.1,0,0.3,0,0.4c-0.1,1.7-1.6,3-3.3,2.9H7.3
		c-0.4,0-0.8,0.3-0.8,0.8s0.3,0.8,0.8,0.8l8.1,0c0.1,0,0.2,0,0.3,0c2.4,0,4.4-1.9,4.6-4.3C20.2,13,20.2,12.8,20.2,12.7z"/>
	<path class="st0" d="M2.7,6.4c0,0.4,0.3,0.8,0.8,0.8s0.8-0.3,0.8-0.8l0-1.7c0-0.1,0-0.2,0-0.4c0.1-1.7,1.6-3,3.3-2.9h8.1
		c0.4,0,0.8-0.3,0.8-0.8S16.1,0,15.6,0L7.6,0C6.4-0.1,5.2,0.3,4.3,1.1C3.4,2,2.8,3.1,2.7,4.3c0,0.2,0,0.4,0,0.5V6.4z"/>
	<path class="st0" d="M15.3,4.8l-2.6-1.5c-0.8-0.4-1.8-0.4-2.7,0c0,0,0,0,0,0L7.4,4.8C6.5,5.4,6,6.2,6,7.3l0,2.8
		C6,11,6.5,12,7.4,12.5L10,14c0.4,0.2,0.9,0.3,1.3,0.3c0.5,0,0.9-0.1,1.4-0.3l2.6-1.5c0.8-0.5,1.4-1.4,1.4-2.4l0-2.8
		C16.7,6.2,16.2,5.3,15.3,4.8z M10.7,4.7c0.4-0.2,0.9-0.2,1.3,0l2.6,1.4c0,0,0,0,0.1,0.1L11.4,8L8.1,6.1c0,0,0,0,0,0L10.7,4.7z
		 M8.2,11.2c-0.4-0.3-0.7-0.7-0.7-1.2l0-2.5l3.2,1.8v3.2L8.2,11.2z M14.6,11.2l-2.5,1.4V9.3l3.2-1.8l0,2.5
		C15.3,10.5,15,10.9,14.6,11.2z"/>
	<path class="st0" d="M5.6,12.4H0.8c-0.4,0-0.8,0.3-0.8,0.8s0.3,0.8,0.8,0.8h4.9c0.4,0,0.8-0.3,0.8-0.8S6,12.4,5.6,12.4z"/>
	<path class="st0" d="M0.8,10.7h2.4c0.4,0,0.8-0.3,0.8-0.8S3.6,9.2,3.2,9.2H0.8C0.3,9.2,0,9.5,0,9.9S0.3,10.7,0.8,10.7z"/>
</g>
</svg>
