<?xml version="1.0" encoding="utf-8"?>
<!-- Generator: Adobe Illustrator 26.0.1, SVG Export Plug-In . SVG Version: 6.00 Build 0)  -->
<svg version="1.1" id="Layer_1" xmlns="http://www.w3.org/2000/svg" xmlns:xlink="http://www.w3.org/1999/xlink" x="0px" y="0px"
	 viewBox="0 0 21.5 21.5" style="enable-background:new 0 0 21.5 21.5;" xml:space="preserve">
<style type="text/css">
	.st0{fill:#FFFFFF;}
</style>
<g>
	<path class="st0" d="M0,7.8c0,0.4,0.3,0.8,0.8,0.8s0.8-0.3,0.8-0.8l0-2C1.4,3.5,3,1.6,5.2,1.5c0.2,0,0.3,0,0.5,0l10,0
		C18,1.4,19.9,3,20,5.2c0,0.2,0,0.3,0,0.5v2c0,0.4,0.3,0.8,0.8,0.8s0.8-0.3,0.8-0.8l0-2c0-0.2,0-0.4,0-0.7c-0.2-3-2.8-5.3-5.7-5.1
		l-10,0C5.6,0,5.4,0,5.1,0C2.1,0.2-0.2,2.8,0,5.8V7.8z"/>
	<path class="st0" d="M21.5,15.8v-2c0-0.4-0.3-0.8-0.8-0.8S20,13.3,20,13.8l0,2c0,0.2,0,0.3,0,0.5c-0.1,1.1-0.5,2-1.3,2.7
		c-0.8,0.7-1.8,1.1-2.9,1l-10,0c-0.2,0-0.3,0-0.5,0c-2.2-0.1-3.9-2-3.7-4.3v-2c0-0.4-0.3-0.8-0.8-0.8S0,13.3,0,13.8l0,2
		c-0.2,3,2.1,5.6,5.1,5.8c0.1,0,0.2,0,0.3,0c0.1,0,0.2,0,0.3,0l10,0c1.4,0.1,2.9-0.4,4-1.4s1.7-2.3,1.8-3.8
		C21.5,16.1,21.5,15.9,21.5,15.8z"/>
	<path class="st0" d="M15.6,6.2l-3.2-1.8c-1-0.5-2.2-0.5-3.2,0c0,0,0,0,0,0L5.9,6.2c-1,0.6-1.6,1.7-1.7,2.9l0,3.4
		c0.1,1.2,0.7,2.2,1.7,2.9l3.2,1.8c0.5,0.2,1,0.4,1.6,0.4c0.5,0,1.1-0.1,1.6-0.4l3.2-1.8c1-0.6,1.6-1.7,1.7-2.9l0-3.4
		C17.2,7.9,16.6,6.8,15.6,6.2z M9.9,5.7c0.6-0.3,1.2-0.3,1.8,0l3.2,1.8c0.1,0.1,0.2,0.2,0.3,0.2l-4.3,2.5L6.4,7.7
		c0.1-0.1,0.2-0.2,0.3-0.2L9.9,5.7z M6.7,14.1c-0.6-0.4-0.9-1-1-1.6l0-3.3c0,0,0,0,0-0.1l4.3,2.5v4.3c0,0-0.1,0-0.1,0L6.7,14.1z
		 M14.8,14l-3.2,1.8c-0.1,0-0.1,0-0.2,0.1v-4.3L15.8,9c0,0,0,0,0,0l0,3.3C15.7,13.1,15.4,13.7,14.8,14z"/>
</g>
</svg>
