<?xml version="1.0" encoding="utf-8"?>
<!-- Generator: Adobe Illustrator 26.0.1, SVG Export Plug-In . SVG Version: 6.00 Build 0)  -->
<svg version="1.1" id="Layer_1" xmlns="http://www.w3.org/2000/svg" xmlns:xlink="http://www.w3.org/1999/xlink" x="0px" y="0px"
	 viewBox="0 0 21.5 21.5" style="enable-background:new 0 0 21.5 21.5;" xml:space="preserve">
<style type="text/css">
	.st0{fill:#FFFFFF;}
</style>
<g>
	<path class="st0" d="M16.5,11.9C16.4,11.9,16.4,11.9,16.5,11.9c-0.1-0.1-0.1-0.2-0.2-0.3L9.9,5.2C9.8,5.2,9.7,5.1,9.7,5.1
		c0,0,0,0-0.1,0C9.5,5,9.5,5,9.4,5c0,0,0,0,0,0h-3C2,5,0,7,0,11.4v3.8c0,4.4,2,6.3,6.4,6.3h3.8c4.4,0,6.4-2,6.4-6.3v-3c0,0,0,0,0,0
		C16.5,12,16.5,12,16.5,11.9z M10.1,7.6l3.8,3.8h-1.4c-2,0-2.4-0.5-2.4-2.5V7.6z M10.1,20H6.4c-3.6,0-4.9-1.3-4.9-4.8v-3.8
		c0-3.6,1.3-4.9,4.9-4.9h2.2V9c0,2.8,1.1,4,3.9,4H15v2.2C15,18.7,13.7,20,10.1,20z"/>
	<path class="st0" d="M21.5,6.7c0-0.1,0-0.1,0-0.2c0,0,0,0,0-0.1c0-0.1-0.1-0.2-0.1-0.2l-6-6C15.1,0,14.8,0,14.5,0
		c-0.1,0-0.1,0-0.2,0h-3h-1H8.8C6.7,0,5,1.7,5,3.8c0,0.4,0.3,0.8,0.8,0.8s0.8-0.3,0.8-0.8c0-1.2,1-2.2,2.2-2.2h1.6h1H14v2.2
		c0,2.7,1.1,3.8,3.8,3.8H20v5.4c0,1.1-0.9,2.1-2.1,2.1c-0.4,0-0.8,0.3-0.8,0.8s0.3,0.8,0.8,0.8c2,0,3.6-1.6,3.6-3.6L21.5,6.7
		C21.5,6.7,21.5,6.7,21.5,6.7z M17.8,6c-1.8,0-2.2-0.4-2.2-2.2V2.6L18.9,6H17.8z"/>
</g>
</svg>
