<?xml version="1.0" encoding="utf-8"?>
<!-- Generator: Adobe Illustrator 26.0.1, SVG Export Plug-In . SVG Version: 6.00 Build 0)  -->
<svg version="1.1" id="Layer_1" xmlns="http://www.w3.org/2000/svg" xmlns:xlink="http://www.w3.org/1999/xlink" x="0px" y="0px"
	 viewBox="0 0 16.7 16.7" style="enable-background:new 0 0 16.7 16.7;" xml:space="preserve">
<style type="text/css">
	.st0{fill:#05396B;}
</style>
<path class="st0" d="M15.2,1.5c-2-2-4-2-6,0L1.3,9.4c-0.4,0.5-0.7,1.1-0.8,1.7l-0.4,3c-0.1,0.6,0,1.1,0.3,1.6s0.8,0.8,1.4,1
	c0.2,0,0.3,0.1,0.5,0.1c0.1,0,0.3,0,0.4,0l3-0.4c0.6-0.1,1.2-0.4,1.7-0.9l7.9-7.9c0.9-0.9,1.4-1.8,1.5-2.7
	C16.8,3.7,16.3,2.6,15.2,1.5z M6.3,14.3c-0.3,0.2-0.6,0.4-0.9,0.5l-3.1,0.4c-0.1,0-0.2,0-0.3,0c-0.2,0-0.3-0.1-0.4-0.3
	c-0.1-0.2-0.1-0.3-0.1-0.6l0.4-3C2,11,2.2,10.7,2.4,10.4l5.7-5.7c0.8,1.7,2.2,3.1,3.9,3.9L6.3,14.3z M14.2,6.4l-1.1,1.1
	c-1.8-0.6-3.2-2.1-3.9-3.9l1.1-1.1c1.2-1.2,2.3-1.6,3.9,0c0.8,0.8,1.1,1.5,1,2.1C15.1,5.2,14.8,5.8,14.2,6.4z"/>
</svg>
