<?xml version="1.0" encoding="utf-8"?>
<!-- Generator: Adobe Illustrator 26.0.1, SVG Export Plug-In . SVG Version: 6.00 Build 0)  -->
<svg version="1.1" id="Layer_1" xmlns="http://www.w3.org/2000/svg" xmlns:xlink="http://www.w3.org/1999/xlink" x="0px" y="0px"
	 viewBox="0 0 21.8 21.8" style="enable-background:new 0 0 21.8 21.8;" xml:space="preserve">
<style type="text/css">
	.st0{fill:#05396B;}
</style>
<g>
	<path class="st0" d="M5,7.1c0,1.5,1.2,2.8,2.8,2.8s2.8-1.2,2.8-2.8S9.3,4.3,7.8,4.3S5,5.5,5,7.1z M9,7.1c0,0.7-0.6,1.2-1.2,1.2
		S6.5,7.8,6.5,7.1s0.6-1.2,1.2-1.2S9,6.4,9,7.1z"/>
	<path class="st0" d="M20.8,8.3c-0.4,0-0.8,0.3-0.8,0.8v2.3L19.6,11c-1.1-0.9-2.7-0.9-3.8,0l-4.1,3.6c-0.5,0.4-1.3,0.4-1.8,0
		l-0.4-0.3c-1-0.8-2.4-0.9-3.5-0.2l-4.1,2.8c-0.2-0.8-0.3-1.7-0.3-2.8v-6c0-4.6,1.6-6.2,6.2-6.2h4c0.4,0,0.8-0.3,0.8-0.8
		s-0.3-0.8-0.8-0.8h-4C2.3,0.3,0,2.6,0,8.1v6c0,5.4,2.3,7.8,7.8,7.8h6c5.4,0,7.8-2.3,7.8-7.8v-5C21.5,8.6,21.2,8.3,20.8,8.3z
		 M13.8,20.3h-6c-2.8,0-4.4-0.6-5.4-2l4.4-2.9C7.3,15,8,15,8.5,15.4l0.4,0.3c1.1,0.9,2.7,0.9,3.8,0l4.1-3.6c0.5-0.4,1.3-0.4,1.9,0
		l1.4,1.2v0.8C20,18.7,18.4,20.3,13.8,20.3z"/>
	<path class="st0" d="M14.8,3.8c0.2,0,0.4-0.1,0.5-0.2L16,2.9v4.2c0,0.4,0.3,0.8,0.8,0.8s0.8-0.3,0.8-0.8V2.9l0.7,0.7
		c0.3,0.3,0.8,0.3,1.1,0s0.3-0.8,0-1.1l-2-2c-0.1-0.1-0.1-0.1-0.2-0.1c0,0,0,0-0.1,0c-0.1,0-0.1,0-0.2,0c0,0,0,0-0.1,0
		c-0.1,0-0.2,0-0.2,0c0,0,0,0,0,0c0,0,0,0,0,0c-0.1,0-0.2,0.1-0.2,0.1c0,0,0,0,0,0l-2,2c-0.3,0.3-0.3,0.8,0,1.1
		C14.4,3.7,14.6,3.8,14.8,3.8z"/>
</g>
</svg>
