<?xml version="1.0" encoding="utf-8"?>
<!-- Generator: Adobe Illustrator 26.0.1, SVG Export Plug-In . SVG Version: 6.00 Build 0)  -->
<svg version="1.1" id="Layer_1" xmlns="http://www.w3.org/2000/svg" xmlns:xlink="http://www.w3.org/1999/xlink" x="0px" y="0px"
	 viewBox="0 0 20.5 20.5" style="enable-background:new 0 0 20.5 20.5;" xml:space="preserve">
<style type="text/css">
	.st0{fill:#05396B;}
</style>
<g>
	<path class="st0" d="M14.8,6.4c-0.4,0-0.8,0.3-0.8,0.7c0,0.4,0.3,0.8,0.7,0.8c3.2,0.3,4.4,1.8,4.4,5.5v0.1c0,4.1-1.4,5.5-5.5,5.5H7
		c-4.1,0-5.5-1.4-5.5-5.5v-0.1c0-3.7,1.2-5.2,4.3-5.5c0.4,0,0.7-0.4,0.7-0.8S6.1,6.4,5.7,6.4C1.7,6.8,0,8.9,0,13.4v0.1
		c0,4.9,2.1,7,7,7h6.5c4.9,0,7-2.1,7-7v-0.1C20.5,8.9,18.8,6.7,14.8,6.4z"/>
	<path class="st0" d="M7.5,4.6l2.1-2.1v10.7c0,0.4,0.3,0.8,0.8,0.8s0.7-0.3,0.7-0.8V2.6l2.1,2.1c0.1,0.1,0.3,0.2,0.5,0.2
		s0.4-0.1,0.5-0.2c0.3-0.3,0.3-0.8,0-1.1l-3.4-3.4c-0.3-0.3-0.8-0.3-1.1,0L6.4,3.6c-0.3,0.3-0.3,0.8,0,1.1S7.2,4.9,7.5,4.6z"/>
</g>
</svg>
