<?xml version="1.0" encoding="utf-8"?>
<!-- Generator: Adobe Illustrator 26.0.1, SVG Export Plug-In . SVG Version: 6.00 Build 0)  -->
<svg version="1.1" id="Layer_1" xmlns="http://www.w3.org/2000/svg" xmlns:xlink="http://www.w3.org/1999/xlink" x="0px" y="0px"
	 viewBox="0 0 13.2 14.9" style="enable-background:new 0 0 13.2 14.9;" xml:space="preserve">
<style type="text/css">
	.st0{fill:#5CDB94;}
</style>
<g>
	<path class="st0" d="M11.1,0l-9,0C1.5,0,1,0.3,0.6,0.7C0.2,1.1,0,1.6,0,2.2l0,1.6c0.1,0.7,0.3,1.3,0.8,1.8l2.5,2.7
		c0.2,0.3,0.4,0.6,0.4,1v3.6c0,0.4,0.1,0.7,0.3,1.1c0.4,0.7,1.1,1,1.8,1c0.4,0,0.8-0.1,1.1-0.3L7.9,14c0.3-0.2,0.4-0.7,0.2-1
		c-0.2-0.3-0.7-0.4-1-0.2l-0.9,0.6c-0.3,0.2-0.7,0.1-0.9-0.2c-0.1-0.1-0.1-0.2-0.1-0.3l0-3.6c0-0.7-0.3-1.3-0.7-1.9L1.9,4.6
		C1.7,4.3,1.5,4,1.5,3.7l0-1.6c0-0.2,0.1-0.3,0.2-0.4c0.1-0.1,0.3-0.2,0.4-0.2h9c0.3,0,0.6,0.3,0.6,0.6l0,1.4c0,0.4-0.2,0.8-0.5,1.1
		c-0.3,0.3-0.3,0.8,0,1.1C11.5,6,12,6,12.3,5.7c0.5-0.5,0.8-1.3,0.9-2.1V2.1C13.2,0.9,12.2,0,11.1,0z"/>
	<path class="st0" d="M12,6.8C11.5,6.2,10.5,6,9.8,6.6C9.6,6.7,9.5,6.8,9.4,6.9L7.1,9.3c-0.2,0.2-0.3,0.5-0.4,0.8l-0.1,0.8
		c-0.1,0.6,0.3,1.3,0.9,1.4c0.1,0,0.2,0,0.3,0c0.1,0,0.1,0,0.2,0l0.9-0.1c0.3-0.1,0.6-0.2,0.8-0.4L12,9.4c0.7-0.5,0.8-1.6,0.3-2.3
		C12.2,7,12.1,6.9,12,6.8z M10.7,7.7c0.1,0,0.1,0,0.1,0.1C10.9,7.9,11,8,11.1,8c0.1,0.1,0,0.2,0,0.2c0,0,0,0-0.1,0.1
		c-0.2-0.1-0.3-0.3-0.4-0.4C10.6,7.9,10.6,7.8,10.7,7.7C10.7,7.8,10.7,7.7,10.7,7.7z M8.6,10.7l-0.5,0.1l0.1-0.5l1.3-1.3
		c0.1,0.2,0.3,0.3,0.4,0.4L8.6,10.7z"/>
</g>
</svg>
