<?xml version="1.0" encoding="utf-8"?>
<!-- Generator: Adobe Illustrator 26.0.1, SVG Export Plug-In . SVG Version: 6.00 Build 0)  -->
<svg version="1.1" id="Layer_1" xmlns="http://www.w3.org/2000/svg" xmlns:xlink="http://www.w3.org/1999/xlink" x="0px" y="0px"
	 viewBox="0 0 19.5 21.5" style="enable-background:new 0 0 19.5 21.5;" xml:space="preserve">
<style type="text/css">
	.st0{fill:#FFFFFF;}
</style>
<g>
	<path class="st0" d="M12.8,10.2h-7C5.3,10.2,5,10.5,5,11s0.3,0.8,0.8,0.8h7c0.4,0,0.8-0.3,0.8-0.8S13.2,10.2,12.8,10.2z"/>
	<path class="st0" d="M10.1,14.2H5.8C5.3,14.2,5,14.5,5,15s0.3,0.8,0.8,0.8h4.4c0.4,0,0.8-0.3,0.8-0.8S10.5,14.2,10.1,14.2z"/>
	<path class="st0" d="M14.5,2.1C14.2,0,12.6,0,11.8,0h-4C6.9,0,5.3,0,5,2.1C1.5,2.5,0,4.4,0,8.8v6c0,4.2,1.1,6.8,6.8,6.8h6
		c5.6,0,6.8-2.6,6.8-6.8v-6C19.5,4.4,18,2.5,14.5,2.1z M7.8,1.5h4c1,0,1.2,0,1.2,1.2c0,1,0,1.2-1.2,1.2h-4c-1,0-1.2,0-1.2-1.2
		S6.8,1.5,7.8,1.5z M18,14.8c0,3.7-0.7,5.2-5.2,5.2h-6c-4.5,0-5.2-1.5-5.2-5.2v-6c0-3.8,1.2-4.9,3.6-5.2c0.3,1.9,1.8,1.9,2.7,1.9h4
		c2.1,0,2.6-1,2.7-1.9C16.8,3.9,18,4.9,18,8.8V14.8z"/>
</g>
</svg>
