<?xml version="1.0" encoding="utf-8"?>
<!-- Generator: Adobe Illustrator 26.0.1, SVG Export Plug-In . SVG Version: 6.00 Build 0)  -->
<svg version="1.1" id="Layer_1" xmlns="http://www.w3.org/2000/svg" xmlns:xlink="http://www.w3.org/1999/xlink" x="0px" y="0px"
	 viewBox="0 0 22.5 22.3" style="enable-background:new 0 0 22.5 22.3;" xml:space="preserve">
<style type="text/css">
	.st0{fill:#FFFFFF;}
</style>
<g>
	<path class="st0" d="M15.5,6.7l-8.6,8.6c-0.3,0.3-0.3,0.8,0,1.1c0.1,0.1,0.3,0.2,0.5,0.2s0.4-0.1,0.5-0.2l8.6-8.6
		c0.3-0.3,0.3-0.8,0-1.1S15.8,6.4,15.5,6.7z"/>
	<path class="st0" d="M13.9,15.8c0,0.4,0.3,0.8,0.8,0.8h2.7c0.4,0,0.8-0.3,0.8-0.8S17.8,15,17.4,15h-2.7
		C14.3,15,13.9,15.4,13.9,15.8z"/>
	<path class="st0" d="M12.3,15.8c0,2.1,1.7,3.8,3.8,3.8s3.8-1.7,3.8-3.8S18.1,12,16,12S12.3,13.7,12.3,15.8z M18.3,15.8
		c0,1.2-1,2.2-2.2,2.2s-2.2-1-2.2-2.2s1-2.2,2.2-2.2S18.3,14.6,18.3,15.8z"/>
	<path class="st0" d="M5.8,11.5c3.2,0,5.8-2.6,5.8-5.8S8.9,0,5.8,0S0,2.6,0,5.7S2.6,11.5,5.8,11.5z M5.8,1.5c2.3,0,4.2,1.9,4.2,4.2
		S8.1,10,5.8,10S1.5,8.1,1.5,5.7S3.4,1.5,5.8,1.5z"/>
	<path class="st0" d="M14.8,0.8h-2.2c-0.4,0-0.8,0.3-0.8,0.8s0.3,0.8,0.8,0.8h2.2c4.6,0,6.2,1.6,6.2,6.2v6c0,4.6-1.6,6.2-6.2,6.2h-6
		c-4.6,0-6.2-1.6-6.2-6.2v-2.1c0-0.4-0.3-0.8-0.8-0.8S1,12,1,12.4v2.1c0,5.4,2.3,7.8,7.8,7.8h6c5.4,0,7.8-2.3,7.8-7.8v-6
		C22.5,3.1,20.2,0.8,14.8,0.8z"/>
	<path class="st0" d="M4.4,7.9C4.6,8,4.8,8.1,5,8.1c0.2,0,0.4-0.1,0.5-0.2l3.2-3.2C9,4.4,9,3.9,8.7,3.6S8,3.3,7.7,3.6L5,6.3L3.8,5.2
		c-0.3-0.3-0.8-0.3-1.1,0s-0.3,0.8,0,1.1L4.4,7.9z"/>
</g>
</svg>
