<?xml version="1.0" encoding="utf-8"?>
<!-- Generator: Adobe Illustrator 26.0.1, SVG Export Plug-In . SVG Version: 6.00 Build 0)  -->
<svg version="1.1" id="Layer_1" xmlns="http://www.w3.org/2000/svg" xmlns:xlink="http://www.w3.org/1999/xlink" x="0px" y="0px"
	 viewBox="0 0 19.5 20.2" style="enable-background:new 0 0 19.5 20.2;" xml:space="preserve">
<style type="text/css">
	.st0{fill:#292D32;}
</style>
<g>
	<path class="st0" d="M2.1,7.1l5.9,2.6C8.5,9.9,9,10,9.5,10c0.5,0,1-0.1,1.5-0.3L17,7.1c1.5-0.7,1.7-1.6,1.7-2.1S18.5,3.6,17,3
		l-5.9-2.6c0,0,0,0,0,0c-1-0.4-2-0.4-3,0L2.1,3C0.6,3.6,0.4,4.5,0.4,5S0.6,6.4,2.1,7.1z M2.7,4.3l5.9-2.6c0.3-0.1,0.6-0.2,1-0.2
		c0.3,0,0.6,0.1,0.9,0.2l5.9,2.6C17,4.6,17.2,4.9,17.2,5S17,5.4,16.4,5.7l-5.9,2.6c-0.6,0.2-1.3,0.2-1.9,0L2.7,5.7
		C2.1,5.4,1.9,5.1,1.9,5S2.1,4.6,2.7,4.3z"/>
	<path class="st0" d="M1.8,11.9l6.8,3c0.4,0.2,0.7,0.2,1.1,0.2s0.8-0.1,1.1-0.2l6.8-3c1.1-0.5,1.7-1.6,1.8-2.8
		c0-0.4-0.3-0.8-0.7-0.8c-0.4,0-0.8,0.3-0.8,0.7c0,0.6-0.4,1.2-1,1.5l-6.8,3c-0.3,0.1-0.7,0.1-1,0l-6.8-3c-0.6-0.3-1-0.9-1-1.5
		c0-0.4-0.4-0.7-0.8-0.7C0.3,8.4,0,8.7,0,9.1C0.1,10.3,0.8,11.4,1.8,11.9z"/>
	<path class="st0" d="M18.8,13.4c-0.4,0-0.8,0.3-0.8,0.7c0,0.6-0.4,1.2-1,1.5l-6.8,3c-0.3,0.1-0.7,0.1-1,0l-6.8-3
		c-0.6-0.3-1-0.8-1-1.5c0-0.4-0.3-0.7-0.8-0.7c0,0,0,0,0,0c-0.4,0-0.7,0.3-0.7,0.8c0,1.2,0.7,2.3,1.8,2.8l6.8,3
		c0.4,0.2,0.7,0.2,1.1,0.2s0.8-0.1,1.1-0.2l6.8-3c1.1-0.5,1.8-1.6,1.8-2.8C19.5,13.7,19.2,13.4,18.8,13.4z"/>
</g>
</svg>
