<?xml version="1.0" encoding="utf-8"?>
<!-- Generator: Adobe Illustrator 26.0.1, SVG Export Plug-In . SVG Version: 6.00 Build 0)  -->
<svg version="1.1" id="Layer_1" xmlns="http://www.w3.org/2000/svg" xmlns:xlink="http://www.w3.org/1999/xlink" x="0px" y="0px"
	 viewBox="0 0 19.8 20.3" style="enable-background:new 0 0 19.8 20.3;" xml:space="preserve">
<style type="text/css">
	.st0{fill:#05396B;}
</style>
<g>
	<path class="st0" d="M19.3,16.5l-4.4-4.4l3-3c1.1-1.1,1.1-2.8,0-3.9L13.6,1c-1.1-1.1-2.8-1.1-3.9,0L2.7,8c-1.1,1.1-1.1,2.8,0,3.9
		l4.2,4.2c0,0,0,0,0,0v0C7.4,16.7,8.2,17,8.9,17c0.7,0,1.4-0.3,1.9-0.8l2.1-2.1c0,0,0,0,0,0s0,0,0,0l0.9-0.9l4.4,4.4
		c0.1,0.1,0.3,0.2,0.5,0.2s0.4-0.1,0.5-0.2C19.6,17.3,19.6,16.8,19.3,16.5z M10.8,2c0.5-0.5,1.3-0.5,1.8,0l4.2,4.2
		c0.2,0.2,0.4,0.5,0.4,0.9c0,0.3-0.1,0.6-0.4,0.9l-3.5,3.5l-0.9,0.9l-6-6L10.8,2z M9.7,15.1c-0.5,0.5-1.3,0.5-1.8,0c0,0,0,0,0,0
		l-4.2-4.2c-0.5-0.5-0.5-1.3,0-1.8l1.6-1.6l6,6L9.7,15.1z"/>
	<path class="st0" d="M6.8,18.8h-6c-0.4,0-0.8,0.3-0.8,0.8s0.3,0.8,0.8,0.8h6c0.4,0,0.8-0.3,0.8-0.8S7.2,18.8,6.8,18.8z"/>
</g>
</svg>
