<?xml version="1.0" encoding="utf-8"?>
<!-- Generator: Adobe Illustrator 26.0.1, SVG Export Plug-In . SVG Version: 6.00 Build 0)  -->
<svg version="1.1" id="Layer_1" xmlns="http://www.w3.org/2000/svg" xmlns:xlink="http://www.w3.org/1999/xlink" x="0px" y="0px"
	 viewBox="0 0 22.1 22.1" style="enable-background:new 0 0 22.1 22.1;" xml:space="preserve">
<style type="text/css">
	.st0{fill:#05396B;}
</style>
<g>
	<path class="st0" d="M14.1,9.1l7.5-7.5c0.3-0.3,0.3-0.8,0-1.1s-0.8-0.3-1.1,0L17,4c-1.7-1.3-3.8-2-6-2C7.3,2,3.8,4.2,1.3,8.1
		c-1,1.9-1,4.1,0,6c0.7,1.1,1.6,2.2,2.6,3.1l-3.4,3.4c-0.3,0.3-0.3,0.8,0,1.1c0.1,0.1,0.3,0.2,0.5,0.2s0.4-0.1,0.5-0.2l7.5-7.5
		L14.1,9.1z M7.5,13.5L5,16.1c-0.9-0.8-1.7-1.8-2.4-2.8c-0.8-1.4-0.8-3.1,0-4.4c2.2-3.4,5.2-5.3,8.5-5.3c1.7,0,3.5,0.6,4.9,1.6
		l-2.4,2.4C11.8,6.3,9.5,6.5,8,8C6.5,9.5,6.3,11.9,7.5,13.5z M9,9.1c0.6-0.6,1.3-0.8,2-0.8c0.5,0,1,0.1,1.4,0.4l-3.9,3.9
		C8,11.4,8.1,10,9,9.1z"/>
	<path class="st0" d="M19.7,6.5c-0.3-0.3-0.7-0.4-1.1-0.1c-0.3,0.3-0.4,0.7-0.1,1.1c0.4,0.5,0.7,0.9,1,1.4c0.8,1.4,0.8,3.1,0,4.4
		c-2.2,3.4-5.2,5.3-8.5,5.3c-1.1,0-2.2-0.2-3.3-0.7c-0.4-0.2-0.8,0-1,0.4c-0.2,0.4,0,0.8,0.4,1c1.2,0.5,2.5,0.8,3.9,0.8
		c3.8,0,7.3-2.2,9.8-6.1c1-1.9,1-4.1,0-6C20.5,7.5,20.1,7,19.7,6.5z"/>
	<path class="st0" d="M13.8,11.6c-0.2,1.1-1.1,2-2.2,2.2c-0.4,0.1-0.7,0.5-0.6,0.9c0.1,0.4,0.4,0.6,0.7,0.6c0,0,0.1,0,0.1,0
		c1.7-0.3,3.1-1.7,3.4-3.4c0.1-0.4-0.2-0.8-0.6-0.9C14.3,11,13.9,11.2,13.8,11.6z"/>
</g>
</svg>
