<?xml version="1.0" encoding="utf-8"?>
<!-- Generator: Adobe Illustrator 26.0.1, SVG Export Plug-In . SVG Version: 6.00 Build 0)  -->
<svg version="1.1" id="Layer_1" xmlns="http://www.w3.org/2000/svg" xmlns:xlink="http://www.w3.org/1999/xlink" x="0px" y="0px"
	 viewBox="0 0 20.5 21" style="enable-background:new 0 0 20.5 21;" xml:space="preserve">
<style type="text/css">
	.st0{fill:#05396B;}
</style>
<g>
	<path class="st0" d="M14.8,6.9c-0.4,0-0.8,0.3-0.8,0.7c0,0.4,0.3,0.8,0.7,0.8c3.2,0.3,4.4,1.8,4.4,5.5V14c0,4.1-1.4,5.5-5.5,5.5H7
		c-4.1,0-5.5-1.4-5.5-5.5v-0.1c0-3.7,1.2-5.2,4.3-5.5c0.4,0,0.7-0.4,0.7-0.8S6.1,6.9,5.7,6.9C1.7,7.3,0,9.4,0,13.9V14
		c0,4.9,2.1,7,7,7h6.5c4.9,0,7-2.1,7-7v-0.1C20.5,9.4,18.8,7.2,14.8,6.9z"/>
	<path class="st0" d="M6.4,11.9l3.4,3.3c0.1,0.1,0.3,0.2,0.5,0.2s0.4-0.1,0.5-0.2l3.4-3.3c0.3-0.3,0.3-0.8,0-1.1s-0.8-0.3-1.1,0
		L11,12.9V0.8C11,0.3,10.7,0,10.3,0S9.5,0.3,9.5,0.8v12.2l-2.1-2.1c-0.3-0.3-0.8-0.3-1.1,0S6.1,11.6,6.4,11.9z"/>
</g>
</svg>
