<?xml version="1.0" encoding="utf-8"?>
<!-- Generator: Adobe Illustrator 26.0.1, SVG Export Plug-In . SVG Version: 6.00 Build 0)  -->
<svg version="1.1" id="Layer_1" xmlns="http://www.w3.org/2000/svg" xmlns:xlink="http://www.w3.org/1999/xlink" x="0px" y="0px"
	 viewBox="0 0 21.5 21.5" style="enable-background:new 0 0 21.5 21.5;" xml:space="preserve">
<style type="text/css">
	.st0{fill:#05396B;}
</style>
<g>
	<path class="st0" d="M13.8,0h-6C2.3,0,0,2.3,0,7.8v6c0,5.4,2.3,7.8,7.8,7.8h1c0.4,0,0.8-0.3,0.8-0.8S9.2,20,8.8,20h-1
		c-4.6,0-6.2-1.6-6.2-6.2v-6c0-4.6,1.6-6.2,6.2-6.2h6c4.6,0,6.2,1.6,6.2,6.2v1c0,0.4,0.3,0.8,0.8,0.8s0.8-0.3,0.8-0.8v-1
		C21.5,2.3,19.2,0,13.8,0z"/>
	<path class="st0" d="M9.8,5C9.3,5,9,5.3,9,5.7v2.2L5.3,4.2C5,3.9,4.5,3.9,4.2,4.2C3.9,4.5,3.9,5,4.2,5.3L7.9,9H5.7
		C5.3,9,5,9.3,5,9.8s0.3,0.8,0.8,0.8h4c0.1,0,0.2,0,0.3-0.1c0,0,0,0,0.1,0c0.1,0,0.1-0.1,0.2-0.1c0,0,0,0,0.1-0.1
		c0.1-0.1,0.1-0.1,0.1-0.2c0,0,0,0,0,0c0,0,0,0,0,0c0-0.1,0-0.2,0.1-0.3c0,0,0,0,0,0v-4C10.5,5.3,10.2,5,9.8,5z"/>
	<path class="st0" d="M17.6,11h-2.7c-2.7,0-3.9,1.2-3.9,3.9v2.7c0,2.7,1.2,3.9,3.9,3.9h2.7c2.7,0,3.9-1.2,3.9-3.9v-2.7
		C21.5,12.2,20.3,11,17.6,11z M20,17.6c0,1.8-0.6,2.4-2.4,2.4h-2.7c-1.8,0-2.4-0.6-2.4-2.4v-2.7c0-1.8,0.6-2.4,2.4-2.4h2.7
		c1.8,0,2.4,0.6,2.4,2.4V17.6z"/>
</g>
</svg>
