<?xml version="1.0" encoding="utf-8"?>
<!-- Generator: Adobe Illustrator 26.0.1, SVG Export Plug-In . SVG Version: 6.00 Build 0)  -->
<svg version="1.1" id="Layer_1" xmlns="http://www.w3.org/2000/svg" xmlns:xlink="http://www.w3.org/1999/xlink" x="0px" y="0px"
	 viewBox="0 0 19.7 21.6" style="enable-background:new 0 0 19.7 21.6;" xml:space="preserve">
<style type="text/css">
	.st0{fill:#05396B;}
</style>
<g>
	<path class="st0" d="M17.7,4l-5.9-3.4c-1.2-0.7-2.7-0.7-3.9,0L1.9,4C0.7,4.7,0,6,0,7.4v6.8c0,1.4,0.7,2.7,1.9,3.4L7.9,21
		c0.6,0.3,1.3,0.5,1.9,0.5c0.7,0,1.3-0.2,2-0.5l5.9-3.4c1.2-0.7,1.9-2,1.9-3.4V7.4v0C19.7,6,18.9,4.7,17.7,4z M18.2,14.2
		c0,0.9-0.5,1.7-1.2,2.1L11,19.7c-0.7,0.4-1.7,0.4-2.4,0l-5.9-3.4c-0.7-0.4-1.2-1.2-1.2-2.1V7.4c0-0.9,0.5-1.7,1.2-2.1l5.9-3.4
		C9,1.6,9.4,1.5,9.8,1.5c0.4,0,0.8,0.1,1.2,0.3L17,5.3c0.7,0.4,1.2,1.2,1.2,2.1V14.2z"/>
	<path class="st0" d="M12.5,8.7l-2.1-1.2C9.5,7,8.6,7,7.9,7.4C7.2,7.8,6.8,8.6,6.8,9.6V12c0,1,0.4,1.8,1.1,2.2
		c0.3,0.2,0.6,0.3,1,0.3c0.5,0,1-0.1,1.5-0.4l2.1-1.2c0.9-0.5,1.4-1.3,1.4-2C13.8,10,13.3,9.2,12.5,8.7z M11.7,11.5l-2.1,1.2
		c-0.4,0.2-0.7,0.3-1,0.2c-0.2-0.1-0.3-0.5-0.3-0.9V9.6c0-0.5,0.1-0.8,0.3-0.9c0.1,0,0.2-0.1,0.3-0.1c0.2,0,0.4,0.1,0.7,0.2l2.1,1.2
		c0.4,0.2,0.6,0.5,0.6,0.8C12.3,11,12.1,11.3,11.7,11.5z"/>
</g>
</svg>
