<?xml version="1.0" encoding="utf-8"?>
<!-- Generator: Adobe Illustrator 26.0.1, SVG Export Plug-In . SVG Version: 6.00 Build 0)  -->
<svg version="1.1" id="Layer_1" xmlns="http://www.w3.org/2000/svg" xmlns:xlink="http://www.w3.org/1999/xlink" x="0px" y="0px"
	 viewBox="0 0 23.5 20.5" style="enable-background:new 0 0 23.5 20.5;" xml:space="preserve">
<style type="text/css">
	.st0{fill:#05396B;}
</style>
<g>
	<path class="st0" d="M22.8,19h-2.5v-3c1.3-0.3,2.2-1.5,2.2-2.8v-2.3c0-1.6-1.3-2.9-2.9-3h0c0,0,0,0,0,0c-1.6,0-2.9,1.3-2.9,3v2.3
		c0,0.8,0.3,1.5,0.9,2.1c0.4,0.4,0.8,0.6,1.3,0.7V19h-4V3.8c0-1.2-0.3-2.2-1-2.8c-0.6-0.6-1.6-1-2.8-1H4.8C2.4,0,1.1,1.3,1.1,3.8V19
		H0.8C0.3,19,0,19.3,0,19.7s0.3,0.8,0.8,0.8h18.7c0,0,0,0,0,0s0,0,0,0h3.2c0.4,0,0.8-0.3,0.8-0.8S23.2,19,22.8,19z M18.1,13.1v-2.3
		c0-0.8,0.6-1.4,1.4-1.4c0,0,0,0,0,0l0-0.8l0,0.8c0.8,0,1.4,0.7,1.4,1.5v2.3c0,0.8-0.6,1.4-1.4,1.4c0,0,0,0,0,0c0,0,0,0,0,0
		c-0.4,0-0.7-0.2-1-0.4C18.3,13.9,18.1,13.5,18.1,13.1z M2.6,3.8c0-1.6,0.7-2.3,2.2-2.3h6.2c0.8,0,1.3,0.2,1.7,0.5
		c0.4,0.4,0.5,0.9,0.5,1.7V19H8.8v-3c0-0.4-0.3-0.8-0.8-0.8S7.2,15.6,7.2,16v3H2.6V3.8z"/>
	<path class="st0" d="M5.5,6.7h5c0.4,0,0.8-0.3,0.8-0.8s-0.3-0.8-0.8-0.8h-5C5.1,5.2,4.8,5.6,4.8,6S5.1,6.7,5.5,6.7z"/>
	<path class="st0" d="M10.5,10.5c0.4,0,0.8-0.3,0.8-0.8S10.9,9,10.5,9h-5C5.1,9,4.8,9.3,4.8,9.7s0.3,0.8,0.8,0.8H10.5z"/>
</g>
</svg>
