<?xml version="1.0" encoding="utf-8"?>
<!-- Generator: Adobe Illustrator 26.0.1, SVG Export Plug-In . SVG Version: 6.00 Build 0)  -->
<svg version="1.1" id="Layer_1" xmlns="http://www.w3.org/2000/svg" xmlns:xlink="http://www.w3.org/1999/xlink" x="0px" y="0px"
	 viewBox="0 0 21.5 21.5" style="enable-background:new 0 0 21.5 21.5;" xml:space="preserve">
<style type="text/css">
	.st0{fill:#05396B;}
</style>
<g>
	<path class="st0" d="M9.5,3.8C9.7,2,8.4,0.3,6.6,0C6.3,0,6,0,5.7,0H3.8C2-0.2,0.3,1.1,0,2.9c0,0.3,0,0.6,0,0.9v1.9
		c-0.2,1.8,1.1,3.5,2.9,3.8c0.3,0,0.6,0,0.9,0h1.9c0.1,0,0.3,0,0.4,0c1.7,0,3.1-1.2,3.4-2.9c0-0.3,0-0.6,0-0.9V3.8z M8,5.9
		C8,6,8,6.2,8,6.4C7.9,6.9,7.7,7.3,7.3,7.6S6.4,8.1,5.9,8c0,0-0.1,0-0.1,0h-2c0,0-0.1,0-0.1,0C3.5,8,3.3,8,3.1,8
		C2.6,7.9,2.2,7.7,1.9,7.3C1.5,6.9,1.4,6.4,1.5,5.9c0,0,0-0.1,0-0.1v-2c0,0,0-0.1,0-0.1c0-0.2,0-0.4,0-0.5c0.1-0.5,0.3-0.9,0.7-1.3
		c0.4-0.3,0.9-0.4,1.4-0.4c0,0,0.1,0,0.1,0h2c0,0,0.1,0,0.1,0c0.2,0,0.4,0,0.5,0c0.5,0.1,0.9,0.3,1.3,0.7C8,2.6,8.1,3.1,8,3.6
		c0,0,0,0.1,0,0.1v2C8,5.8,8,5.8,8,5.9z"/>
	<path class="st0" d="M12,5.7c-0.2,1.8,1.1,3.5,2.9,3.8c0.3,0,0.6,0,0.9,0h1.9c0.1,0,0.3,0,0.4,0c1.7,0,3.1-1.2,3.4-2.9
		c0-0.3,0-0.6,0-0.9V3.8C21.7,2,20.4,0.3,18.6,0c-0.3,0-0.6,0-0.9,0h-1.9C14-0.2,12.3,1.1,12,2.9c0,0.3,0,0.6,0,0.9V5.7z M13.5,5.9
		c0,0,0-0.1,0-0.1v-2c0,0,0-0.1,0-0.1c0-0.2,0-0.4,0-0.5c0.1-0.5,0.3-0.9,0.7-1.3c0.4-0.3,0.9-0.4,1.4-0.4c0,0,0.1,0,0.1,0h2
		c0,0,0.1,0,0.1,0c0.2,0,0.4,0,0.5,0c0.5,0.1,0.9,0.3,1.3,0.7C20,2.6,20.1,3.1,20,3.6c0,0,0,0.1,0,0.1v2c0,0,0,0.1,0,0.1
		c0,0.2,0,0.4,0,0.5c-0.1,0.5-0.3,0.9-0.7,1.3C18.9,8,18.4,8.1,17.9,8c0,0-0.1,0-0.1,0h-2c0,0-0.1,0-0.1,0c-0.2,0-0.4,0-0.5,0
		c-0.5-0.1-0.9-0.3-1.3-0.7C13.5,6.9,13.4,6.4,13.5,5.9z"/>
	<path class="st0" d="M21.5,15.8c0.2-1.8-1.1-3.5-2.9-3.8c-0.3,0-0.6,0-0.9,0h-1.9c-1.8-0.2-3.5,1.1-3.8,2.9c0,0.3,0,0.6,0,0.9v1.9
		c-0.2,1.8,1.1,3.5,2.9,3.8c0.3,0,0.6,0,0.9,0h1.9c0.1,0,0.3,0,0.4,0c1.7,0,3.1-1.2,3.4-2.9c0-0.3,0-0.6,0-0.9V15.8z M20,15.6
		c0,0,0,0.1,0,0.1v2c0,0,0,0.1,0,0.1c0,0.2,0,0.4,0,0.5c-0.1,0.5-0.3,0.9-0.7,1.3c-0.4,0.3-0.9,0.4-1.4,0.4c0,0-0.1,0-0.1,0h-2
		c0,0-0.1,0-0.1,0c-0.2,0-0.4,0-0.5,0c-0.5-0.1-0.9-0.3-1.3-0.7c-0.3-0.4-0.4-0.9-0.4-1.4c0,0,0-0.1,0-0.1v-2c0,0,0-0.1,0-0.1
		c0-0.2,0-0.4,0-0.5c0.1-0.5,0.3-0.9,0.7-1.3c0.4-0.3,0.9-0.4,1.4-0.4c0,0,0.1,0,0.1,0h2c0,0,0.1,0,0.1,0c0.2,0,0.4,0,0.5,0
		c0.5,0.1,0.9,0.3,1.3,0.7C20,14.6,20.1,15.1,20,15.6z"/>
	<path class="st0" d="M9.5,15.8C9.7,14,8.4,12.3,6.6,12c-0.3,0-0.6,0-0.9,0H3.8C2,11.8,0.3,13.1,0,14.9c0,0.3,0,0.6,0,0.9v1.9
		c-0.2,1.8,1.1,3.5,2.9,3.8c0.3,0,0.6,0,0.9,0h1.9c0.1,0,0.3,0,0.4,0c1.7,0,3.1-1.2,3.4-2.9c0-0.3,0-0.6,0-0.9V15.8z M8,17.9
		c0,0.2,0,0.4,0,0.5c-0.1,0.5-0.3,0.9-0.7,1.3C6.9,20,6.4,20.1,5.9,20c0,0-0.1,0-0.1,0h-2c0,0-0.1,0-0.1,0c-0.2,0-0.4,0-0.5,0
		c-0.5-0.1-0.9-0.3-1.3-0.7c-0.3-0.4-0.4-0.9-0.4-1.4c0,0,0-0.1,0-0.1v-2c0,0,0-0.1,0-0.1c0-0.2,0-0.4,0-0.5
		c0.1-0.5,0.3-0.9,0.7-1.3c0.4-0.3,0.9-0.4,1.4-0.4c0,0,0.1,0,0.1,0h2c0,0,0.1,0,0.1,0c0.2,0,0.4,0,0.5,0c0.5,0.1,0.9,0.3,1.3,0.7
		C8,14.6,8.1,15.1,8,15.6c0,0,0,0.1,0,0.1v2C8,17.8,8,17.8,8,17.9z"/>
</g>
</svg>
