<?xml version="1.0" encoding="utf-8"?>
<!-- Generator: Adobe Illustrator 26.0.1, SVG Export Plug-In . SVG Version: 6.00 Build 0)  -->
<svg version="1.1" id="Layer_1" xmlns="http://www.w3.org/2000/svg" xmlns:xlink="http://www.w3.org/1999/xlink" x="0px" y="0px"
	 viewBox="0 0 21.5 21.5" style="enable-background:new 0 0 21.5 21.5;" xml:space="preserve">
<style type="text/css">
	.st0{fill:#05396B;}
</style>
<g>
	<path class="st0" d="M18.6,7.1c0.3-0.2,0.5-0.4,0.7-0.7c0.3-0.4,0.3-1,0.2-1.4c-0.1-0.5-0.4-0.9-0.9-1.2L12,0.3
		c-0.8-0.4-1.8-0.4-2.6,0L2.9,3.9C2.7,4,2.4,4.3,2.3,4.5C1.7,5.5,2,6.6,3,7.2l6.5,3.5c0.4,0.2,0.8,0.3,1.3,0.3s0.9-0.1,1.3-0.3
		L18.6,7.1z M10.2,9.4L3.7,5.9C3.5,5.7,3.4,5.5,3.6,5.3c0-0.1,0.1-0.1,0.1-0.1l6.5-3.5c0.2-0.1,0.4-0.1,0.6-0.1s0.4,0,0.6,0.1h0
		l6.5,3.5C17.9,5.2,18,5.3,18,5.4s0,0.2,0,0.3c0,0.1-0.1,0.1-0.1,0.1l-6.5,3.5C11,9.5,10.5,9.5,10.2,9.4z"/>
	<path class="st0" d="M8.7,11.2l-6.1-3C2.4,8.1,2.1,8,1.9,8C0.8,8,0,8.8,0,9.9v5.7c0,1.1,0.6,2.1,1.6,2.7l6,3
		c0.3,0.1,0.6,0.2,0.8,0.2c1,0,1.9-0.8,1.9-1.9v-5.7C10.4,12.8,9.8,11.7,8.7,11.2z M8.9,19.6c0,0.3-0.3,0.4-0.5,0.3l-6-3
		c-0.5-0.3-0.8-0.8-0.8-1.3V9.9c0-0.2,0.2-0.4,0.4-0.4c0.1,0,0.1,0,0.2,0c0,0,0,0,0,0l6,3c0.5,0.3,0.8,0.8,0.8,1.3V19.6z"/>
	<path class="st0" d="M19.6,8c-0.3,0-0.6,0.1-0.8,0.2l-6.1,3c-1,0.5-1.6,1.5-1.6,2.7v5.7c0,1,0.8,1.9,1.9,1.9c0.3,0,0.6-0.1,0.8-0.2
		l6.1-3c1-0.5,1.6-1.5,1.6-2.7V9.9C21.5,8.8,20.7,8,19.6,8z M20,15.6c0,0.6-0.3,1.1-0.8,1.3l-6.1,3c-0.2,0.1-0.5-0.1-0.5-0.3l0-5.7
		c0-0.6,0.3-1.1,0.8-1.3l6-3c0,0,0,0,0,0c0.1,0,0.1,0,0.2,0c0.2,0,0.4,0.2,0.4,0.4V15.6z"/>
</g>
</svg>
