<?xml version="1.0" encoding="utf-8"?>
<!-- Generator: Adobe Illustrator 26.0.1, SVG Export Plug-In . SVG Version: 6.00 Build 0)  -->
<svg version="1.1" id="Layer_1" xmlns="http://www.w3.org/2000/svg" xmlns:xlink="http://www.w3.org/1999/xlink" x="0px" y="0px"
	 viewBox="0 0 20.1 21.5" style="enable-background:new 0 0 20.1 21.5;" xml:space="preserve">
<style type="text/css">
	.st0{fill:#05396B;}
</style>
<g>
	<path class="st0" d="M9.3,11.5c3.2,0,5.8-2.6,5.8-5.8S12.5,0,9.3,0C6.2,0,3.6,2.6,3.6,5.8S6.2,11.5,9.3,11.5z M9.3,1.5
		c2.3,0,4.2,1.9,4.2,4.2S11.7,10,9.3,10C7,10,5.1,8.1,5.1,5.8S7,1.5,9.3,1.5z"/>
	<path class="st0" d="M15.3,12c-1.3,0-2.4,0.5-3.3,1.3c-0.9-0.2-1.8-0.4-2.7-0.3C4.2,13,0,16.5,0,20.8c0,0.4,0.3,0.8,0.8,0.8
		s0.8-0.3,0.8-0.8c0-3.4,3.5-6.2,7.8-6.2c0,0,0,0,0,0c0.6,0,1.2,0.1,1.7,0.2c-0.3,0.6-0.5,1.3-0.5,2.1c0,0.9,0.2,1.7,0.7,2.4
		c0.8,1.4,2.4,2.3,4.1,2.3c0,0,0,0,0,0c1.2,0,2.3-0.4,3.1-1.2c0.4-0.3,0.7-0.7,0.9-1.1c0.5-0.7,0.7-1.6,0.7-2.5
		C20.1,14.1,18,12,15.3,12z M18.6,16.8c0,0.6-0.2,1.2-0.5,1.7c-0.2,0.3-0.4,0.5-0.6,0.8c-0.6,0.5-1.3,0.8-2.1,0.8c0,0,0,0,0,0
		c-1.1,0-2.2-0.6-2.8-1.6c-0.3-0.5-0.5-1.1-0.5-1.7c0-1.8,1.5-3.2,3.2-3.2S18.6,15,18.6,16.8C18.6,16.8,18.6,16.8,18.6,16.8z"/>
	<path class="st0" d="M16.4,15.2l-1.6,1.5l-0.5-0.5c-0.3-0.3-0.8-0.3-1.1,0c-0.3,0.3-0.3,0.8,0,1.1l1,1c0.1,0.1,0.3,0.2,0.5,0.2
		c0.2,0,0.4-0.1,0.5-0.2l2.1-2c0.3-0.3,0.3-0.8,0-1.1C17.2,15,16.7,14.9,16.4,15.2z"/>
</g>
</svg>
