<?xml version="1.0" encoding="utf-8"?>
<!-- Generator: Adobe Illustrator 26.0.1, SVG Export Plug-In . SVG Version: 6.00 Build 0)  -->
<svg version="1.1" id="Layer_1" xmlns="http://www.w3.org/2000/svg" xmlns:xlink="http://www.w3.org/1999/xlink" x="0px" y="0px"
	 viewBox="0 0 17.6 21.6" style="enable-background:new 0 0 17.6 21.6;" xml:space="preserve">
<style type="text/css">
	.st0{fill:#05396B;}
</style>
<path class="st0" d="M17.4,14.7c-0.1-0.2-0.1-0.4-0.3-0.6L16,12.3c-0.3-0.5-0.4-1.1-0.5-1.7V7.7c0-2.9-1.8-5.3-4.4-6.3
	c-0.3-0.6-0.8-1-1.4-1.2c-1.3-0.5-2.7,0-3.4,1.2c-2.5,1-4.4,3.4-4.4,6.3l0,2.9c0,0.6-0.2,1.2-0.5,1.7l-1.1,1.9
	c-0.4,0.6-0.5,1.3-0.4,2c0.1,0.7,0.5,1.3,1.1,1.7c0.2,0.2,0.5,0.3,0.8,0.4C3,18.6,4.1,18.9,5.3,19c0.5,1.5,1.9,2.6,3.5,2.6
	c1.7,0,3-1.1,3.5-2.6c1.1-0.2,2.2-0.5,3.3-0.8c0.7-0.2,1.3-0.7,1.6-1.4C17.6,16.2,17.6,15.4,17.4,14.7z M8.8,20.1
	c-0.7,0-1.3-0.3-1.8-0.9c0.6,0,1.2,0.1,1.7,0.1c0.6,0,1.2,0,1.8-0.1C10.1,19.8,9.5,20.1,8.8,20.1z M15.9,16.2
	c-0.1,0.3-0.4,0.5-0.7,0.6c-4.1,1.4-8.7,1.4-12.8,0c-0.1,0-0.2-0.1-0.3-0.2c-0.3-0.2-0.4-0.4-0.5-0.7c-0.1-0.3,0-0.6,0.2-0.9L2.9,13
	c0.4-0.7,0.6-1.6,0.7-2.4V7.7c0-2.4,1.7-4.5,4-5.1c0.7-0.2,1.4-0.2,2.1-0.1c0.2,0,0.3,0.1,0.5,0.1c2.3,0.6,3.9,2.6,3.9,5.1l0,2.9
	c0,0.8,0.3,1.6,0.7,2.4l1.2,1.9c0,0.1,0.1,0.2,0.1,0.2C16.1,15.5,16.1,15.9,15.9,16.2z"/>
</svg>
