<?xml version="1.0" encoding="utf-8"?>
<!-- Generator: Adobe Illustrator 26.0.1, SVG Export Plug-In . SVG Version: 6.00 Build 0)  -->
<svg version="1.1" id="Layer_1" xmlns="http://www.w3.org/2000/svg" xmlns:xlink="http://www.w3.org/1999/xlink" x="0px" y="0px"
	 viewBox="0 0 21.5 21.5" style="enable-background:new 0 0 21.5 21.5;" xml:space="preserve">
<style type="text/css">
	.st0{fill:#389583;}
</style>
<g>
	<path class="st0" d="M13.8,0h-6C2.3,0,0,2.3,0,7.8v6c0,5.4,2.3,7.8,7.8,7.8h6c5.4,0,7.8-2.3,7.8-7.8v-6C21.5,2.3,19.2,0,13.8,0z
		 M20,13.8c0,4.6-1.6,6.2-6.2,6.2h-6c-4.6,0-6.2-1.6-6.2-6.2v-6c0-4.6,1.6-6.2,6.2-6.2h6c4.6,0,6.2,1.6,6.2,6.2V13.8z"/>
	<path class="st0" d="M15,11.9c-0.7-0.1-1.3-0.1-2-0.1c-0.6-0.8-1.1-1.6-1.5-2.5c0.3-0.9,0.6-1.8,0.8-2.7c0.1-0.3,0.1-0.6,0.1-0.9
		c0-0.3-0.1-0.6-0.2-0.8c-0.1-0.1-0.2-0.3-0.3-0.4c-0.1-0.1-0.3-0.2-0.4-0.2c-0.3-0.1-0.6,0-0.9,0.1c-0.5,0.2-0.9,0.7-1,1.2
		C9.5,6.3,9.5,6.8,9.6,7.4c0.2,0.7,0.4,1.3,0.6,1.9c-0.5,1.1-1,2.3-1.6,3.3c-0.8,0.2-1.5,0.6-2.2,1c-0.5,0.3-1,0.7-1.3,1.2
		C4.8,15.3,4.7,16,5,16.5c0.1,0.3,0.4,0.5,0.7,0.6l0,0c0.3,0.1,0.6,0.1,0.9-0.1c0.5-0.3,1-0.7,1.4-1.2c0.6-0.7,1.1-1.5,1.5-2.3
		c1-0.3,2-0.5,3-0.6c0.4,0.5,0.9,1,1.4,1.4c0.4,0.3,0.9,0.6,1.4,0.6c0.3,0,0.5-0.1,0.8-0.2c0.2-0.2,0.4-0.4,0.5-0.6
		c0.1-0.3,0.2-0.6,0.2-0.8c0-0.3-0.1-0.6-0.3-0.8C16,12.2,15.5,12,15,11.9z M7,15.2c-0.3,0.4-0.6,0.6-1,0.9c0,0,0,0-0.1,0
		c0,0,0,0,0-0.1c-0.1-0.2-0.1-0.4,0.1-0.5c0.3-0.3,0.6-0.6,1-0.8c0.2-0.1,0.4-0.2,0.7-0.4C7.5,14.6,7.3,14.9,7,15.2z M10.6,5.9
		c0.1-0.3,0.2-0.4,0.3-0.4c0.1,0,0.1-0.1,0.2-0.1c0,0.1,0,0.2,0,0.3c0,0.2,0,0.5-0.1,0.7c-0.1,0.4-0.2,0.8-0.3,1.2
		c-0.1-0.2-0.1-0.4-0.1-0.5C10.6,6.8,10.6,6.3,10.6,5.9z M10.2,12.3L10.2,12.3c0.3-0.5,0.5-1.1,0.8-1.6c0.2,0.4,0.5,0.9,0.8,1.3
		C11.2,12.1,10.7,12.2,10.2,12.3z M15.5,13.7c0,0.1-0.1,0.1-0.1,0.2c0,0-0.1,0-0.1,0c-0.3-0.1-0.5-0.2-0.7-0.4
		c-0.2-0.2-0.4-0.4-0.6-0.6c0.3,0,0.6,0,0.9,0.1c0.3,0,0.6,0.1,0.8,0.3c0,0,0,0.1,0,0.1C15.6,13.5,15.5,13.6,15.5,13.7z"/>
</g>
</svg>
