<?xml version="1.0" encoding="utf-8"?>
<!-- Generator: Adobe Illustrator 26.0.1, SVG Export Plug-In . SVG Version: 6.00 Build 0)  -->
<svg version="1.1" id="Layer_1" xmlns="http://www.w3.org/2000/svg" xmlns:xlink="http://www.w3.org/1999/xlink" x="0px" y="0px"
	 viewBox="0 0 14.2 14.3" style="enable-background:new 0 0 14.2 14.3;" xml:space="preserve">
<style type="text/css">
	.st0{fill:#292D32;}
</style>
<g id="Path_97">
	<path class="st0" d="M10.6,14.3C10.6,14.3,10.6,14.3,10.6,14.3c-0.9,0-1.7-0.2-2.4-0.5c-0.8-0.4-1.6-0.8-2.3-1.3
		c-0.8-0.6-1.5-1.2-2.2-1.9C3,9.9,2.4,9.1,1.9,8.4C1.3,7.6,0.9,6.9,0.5,6C0.2,5.3,0,4.5,0,3.7c0-0.5,0.1-1,0.3-1.5
		c0.2-0.5,0.5-1,0.9-1.3C1.6,0.3,2.3,0,3,0c0,0,0,0,0,0c0.3,0,0.6,0.1,0.9,0.2c0.3,0.1,0.5,0.3,0.7,0.6l1.5,2.1
		C6.2,3,6.3,3.2,6.4,3.5c0.1,0.2,0.1,0.4,0.1,0.7c0,0.3-0.1,0.6-0.2,0.9C6.2,5.2,6,5.4,5.8,5.6L5.6,5.9C5.7,6.1,5.8,6.2,6,6.4
		c0.3,0.3,0.6,0.7,0.9,1c0.3,0.3,0.6,0.6,1,0.9C8,8.4,8.2,8.6,8.4,8.7l0.3-0.3C8.8,8.2,9,8,9.3,7.9c0.2-0.1,0.5-0.2,0.8-0.2
		c0.2,0,0.5,0.1,0.7,0.1C11,7.9,11.2,8,11.4,8.1l2.1,1.5c0.2,0.2,0.5,0.4,0.6,0.7c0.1,0.3,0.2,0.5,0.2,0.8v0c0,0.4-0.1,0.7-0.2,1
		c-0.1,0.3-0.3,0.6-0.6,0.8c-0.4,0.4-0.8,0.7-1.3,0.9C11.7,14.2,11.2,14.3,10.6,14.3z M3,1.5C3,1.5,3,1.5,3,1.5
		c-0.3,0-0.6,0.1-0.8,0.4C2,2.1,1.8,2.4,1.7,2.7C1.6,3,1.5,3.3,1.5,3.6c0,0.6,0.1,1.2,0.4,1.8c0.3,0.7,0.7,1.4,1.2,2
		c0.5,0.7,1.1,1.4,1.7,2c0.6,0.6,1.3,1.2,2,1.7c0.6,0.5,1.3,0.9,2.1,1.2c0.6,0.3,1.2,0.4,1.8,0.4c0.3,0,0.6-0.1,0.9-0.2
		c0.3-0.1,0.6-0.3,0.8-0.6c0.1-0.1,0.2-0.3,0.3-0.5c0.1-0.1,0.1-0.3,0.1-0.4c0-0.1,0-0.1,0-0.2c0,0,0,0-0.1-0.1l-2.1-1.5
		c-0.1-0.1-0.2-0.1-0.3-0.2c0,0-0.1,0-0.1,0C9.9,9.3,9.8,9.3,9.7,9.4L9.2,9.9c-0.2,0.2-0.5,0.3-0.8,0.3c-0.1,0-0.3,0-0.4-0.1
		l-0.2-0.1c-0.3-0.2-0.7-0.4-1-0.7c-0.3-0.3-0.7-0.6-1.1-1c-0.3-0.3-0.7-0.7-1-1C4.6,7.1,4.4,6.8,4.2,6.5L4,6.1C4,6,4,5.9,4,5.8
		C4,5.5,4.1,5.2,4.3,5l0.5-0.5C4.9,4.4,5,4.3,5,4.2c0-0.1,0-0.1,0-0.2C5,3.9,4.9,3.8,4.9,3.8L3.4,1.7c0-0.1-0.1-0.1-0.1-0.1
		C3.2,1.5,3.1,1.5,3,1.5z M8.2,8.9C8.2,8.9,8.2,8.9,8.2,8.9L8.2,8.9z M5.4,6.1L5.4,6.1C5.4,6.1,5.4,6.1,5.4,6.1z"/>
</g>
</svg>
