<?xml version="1.0" encoding="utf-8"?>
<!-- Generator: Adobe Illustrator 26.0.1, SVG Export Plug-In . SVG Version: 6.00 Build 0)  -->
<svg version="1.1" id="Layer_1" xmlns="http://www.w3.org/2000/svg" xmlns:xlink="http://www.w3.org/1999/xlink" x="0px" y="0px"
	 viewBox="0 0 19.5 21.5" style="enable-background:new 0 0 19.5 21.5;" xml:space="preserve">
<style type="text/css">
	.st0{fill:#05396B;}
</style>
<g>
	<path class="st0" d="M19.5,8.8c0-0.3,0-0.6,0-0.9c-0.3-1.8-1.9-3.1-3.8-2.9h-0.5V3.8c0-2.6-1.2-3.8-3.8-3.8H8
		C5.4,0,4.2,1.2,4.2,3.8V5H3.8C3.5,5,3.2,5,2.9,5C2,5.1,1.2,5.6,0.7,6.3C0.1,7-0.1,7.9,0,8.8v4.9c0,0.3,0,0.6,0,0.9
		c0.2,1.7,1.7,2.9,3.4,2.9c0.1,0,0.3,0,0.4,0H5v0.2c0,0.3,0,0.6,0,0.9c0.2,1.7,1.7,2.9,3.4,2.9c0.1,0,0.3,0,0.4,0h1.9
		c0.3,0,0.6,0,0.9,0c1.8-0.3,3.1-2,2.9-3.8v-0.2h1.2c0.3,0,0.6,0,0.9,0c0.9-0.1,1.7-0.6,2.2-1.3c0.5-0.7,0.8-1.6,0.7-2.5V8.8z
		 M5.8,3.8C5.8,2,6.3,1.5,8,1.5h3.5c1.7,0,2.2,0.5,2.2,2.2V5h-8V3.8z M12.6,19.3c-0.3,0.4-0.8,0.7-1.3,0.7c-0.2,0-0.4,0-0.5,0
		c0,0-0.1,0-0.1,0h-2c0,0-0.1,0-0.1,0c-0.5,0.1-1-0.1-1.4-0.4c-0.4-0.3-0.7-0.8-0.7-1.3c0-0.2,0-0.4,0-0.5c0,0,0-0.1,0-0.1v-1v-2.2
		H13v2.2v1c0,0,0,0.1,0,0.1C13.1,18.4,13,18.9,12.6,19.3z M16.4,16c-0.2,0-0.4,0-0.5,0c0,0-0.1,0-0.1,0h-1.2v-1.5h0.2
		c0.4,0,0.8-0.3,0.8-0.8S15.2,13,14.8,13h-1h-8h-1C4.3,13,4,13.3,4,13.8s0.3,0.8,0.8,0.8H5V16H3.8c0,0-0.1,0-0.1,0
		c-1,0.1-2-0.6-2.2-1.6c0-0.2,0-0.4,0-0.5c0,0,0-0.1,0-0.1v-5c0,0,0-0.1,0-0.1c-0.1-1,0.6-2,1.6-2.2c0.1,0,0.2,0,0.3,0s0.2,0,0.3,0
		c0,0,0.1,0,0.1,0H5h9.5h1.2c0,0,0.1,0,0.1,0c1-0.2,2,0.6,2.2,1.6c0,0.2,0,0.4,0,0.5c0,0,0,0.1,0,0.1v5c0,0,0,0.1,0,0.1
		C18.2,14.9,17.4,15.9,16.4,16z"/>
	<path class="st0" d="M7.8,9h-3C4.3,9,4,9.3,4,9.8s0.3,0.8,0.8,0.8h3c0.4,0,0.8-0.3,0.8-0.8S8.2,9,7.8,9z"/>
</g>
</svg>
