<?xml version="1.0" encoding="utf-8"?>
<!-- Generator: Adobe Illustrator 26.0.1, SVG Export Plug-In . SVG Version: 6.00 Build 0)  -->
<svg version="1.1" id="Layer_1" xmlns="http://www.w3.org/2000/svg" xmlns:xlink="http://www.w3.org/1999/xlink" x="0px" y="0px"
	 viewBox="0 0 21.5 21.5" style="enable-background:new 0 0 21.5 21.5;" xml:space="preserve">
<style type="text/css">
	.st0{fill:#FFFFFF;}
</style>
<g>
	<path class="st0" d="M18.1,0H3.4C1.5,0,0,1.5,0,3.4v2.6c0,1.9,1.5,3.4,3.4,3.4h14.6c0,0,0,0,0,0c1.9,0,3.4-1.5,3.4-3.4V3.4
		C21.5,1.5,19.9,0,18.1,0z M20,6.1C20,7.1,19.1,8,18.1,8H3.4C2.4,8,1.5,7.1,1.5,6.1V3.4c0-1.1,0.9-1.9,1.9-1.9h14.6
		c1.1,0,1.9,0.9,1.9,1.9V6.1z"/>
	<path class="st0" d="M18.1,12H3.4C1.5,12,0,13.5,0,15.4v2.6c0,1.9,1.5,3.4,3.4,3.4h14.6c0,0,0,0,0,0c1.9,0,3.4-1.5,3.4-3.4v-2.6
		C21.5,13.5,19.9,12,18.1,12z M20,18.1c0,1.1-0.9,1.9-1.9,1.9H3.4c-1.1,0-1.9-0.9-1.9-1.9v-2.6c0-1.1,0.9-1.9,1.9-1.9h14.6
		c1.1,0,1.9,0.9,1.9,1.9V18.1z"/>
	<path class="st0" d="M4.7,3C4.3,3,4,3.3,4,3.7v2c0,0.4,0.3,0.8,0.8,0.8s0.8-0.3,0.8-0.8v-2C5.5,3.3,5.2,3,4.7,3z"/>
	<path class="st0" d="M8.7,3C8.3,3,8,3.3,8,3.7v2c0,0.4,0.3,0.8,0.8,0.8s0.8-0.3,0.8-0.8v-2C9.5,3.3,9.2,3,8.7,3z"/>
	<path class="st0" d="M4.7,15C4.3,15,4,15.3,4,15.7v2c0,0.4,0.3,0.8,0.8,0.8s0.8-0.3,0.8-0.8v-2C5.5,15.3,5.2,15,4.7,15z"/>
	<path class="st0" d="M8.7,15C8.3,15,8,15.3,8,15.7v2c0,0.4,0.3,0.8,0.8,0.8s0.8-0.3,0.8-0.8v-2C9.5,15.3,9.2,15,8.7,15z"/>
	<path class="st0" d="M16.7,4h-4C12.3,4,12,4.3,12,4.7s0.3,0.8,0.8,0.8h4c0.4,0,0.8-0.3,0.8-0.8S17.2,4,16.7,4z"/>
	<path class="st0" d="M16.7,16h-4c-0.4,0-0.8,0.3-0.8,0.8s0.3,0.8,0.8,0.8h4c0.4,0,0.8-0.3,0.8-0.8S17.2,16,16.7,16z"/>
</g>
</svg>
