<?xml version="1.0" encoding="utf-8"?>
<!-- Generator: Adobe Illustrator 26.0.1, SVG Export Plug-In . SVG Version: 6.00 Build 0)  -->
<svg version="1.1" id="Layer_1" xmlns="http://www.w3.org/2000/svg" xmlns:xlink="http://www.w3.org/1999/xlink" x="0px" y="0px"
	 viewBox="0 0 20.7 21.7" style="enable-background:new 0 0 20.7 21.7;" xml:space="preserve">
<style type="text/css">
	.st0{fill:#05396B;}
</style>
<path class="st0" d="M20.7,8c-0.1-1.8-1.1-3.4-2.6-4.3l-5.4-3c-1.5-0.7-3.3-0.7-4.8,0c0,0,0,0,0,0l-5.4,3C1.1,4.6,0.1,6.2,0,8l0,5.7
	c0.1,1.8,1.1,3.4,2.6,4.3l5.4,3c0.8,0.4,1.6,0.5,2.4,0.5c0.8,0,1.7-0.2,2.5-0.6l5.4-3c1.5-0.9,2.5-2.6,2.6-4.4L20.7,8z M3.3,5L8.6,2
	c1.1-0.5,2.4-0.5,3.4,0l5.3,2.9c0.4,0.3,0.8,0.6,1,0.9l-8.1,4.7L2.3,5.9C2.6,5.5,2.9,5.2,3.3,5z M3.3,16.8c-1.1-0.7-1.8-1.9-1.8-3.1
	l0-5.6c0-0.3,0.1-0.6,0.1-0.8l8,4.6V20c-0.3-0.1-0.7-0.2-1-0.3L3.3,16.8z M17.4,16.8l-5.3,2.9c-0.3,0.2-0.7,0.3-1,0.3v-8.2l8-4.6
	c0.1,0.3,0.1,0.5,0.1,0.8l0,5.6C19.2,14.9,18.5,16.1,17.4,16.8z"/>
</svg>
