<?xml version="1.0" encoding="utf-8"?>
<!-- Generator: Adobe Illustrator 26.0.1, SVG Export Plug-In . SVG Version: 6.00 Build 0)  -->
<svg version="1.1" id="Layer_1" xmlns="http://www.w3.org/2000/svg" xmlns:xlink="http://www.w3.org/1999/xlink" x="0px" y="0px"
	 viewBox="0 0 21.2 21.5" style="enable-background:new 0 0 21.2 21.5;" xml:space="preserve">
<style type="text/css">
	.st0{fill:#FFFFFF;}
</style>
<path class="st0" d="M20.1,5.5c-0.9-1-2.4-1.5-4.6-1.5h-0.2v0c0-1.8,0-4-4-4H9.7c-4,0-4,2.2-4,4v0H5.5C3.3,4,1.8,4.5,0.9,5.5
	C0.2,6.4-0.1,7.6,0.1,9.2l0.8,8c0.2,2.1,1.1,4.2,5.7,4.2h8c4.6,0,5.5-2.1,5.7-4.2l0.7-7.4c0,0,0,0,0,0l0.1-0.6
	C21.1,7.6,20.8,6.4,20.1,5.5z M7.2,4c0-1.8,0-2.5,2.5-2.5h1.6c2.5,0,2.5,0.7,2.5,2.5v0L7.2,4L7.2,4z M2.1,6.5c0.6-0.7,1.7-1,3.4-1
	h10c1.7,0,2.9,0.3,3.4,1c0.5,0.5,0.7,1.4,0.5,2.6l0,0.2c-1.9,1.3-4,2.2-6.2,2.6v-0.1c0-1.4-0.3-1.8-1.8-1.8h-2
	c-1.4,0-1.8,0.3-1.8,1.8v0.2c-2.2-0.4-4.3-1.2-6.2-2.5l0-0.3C1.4,7.9,1.6,7,2.1,6.5z M11.7,11.8v1c0,1.1,0,1.2-1.2,1.2
	s-1.2-0.2-1.2-1.2v-1c0-0.1,0-0.2,0-0.2c0.1,0,0.2,0,0.2,0h2c0.1,0,0.2,0,0.2,0C11.7,11.6,11.7,11.7,11.7,11.8z M18.7,17.1
	c-0.2,1.6-0.6,2.9-4.2,2.9h-8c-3.6,0-4-1.3-4.2-2.9l-0.5-5.8c1.8,1.1,3.9,1.8,6,2.1c0.1,1,0.5,2.1,2.7,2.1c2.2,0,2.6-1.1,2.7-2.1
	c2.1-0.3,4.2-1.1,6-2.2L18.7,17.1z"/>
</svg>
