<?xml version="1.0" encoding="utf-8"?>
<!-- Generator: Adobe Illustrator 26.0.1, SVG Export Plug-In . SVG Version: 6.00 Build 0)  -->
<svg version="1.1" id="Layer_1" xmlns="http://www.w3.org/2000/svg" xmlns:xlink="http://www.w3.org/1999/xlink" x="0px" y="0px"
	 viewBox="0 0 21.5 18.5" style="enable-background:new 0 0 21.5 18.5;" xml:space="preserve">
<style type="text/css">
	.st0{fill:#05396B;}
</style>
<g>
	<path class="st0" d="M15.8,0h-10C2.1,0,0,2.1,0,5.8v7c0,3.7,2.1,5.8,5.8,5.8h10c3.7,0,5.8-2.1,5.8-5.8v-7C21.5,2.1,19.4,0,15.8,0z
		 M20,12.8c0,2.9-1.4,4.2-4.2,4.2h-10c-2.9,0-4.2-1.4-4.2-4.2v-7c0-2.9,1.4-4.2,4.2-4.2h10c2.9,0,4.2,1.4,4.2,4.2V12.8z"/>
	<path class="st0" d="M15.3,5.7l-3.1,2.5c-0.9,0.6-2,0.6-2.8,0L6.2,5.7C5.9,5.4,5.4,5.5,5.2,5.8C4.9,6.1,5,6.6,5.3,6.8l3.1,2.5
		c0.7,0.5,1.5,0.8,2.3,0.8c0.8,0,1.6-0.3,2.4-0.8l3.1-2.5c0.3-0.3,0.4-0.7,0.1-1.1C16.1,5.5,15.6,5.4,15.3,5.7z"/>
</g>
</svg>
