<?xml version="1.0" encoding="utf-8"?>
<!-- Generator: Adobe Illustrator 26.0.1, SVG Export Plug-In . SVG Version: 6.00 Build 0)  -->
<svg version="1.1" id="Layer_1" xmlns="http://www.w3.org/2000/svg" xmlns:xlink="http://www.w3.org/1999/xlink" x="0px" y="0px"
	 viewBox="0 0 24 24.4" style="enable-background:new 0 0 24 24.4;" xml:space="preserve">
<style type="text/css">
	.st0{fill:#05396B;}
</style>
<path class="st0" d="M22.6,14.3c0-0.7-0.3-1.4-0.8-1.9c-0.1-0.1-0.3-0.3-0.5-0.4l-1.9-1.2c-0.5-0.3-0.9-0.8-1.2-1.3l-1.3-2.6
	c-1.3-2.6-4-3.9-6.7-3.6C9.7,2.9,9,2.8,8.4,2.8C7.7,2.9,7,3.2,6.5,3.8c-0.4,0.5-0.6,1-0.6,1.6c-1.8,2-2.3,5-1,7.6l1.3,2.5
	c0.3,0.5,0.4,1.2,0.4,1.7l-0.2,2.2c-0.2,1.5,0.9,2.8,2.3,3c0.1,0,0.2,0,0.3,0c0.2,0,0.3,0,0.5,0c1.1-0.2,2.3-0.4,3.3-0.8
	c0.4,0.4,0.9,0.7,1.5,0.9c0.4,0.1,0.8,0.2,1.2,0.2c0.6,0,1.2-0.1,1.7-0.4c1.5-0.8,2.2-2.4,2-3.9c0.9-0.7,1.8-1.4,2.6-2.2
	C22.3,15.7,22.6,15,22.6,14.3z M17.7,19.7c-0.2,0.6-0.6,1-1.1,1.3s-1.1,0.3-1.7,0.1c-0.1,0-0.2-0.1-0.2-0.1c1.1-0.4,2.1-1,3.1-1.6
	C17.7,19.6,17.7,19.6,17.7,19.7z M20.7,15.2c-3,3.1-7.1,5.2-11.4,5.8c-0.1,0-0.3,0-0.4,0c-0.6-0.1-1.1-0.7-1-1.3l0.2-2.3
	c0-0.8-0.2-1.7-0.5-2.5l-1.3-2.6c-1.1-2.1-0.6-4.7,1.1-6.2C7.9,5.7,8.6,5.3,9.3,5C9.4,5,9.6,4.9,9.8,4.9c2.3-0.5,4.7,0.6,5.8,2.7
	l1.3,2.6c0.4,0.7,1,1.3,1.7,1.8l1.9,1.2c0.1,0,0.2,0.1,0.2,0.2c0.2,0.2,0.4,0.5,0.4,0.9C21.1,14.6,21,14.9,20.7,15.2z"/>
</svg>
