<?xml version="1.0" encoding="utf-8"?>
<!-- Generator: Adobe Illustrator 26.0.1, SVG Export Plug-In . SVG Version: 6.00 Build 0)  -->
<svg version="1.1" id="Layer_1" xmlns="http://www.w3.org/2000/svg" xmlns:xlink="http://www.w3.org/1999/xlink" x="0px" y="0px"
	 viewBox="0 0 22.1 21.7" style="enable-background:new 0 0 22.1 21.7;" xml:space="preserve">
<style type="text/css">
	.st0{fill:#05396B;}
</style>
<g>
	<path class="st0" d="M20.7,13.5V8c0,0,0,0,0,0c-0.1-1.8-1.1-3.4-2.6-4.3l-5.4-3c-1.5-0.7-3.3-0.7-4.8,0l-5.4,3C1.1,4.6,0.1,6.2,0,8
		l0,5.7c0.1,1.8,1.1,3.4,2.6,4.3l5.4,3c0.7,0.4,1.6,0.6,2.4,0.6c0.8,0,1.7-0.2,2.4-0.6l1.3-0.7c0.9,0.8,2,1.3,3.2,1.3c0,0,0,0,0,0
		c1.2,0,2.3-0.4,3.1-1.2c0.4-0.3,0.7-0.7,0.9-1.1c0.5-0.7,0.7-1.6,0.7-2.5C22.1,15.6,21.6,14.4,20.7,13.5z M3.3,5L8.6,2
		c0.5-0.3,1.2-0.4,1.8-0.4c0.6,0,1.2,0.1,1.7,0.4l5.3,2.9c0.4,0.3,0.8,0.6,1,0.9l-8,4.7L2.3,5.9C2.6,5.5,2.9,5.2,3.3,5z M3.3,16.8
		c-1.1-0.7-1.8-1.9-1.8-3.1l0-5.6c0-0.3,0.1-0.6,0.1-0.8l8,4.6V20c-0.3-0.1-0.7-0.2-1-0.3L3.3,16.8z M12.1,19.7
		c-0.3,0.2-0.6,0.3-1,0.3v-8.2l8-4.6c0.1,0.3,0.1,0.5,0.1,0.8l0,4.4c0,0,0,0,0,0c0,0-0.1,0-0.1,0c-0.5-0.2-1.1-0.3-1.7-0.3
		c0,0,0,0,0,0c0,0,0,0,0,0c-2.6,0-4.8,2.1-4.8,4.7c0,0.2,0,0.4,0,0.6c0,0.1,0,0.1,0,0.2c0,0.1,0.1,0.3,0.1,0.4c0,0.1,0,0.1,0.1,0.2
		c0,0.1,0.1,0.3,0.1,0.4c0,0.1,0.1,0.1,0.1,0.2c0,0.1,0.1,0.1,0.1,0.2L12.1,19.7z M20.6,16.9c0,0.6-0.2,1.2-0.5,1.7
		c-0.2,0.3-0.4,0.5-0.6,0.8c-0.6,0.5-1.3,0.8-2.1,0.8c0,0,0,0,0,0c0,0,0,0,0,0c-1.1,0-2.2-0.6-2.8-1.6c-0.3-0.5-0.5-1.1-0.5-1.7
		c0-0.2,0-0.4,0.1-0.7c0.3-1.5,1.6-2.6,3.2-2.6c0.2,0,0.4,0,0.6,0.1c0,0,0.1,0,0.1,0c0.2,0,0.3,0.1,0.5,0.1c0.1,0,0.1,0.1,0.2,0.1
		c0.1,0.1,0.2,0.1,0.3,0.2c0.1,0.1,0.2,0.1,0.3,0.2C20.1,14.9,20.6,15.8,20.6,16.9L20.6,16.9z"/>
	<path class="st0" d="M18.4,16.8l0.5-0.5c0.3-0.3,0.3-0.8,0-1.1c-0.3-0.3-0.8-0.3-1.1,0l-0.5,0.5l-0.5-0.5c-0.3-0.3-0.8-0.3-1.1,0
		c-0.3,0.3-0.3,0.8,0,1.1l0.5,0.5l-0.6,0.5c-0.3,0.3-0.3,0.8,0,1.1c0.1,0.1,0.3,0.2,0.5,0.2c0.2,0,0.4-0.1,0.5-0.2l0.6-0.6l0.5,0.5
		c0.1,0.1,0.3,0.2,0.5,0.2c0.2,0,0.4-0.1,0.5-0.2c0.3-0.3,0.3-0.8,0-1.1L18.4,16.8z"/>
</g>
</svg>
