<?xml version="1.0" encoding="utf-8"?>
<!-- Generator: Adobe Illustrator 26.0.1, SVG Export Plug-In . SVG Version: 6.00 Build 0)  -->
<svg version="1.1" id="Layer_1" xmlns="http://www.w3.org/2000/svg" xmlns:xlink="http://www.w3.org/1999/xlink" x="0px" y="0px"
	 viewBox="0 0 11.9 11.9" style="enable-background:new 0 0 11.9 11.9;" xml:space="preserve">
<style type="text/css">
	.st0{fill:#05396B;}
</style>
<path class="st0" d="M7,6l4.4-4.4c0.3-0.3,0.3-0.8,0-1.1s-0.8-0.3-1.1,0L6,4.9L1.6,0.5c-0.3-0.3-0.8-0.3-1.1,0s-0.3,0.8,0,1.1L4.9,6
	l-4.4,4.4c-0.3,0.3-0.3,0.8,0,1.1c0.1,0.1,0.3,0.2,0.5,0.2s0.4-0.1,0.5-0.2L6,7l4.4,4.4c0.1,0.1,0.3,0.2,0.5,0.2s0.4-0.1,0.5-0.2
	c0.3-0.3,0.3-0.8,0-1.1L7,6z"/>
</svg>
