<?xml version="1.0" encoding="utf-8"?>
<!-- Generator: Adobe Illustrator 26.0.1, SVG Export Plug-In . SVG Version: 6.00 Build 0)  -->
<svg version="1.1" id="Layer_1" xmlns="http://www.w3.org/2000/svg" xmlns:xlink="http://www.w3.org/1999/xlink" x="0px" y="0px"
	 viewBox="0 0 14.6 21.5" style="enable-background:new 0 0 14.6 21.5;" xml:space="preserve">
<style type="text/css">
	.st0{fill:#FFFFFF;}
</style>
<g id="Path_13421">
	<path class="st0" d="M10.5,21.5H4c-1.9,0-3.3-0.8-3.8-2.2c-0.5-1.4,0-3.2,1.3-4.4l4.6-4.2L1.5,6.5C0.2,5.3-0.3,3.6,0.2,2.2
		C0.8,0.8,2.2,0,4,0h6.5c1.9,0,3.3,0.8,3.8,2.2c0.5,1.4,0,3.2-1.3,4.4l-4.6,4.2l4.6,4.2c1.3,1.2,1.8,2.9,1.3,4.4
		C13.8,20.7,12.4,21.5,10.5,21.5z M7.3,11.8l-4.8,4.3c-0.8,0.8-1.2,1.9-0.9,2.7C1.9,19.6,2.8,20,4,20h6.5c1.3,0,2.1-0.4,2.4-1.2
		c0.3-0.8,0-2-0.9-2.7L7.3,11.8z M4,1.5c-1.3,0-2.1,0.4-2.4,1.2c-0.3,0.8,0,2,0.9,2.7l4.8,4.3L12,5.4c0.8-0.8,1.2-1.9,0.9-2.7
		c-0.3-0.8-1.2-1.2-2.4-1.2H4z"/>
</g>
</svg>
