<?xml version="1.0" encoding="utf-8"?>
<!-- Generator: Adobe Illustrator 26.0.1, SVG Export Plug-In . SVG Version: 6.00 Build 0)  -->
<svg version="1.1" id="Group_42" xmlns="http://www.w3.org/2000/svg" xmlns:xlink="http://www.w3.org/1999/xlink" x="0px" y="0px"
	 viewBox="0 0 24.1 26.3" style="enable-background:new 0 0 24.1 26.3;" xml:space="preserve">
<style type="text/css">
	.st0{fill:#0D2339;}
</style>
<path class="st0" d="M24.1,24.9l-5-5c0,0,0,0,0,0c2.3-2.1,3.7-5.1,3.7-8.5C22.9,5.1,17.7,0,11.4,0C5.1,0,0,5.1,0,11.4
	c0,6.3,5.1,11.4,11.4,11.4c2.2,0,4.3-0.6,6.1-1.8l5.2,5.2L24.1,24.9z M2,11.4C2,6.2,6.2,2,11.4,2c5.2,0,9.4,4.2,9.4,9.4
	c0,5.2-4.2,9.4-9.4,9.4C6.2,20.9,2,16.6,2,11.4z"/>
</svg>
