<?xml version="1.0" encoding="utf-8"?>
<!-- Generator: Adobe Illustrator 26.0.1, SVG Export Plug-In . SVG Version: 6.00 Build 0)  -->
<svg version="1.1" id="Layer_1" xmlns="http://www.w3.org/2000/svg" xmlns:xlink="http://www.w3.org/1999/xlink" x="0px" y="0px"
	 viewBox="0 0 21.5 21.5" style="enable-background:new 0 0 21.5 21.5;" xml:space="preserve">
<style type="text/css">
	.st0{fill:#FFFFFF;}
</style>
<g>
	<path class="st0" d="M14,5.7c0.1-0.6-0.1-1.3-0.5-1.8c-0.4-0.5-1-0.8-1.6-0.9c-0.2,0-0.4,0-0.5,0L7.2,3C6.6,2.9,5.9,3.1,5.4,3.5
		c-0.5,0.4-0.8,1-0.9,1.6c0,0.2,0,0.4,0,0.5l0,1.1C4.4,7.4,4.6,8.1,5,8.6c0.4,0.5,1,0.8,1.6,0.9c0.2,0,0.4,0,0.5,0l4.1,0
		c0.1,0,0.2,0,0.3,0c0.5,0,1.1-0.2,1.5-0.5c0.5-0.4,0.8-1,0.9-1.6c0-0.2,0-0.4,0-0.5L14,5.7z M12.5,7.2c0,0.3-0.2,0.5-0.4,0.6
		C12,8,11.7,8,11.4,8H7.1c0,0-0.1,0-0.1,0C7,8,6.9,8,6.8,8C6.6,8,6.3,7.8,6.2,7.6C6,7.4,6,7.2,6,6.9l0-1.3c0-0.1,0-0.2,0-0.2
		c0-0.3,0.2-0.5,0.4-0.6C6.5,4.6,6.7,4.5,7,4.5c0.1,0,0.1,0,0.2,0l4.3,0c0.1,0,0.2,0,0.2,0c0.3,0,0.5,0.2,0.6,0.4
		c0.2,0.2,0.2,0.4,0.2,0.8l0,1.3C12.5,7,12.5,7.1,12.5,7.2z"/>
	<path class="st0" d="M8.2,11h-3c-0.4,0-0.8,0.3-0.8,0.8s0.3,0.8,0.8,0.8h3c0.4,0,0.8-0.3,0.8-0.8S8.7,11,8.2,11z"/>
	<path class="st0" d="M21.1,8.1l-2-1c-0.4-0.2-0.8,0-1,0.3c-0.2,0.4,0,0.8,0.3,1L20,9.2V14l-3,0l0-10.2c0-0.2,0-0.4,0-0.5
		c-0.1-0.9-0.5-1.8-1.2-2.4c-0.7-0.6-1.6-0.9-2.5-0.9L5.3,0C5.1,0,5,0,4.8,0c-2,0.1-3.4,1.9-3.3,3.7V20H0.8C0.3,20,0,20.3,0,20.8
		s0.3,0.8,0.8,0.8h1.5h14h1.5c0.4,0,0.8-0.3,0.8-0.8S18.2,20,17.8,20H17l0-4.5l3.8,0c0.4,0,0.7-0.3,0.7-0.8v-6
		C21.5,8.5,21.3,8.2,21.1,8.1z M15.5,3.8V20H3L3,3.7C2.9,2.6,3.8,1.6,4.9,1.5c0.1,0,0.2,0,0.4,0l8.1,0c0.5,0,1.1,0.1,1.5,0.5
		c0.4,0.4,0.7,0.9,0.7,1.4C15.5,3.5,15.5,3.6,15.5,3.8z"/>
</g>
</svg>
