<?xml version="1.0" encoding="utf-8"?>
<!-- Generator: Adobe Illustrator 26.0.1, SVG Export Plug-In . SVG Version: 6.00 Build 0)  -->
<svg version="1.1" id="Layer_1" xmlns="http://www.w3.org/2000/svg" xmlns:xlink="http://www.w3.org/1999/xlink" x="0px" y="0px"
	 viewBox="0 0 21.5 20.6" style="enable-background:new 0 0 21.5 20.6;" xml:space="preserve">
<style type="text/css">
	.st0{fill:#05396B;}
</style>
<g>
	<path class="st0" d="M10.8,6.6C8.7,6.6,7,8.2,7,10.3s1.7,3.7,3.8,3.7c2.1,0,3.8-1.7,3.8-3.7S12.8,6.6,10.8,6.6z M10.8,12.6
		c-1.2,0-2.2-1-2.2-2.2s1-2.2,2.2-2.2s2.2,1,2.2,2.2S12,12.6,10.8,12.6z"/>
	<path class="st0" d="M18.9,6.8c-0.6,0-1-0.2-1.2-0.5c-0.2-0.3-0.1-0.8,0.2-1.3c0.7-1.3,0.3-2.9-1-3.6l-1.7-1
		c-1.1-0.7-2.6-0.3-3.3,0.9l-0.1,0.2c-0.3,0.5-0.7,0.8-1,0.8c0,0,0,0,0,0c-0.3,0-0.7-0.3-1-0.8L9.6,1.3C9,0.2,7.5-0.2,6.3,0.5
		l-1.7,1c-1.3,0.7-1.7,2.3-1,3.6C3.9,5.6,4,6,3.8,6.3S3.2,6.8,2.6,6.8C1.2,6.8,0,8,0,9.4v1.8c0,0,0,0,0,0c0,1.5,1.2,2.6,2.6,2.6
		c0.6,0,1,0.2,1.2,0.5s0.1,0.8-0.2,1.3c-0.7,1.3-0.3,2.9,1,3.6l1.7,1c1.1,0.7,2.6,0.3,3.3-0.9l0.1-0.2c0.3-0.5,0.7-0.8,1-0.8
		c0,0,0,0,0,0c0.3,0,0.7,0.3,1,0.8l0.1,0.2c0.4,0.8,1.3,1.2,2.1,1.2c0.4,0,0.8-0.1,1.2-0.3l1.7-1c1.3-0.7,1.7-2.3,1-3.6
		c-0.3-0.5-0.4-1-0.2-1.3c0.2-0.3,0.6-0.5,1.2-0.5c1.5,0,2.6-1.2,2.6-2.6V9.4C21.5,8,20.3,6.8,18.9,6.8z M20,11.2
		c0,0.6-0.5,1.1-1.1,1.2c-1.1,0-2,0.4-2.5,1.2c-0.4,0.8-0.4,1.8,0.2,2.8c0.3,0.5,0.1,1.3-0.4,1.6l-1.7,1c-0.4,0.3-1,0.1-1.3-0.3
		l-0.1-0.2c-0.6-1-1.4-1.6-2.3-1.6c0,0,0,0,0,0c-0.9,0-1.7,0.6-2.3,1.6l-0.1,0.2c-0.3,0.4-0.8,0.6-1.3,0.3l-1.7-1
		c-0.5-0.3-0.7-1-0.4-1.6c0.6-1,0.6-2,0.2-2.8s-1.4-1.2-2.5-1.2c-0.6,0-1.1-0.5-1.2-1.1V9.4c0-0.6,0.5-1.2,1.1-1.2
		c1.1,0,2-0.4,2.5-1.2c0.4-0.8,0.4-1.8-0.2-2.8C4.6,3.8,4.8,3.1,5.4,2.7l1.7-1c0.4-0.3,1-0.1,1.3,0.3l0.1,0.2c0.6,1,1.4,1.6,2.3,1.6
		c0,0,0,0,0,0c0.9,0,1.7-0.6,2.3-1.6l0.1-0.2c0.3-0.4,0.8-0.6,1.3-0.3l1.7,1c0.5,0.3,0.7,1,0.4,1.6c-0.6,1-0.6,2-0.2,2.8
		c0.4,0.8,1.4,1.2,2.5,1.2c0.6,0,1.1,0.5,1.2,1.1V11.2z"/>
</g>
</svg>
