<?xml version="1.0" encoding="utf-8"?>
<!-- Generator: Adobe Illustrator 26.0.1, SVG Export Plug-In . SVG Version: 6.00 Build 0)  -->
<svg version="1.1" id="Layer_1" xmlns="http://www.w3.org/2000/svg" xmlns:xlink="http://www.w3.org/1999/xlink" x="0px" y="0px"
	 viewBox="0 0 21.6 21.4" style="enable-background:new 0 0 21.6 21.4;" xml:space="preserve">
<style type="text/css">
	.st0{fill:#FFFFFF;}
</style>
<g>
	<path class="st0" d="M21,15l-3.5-3.5c0.6-1.1,1-2.4,1-3.8c0-3.9-2.8-7.1-6.6-7.7c-2-0.3-4.1,0.2-5.8,1.4c-1.7,1.2-2.8,3-3.1,5.1
		C2.9,8.3,3.2,10,4,11.5L0.5,15c-0.2,0.2-0.4,0.5-0.5,0.8c-0.2,0.9,0.4,1.9,1.3,2.1L3,18.3c0.1,0,0.2,0.1,0.2,0.2L3.5,20
		c0.1,0.4,0.3,0.7,0.6,0.9c0.3,0.3,0.7,0.4,1.1,0.4c0.1,0,0.1,0,0.2,0c0.5,0,0.9-0.3,1.2-0.6l4.2-4.8l4.2,4.8
		c0.2,0.3,0.6,0.5,0.9,0.6c0.9,0.2,1.9-0.4,2.1-1.3l0.4-1.5c0-0.1,0.1-0.2,0.2-0.2l1.7-0.4c0,0,0,0,0,0c0.3-0.1,0.6-0.2,0.8-0.4
		C21.7,16.8,21.7,15.7,21,15z M4.6,6.8c0.2-1.7,1.1-3.1,2.5-4.1c1.1-0.8,2.4-1.2,3.7-1.2c0.3,0,0.6,0,1,0.1C14.8,2,17,4.6,17,7.7
		c0,0,0,0,0,0c0,3.1-2.3,5.7-5.3,6.2c-0.6,0.1-1.2,0.1-1.9,0C6.4,13.4,4.1,10.2,4.6,6.8z M5.4,19.8c-0.1,0.1-0.1,0.1-0.2,0.1
		c0,0-0.1,0-0.2-0.1c0,0-0.1-0.1-0.1-0.1l-0.4-1.5C4.5,17.5,4,17,3.4,16.9l-1.7-0.4c-0.1,0-0.2-0.2-0.2-0.3c0,0,0-0.1,0.1-0.1
		l3.3-3.3c0.1,0.1,0.3,0.3,0.4,0.4c0.1,0.1,0.2,0.2,0.3,0.3c0.1,0.1,0.3,0.3,0.4,0.4c0.2,0.1,0.4,0.3,0.5,0.4
		c0.2,0.1,0.4,0.2,0.6,0.3c0.2,0.1,0.4,0.2,0.6,0.3c0.2,0.1,0.3,0.1,0.5,0.2c0.2,0.1,0.5,0.2,0.8,0.2c0.1,0,0.2,0.1,0.2,0.1
		L5.4,19.8z M20,16.4c0,0-0.1,0.1-0.1,0.1l-1.6,0.4c-0.6,0.1-1.2,0.7-1.3,1.3l-0.3,1.5c0,0.1-0.1,0.1-0.1,0.2c0,0-0.1,0.1-0.2,0
		c-0.1,0-0.1,0-0.1-0.1l-3.8-4.4c0.1,0,0.1,0,0.2-0.1c0.3-0.1,0.6-0.2,0.9-0.3c0.1,0,0.2-0.1,0.3-0.1c0.3-0.1,0.6-0.3,0.8-0.4
		c0.1-0.1,0.2-0.1,0.3-0.2c0.2-0.1,0.4-0.3,0.6-0.4c0.2-0.1,0.3-0.3,0.5-0.4c0.1-0.1,0.3-0.3,0.4-0.4c0.1-0.1,0.2-0.2,0.3-0.3
		l3.3,3.3C20.1,16.2,20.1,16.3,20,16.4z"/>
	<path class="st0" d="M8,8.8l-0.2,1c-0.2,1,0.2,1.4,0.4,1.6c0.2,0.2,0.8,0.4,1.7-0.1l0.9-0.6l0.9,0.6c0.4,0.2,0.7,0.3,0.9,0.3
		c0.3,0,0.6-0.1,0.7-0.2c0.2-0.2,0.7-0.6,0.4-1.6l-0.3-0.9l0.8-0.8c0.4-0.4,0.6-1,0.4-1.5c-0.2-0.5-0.6-0.8-1.2-0.9l-1-0.1L12,4.4
		c-0.3-0.6-0.7-0.9-1.3-0.9c-0.5,0-1,0.3-1.2,0.9L9,5.5L8,5.7c-0.6,0.1-1,0.4-1.2,0.9c-0.2,0.5,0,1,0.4,1.4L8,8.8z M9.3,7
		c0.4-0.1,0.8-0.4,1-0.7l0.5-1l0.5,1c0.2,0.4,0.6,0.6,1,0.7l0.9,0.1l-0.7,0.7c-0.3,0.3-0.4,0.8-0.3,1.3l0.2,0.8l-0.8-0.5
		c-0.4-0.2-0.9-0.2-1.4,0L9.3,9.9l0.2-0.8c0.1-0.4-0.1-0.9-0.4-1.3L8.4,7.1L9.3,7z"/>
</g>
</svg>
