<?xml version="1.0" encoding="utf-8"?>
<!-- Generator: Adobe Illustrator 26.0.1, SVG Export Plug-In . SVG Version: 6.00 Build 0)  -->
<svg version="1.1" id="Layer_1" xmlns="http://www.w3.org/2000/svg" xmlns:xlink="http://www.w3.org/1999/xlink" x="0px" y="0px"
	 viewBox="0 0 18.9 21.5" style="enable-background:new 0 0 18.9 21.5;" xml:space="preserve">
<style type="text/css">
	.st0{fill:#BBBFCF;}
</style>
<g>
	<path class="st0" d="M14.3,0C14.3,0,14.3,0,14.3,0H4.6C2.1,0,0,2.1,0,4.6v14.1c0,1.1,0.4,2,1.2,2.5C2,21.6,3,21.6,4,21l4.8-2.7
		c0.4-0.2,0.8-0.2,1.2,0l4.9,2.7c0.5,0.3,1.1,0.5,1.6,0.5c0.4,0,0.8-0.1,1.2-0.3c0.8-0.5,1.2-1.4,1.2-2.5V4.6
		C18.9,2.1,16.8,0,14.3,0z M17.4,18.7c0,0.6-0.2,1-0.5,1.2c-0.3,0.2-0.8,0.1-1.3-0.2L10.7,17c-0.4-0.2-0.8-0.3-1.3-0.3
		c-0.4,0-0.9,0.1-1.3,0.3l-4.9,2.7c-0.5,0.3-1,0.3-1.3,0.2c-0.3-0.2-0.5-0.6-0.5-1.2V4.6c0-1.7,1.4-3.1,3.1-3.1h9.6
		c1.7,0,3.1,1.4,3.1,3.1V18.7z"/>
	<path class="st0" d="M12,6.7l-3.5,3.5l-1-1c-0.3-0.3-0.8-0.3-1.1,0s-0.3,0.8,0,1.1L8,11.8C8.1,11.9,8.3,12,8.5,12s0.4-0.1,0.5-0.2
		l4-4c0.3-0.3,0.3-0.8,0-1.1S12.3,6.4,12,6.7z"/>
</g>
</svg>
