<?xml version="1.0" encoding="utf-8"?>
<!-- Generator: Adobe Illustrator 26.0.1, SVG Export Plug-In . SVG Version: 6.00 Build 0)  -->
<svg version="1.1" id="Layer_1" xmlns="http://www.w3.org/2000/svg" xmlns:xlink="http://www.w3.org/1999/xlink" x="0px" y="0px"
	 viewBox="0 0 18.8 21.5" style="enable-background:new 0 0 18.8 21.5;" xml:space="preserve">
<style type="text/css">
	.st0{fill:#FFFFFF;}
</style>
<g>
	<path class="st0" d="M9.4,5.2c-2.1,0-3.9,1.7-3.9,3.9s1.7,3.9,3.9,3.9c2.1,0,3.9-1.7,3.9-3.9S11.5,5.2,9.4,5.2z M9.4,11.4
		C8.1,11.4,7,10.4,7,9.1c0-1.3,1.1-2.4,2.4-2.4c1.3,0,2.4,1.1,2.4,2.4C11.8,10.4,10.7,11.4,9.4,11.4z"/>
	<path class="st0" d="M18.5,7.1C17.4,2.2,13.1,0,9.4,0c0,0,0,0,0,0c-3.7,0-8,2.2-9.1,7.1v0c-1.2,5.4,2,9.9,5,12.8
		c1.2,1.1,2.6,1.7,4.1,1.7c1.5,0,3-0.6,4.1-1.7C16.5,17,19.7,12.5,18.5,7.1z M12.5,18.8c-1.7,1.7-4.4,1.7-6.2,0
		c-2.7-2.6-5.6-6.6-4.6-11.3c1-4.4,4.7-5.9,7.6-5.9c0,0,0,0,0,0c2.9,0,6.7,1.6,7.6,5.9C18.1,12.1,15.1,16.2,12.5,18.8z"/>
</g>
</svg>
