<?xml version="1.0" encoding="utf-8"?>
<!-- Generator: Adobe Illustrator 26.0.1, SVG Export Plug-In . SVG Version: 6.00 Build 0)  -->
<svg version="1.1" id="Layer_1" xmlns="http://www.w3.org/2000/svg" xmlns:xlink="http://www.w3.org/1999/xlink" x="0px" y="0px"
	 viewBox="0 0 15.5 15.4" style="enable-background:new 0 0 15.5 15.4;" xml:space="preserve">
<style type="text/css">
	.st0{fill:#FFFFFF;}
</style>
<g id="Path_13597">
	<path class="st0" d="M11.7,15.4c-0.4,0-0.9-0.1-1.6-0.5l-2.1-1.2c-0.2-0.1-0.4-0.1-0.7,0l-2.1,1.2c-1.4,0.8-2.2,0.5-2.5,0.2
		c-0.4-0.3-0.9-1-0.6-2.5l0.5-2.2c0-0.2,0-0.4-0.2-0.6L0.8,8.1c-0.7-0.7-1-1.5-0.7-2.2S1,4.7,2,4.6l2.2-0.4c0.2,0,0.3-0.2,0.5-0.4
		l1.2-2.4C6.5,0.2,7.3,0,7.8,0c0,0,0,0,0,0C8.2,0,9,0.2,9.6,1.4l1.2,2.5C11,4,11.1,4.2,11.4,4.2l2.2,0.4c1,0.2,1.7,0.7,1.9,1.4
		c0.2,0.7,0,1.5-0.7,2.2L13,9.9c-0.1,0.1-0.2,0.4-0.2,0.6l0.5,2.1c0.4,1.5-0.2,2.2-0.6,2.5C12.5,15.2,12.2,15.4,11.7,15.4z
		 M7.8,12.1c0.4,0,0.7,0.1,1,0.2l2.1,1.3c0.6,0.3,0.9,0.3,0.9,0.3c0,0,0.2-0.3,0-0.9l-0.5-2.1c-0.1-0.7,0.1-1.4,0.5-1.9l1.8-1.8
		C13.9,6.8,14,6.5,14,6.4s-0.3-0.3-0.7-0.3l-2.2-0.4c-0.7-0.1-1.2-0.5-1.5-1.1L8.3,2.1c0,0,0,0,0,0C8.1,1.6,7.8,1.5,7.8,1.5l0,0
		c-0.1,0-0.3,0.1-0.5,0.6L6,4.5c-0.3,0.6-0.9,1-1.5,1.1L2.2,6.1C1.8,6.1,1.6,6.3,1.5,6.4c0,0.1,0.1,0.4,0.4,0.7l1.7,1.7
		c0.5,0.5,0.7,1.2,0.6,1.9l-0.5,2.2c-0.2,0.6,0,0.9,0,0.9c0,0,0.3,0.1,0.9-0.3l2.1-1.2C7,12.2,7.4,12.1,7.8,12.1z"/>
</g>
</svg>
