<?xml version="1.0" encoding="utf-8"?>
<!-- Generator: Adobe Illustrator 26.0.1, SVG Export Plug-In . SVG Version: 6.00 Build 0)  -->
<svg version="1.1" id="Layer_1" xmlns="http://www.w3.org/2000/svg" xmlns:xlink="http://www.w3.org/1999/xlink" x="0px" y="0px"
	 viewBox="0 0 14 13.9" style="enable-background:new 0 0 14 13.9;" xml:space="preserve">
<style type="text/css">
	.st0{fill:#FFFFFF;}
</style>
<path id="Path_13420" class="st0" d="M8.2,1l1.2,2.5c0.2,0.4,0.6,0.6,1,0.7l2.2,0.4c1.4,0.2,1.8,1.3,0.7,2.3l-1.7,1.7
	c-0.3,0.3-0.4,0.8-0.4,1.3l0.5,2.1c0.4,1.7-0.5,2.4-2,1.5l-2.1-1.2c-0.4-0.2-1-0.2-1.4,0l-2.1,1.2c-1.5,0.9-2.4,0.2-2-1.5l0.5-2.1
	C2.8,9.4,2.6,9,2.3,8.6L0.6,6.9c-1-1-0.7-2.1,0.7-2.3l2.2-0.4c0.4-0.1,0.8-0.4,1-0.7L5.8,1C6.5-0.3,7.5-0.3,8.2,1z"/>
</svg>
