<?xml version="1.0" encoding="utf-8"?>
<!-- Generator: Adobe Illustrator 26.0.1, SVG Export Plug-In . SVG Version: 6.00 Build 0)  -->
<svg version="1.1" id="Layer_1" xmlns="http://www.w3.org/2000/svg" xmlns:xlink="http://www.w3.org/1999/xlink" x="0px" y="0px"
	 viewBox="0 0 21.5 21.5" style="enable-background:new 0 0 21.5 21.5;" xml:space="preserve">
<style type="text/css">
	.st0{fill:#FFFFFF;}
</style>
<path class="st0" d="M21.4,10.4l-1.7-3c0,0,0,0,0,0l-1.7-3C17.5,3.5,16.6,3,15.6,3h-1.1V0.8c0-0.4-0.3-0.8-0.8-0.8h-9
	C2.1,0,0,2.1,0,4.8v8v3c0,2.1,1.7,3.8,3.8,3.8h0.4c0.3,1.2,1.4,2,2.6,2s2.3-0.8,2.6-2h2.7c0.3,1.2,1.4,2,2.6,2s2.3-0.8,2.6-2h0.4
	c2.1,0,3.8-1.7,3.8-3.8v-3v-2C21.5,10.6,21.5,10.5,21.4,10.4z M20,12h-2.2c-0.1,0-0.2-0.1-0.2-0.2v-3c0-0.1,0.1-0.2,0.2-0.2h0.9
	l1.4,2.4V12z M1.5,4.8C1.5,3,3,1.5,4.8,1.5H13v2.2v7c0,0.7-0.6,1.2-1.2,1.3H1.5V4.8z M6.8,20c-0.7,0-1.2-0.6-1.2-1.2
	s0.6-1.2,1.2-1.2S8,18.1,8,18.8S7.4,20,6.8,20z M14.8,20c-0.7,0-1.2-0.6-1.2-1.2s0.6-1.2,1.2-1.2s1.2,0.6,1.2,1.2S15.4,20,14.8,20z
	 M20,15.8c0,1.2-1,2.2-2.2,2.2h-0.4c0-0.1-0.1-0.1-0.1-0.2c0,0,0-0.1-0.1-0.1c-0.1-0.1-0.1-0.3-0.2-0.4c0,0,0,0,0-0.1
	c-0.1-0.1-0.2-0.3-0.3-0.4c0,0-0.1-0.1-0.1-0.1c-0.1-0.1-0.2-0.2-0.3-0.2c0,0-0.1-0.1-0.1-0.1c-0.1-0.1-0.2-0.1-0.3-0.2
	c-0.1,0-0.1-0.1-0.2-0.1c-0.1,0-0.2-0.1-0.3-0.1c-0.1,0-0.1,0-0.2,0c-0.2,0-0.3-0.1-0.5-0.1s-0.3,0-0.5,0.1c-0.1,0-0.1,0-0.2,0
	c-0.1,0-0.2,0.1-0.3,0.1c-0.1,0-0.1,0-0.2,0.1c-0.1,0-0.2,0.1-0.3,0.2c-0.1,0-0.1,0.1-0.1,0.1c-0.1,0.1-0.2,0.1-0.3,0.2
	c0,0-0.1,0.1-0.1,0.1c-0.1,0.1-0.2,0.2-0.3,0.4c0,0,0,0,0,0.1c-0.1,0.1-0.1,0.2-0.2,0.4c0,0,0,0.1-0.1,0.1c0,0.1-0.1,0.1-0.1,0.2
	H9.4c0-0.1-0.1-0.1-0.1-0.2c0-0.1,0-0.1-0.1-0.2c-0.1-0.1-0.1-0.3-0.2-0.4c0,0,0,0,0-0.1c-0.1-0.1-0.2-0.3-0.3-0.4
	c0,0-0.1-0.1-0.1-0.1c-0.1-0.1-0.2-0.2-0.3-0.2c0,0-0.1-0.1-0.2-0.1c-0.1-0.1-0.2-0.1-0.3-0.2c-0.1,0-0.1-0.1-0.2-0.1
	c-0.1,0-0.2-0.1-0.3-0.1c-0.1,0-0.1,0-0.2,0C7.1,16,6.9,16,6.8,16s-0.3,0-0.5,0.1c-0.1,0-0.1,0-0.2,0c-0.1,0-0.2,0.1-0.3,0.1
	c-0.1,0-0.1,0-0.2,0.1c-0.1,0-0.2,0.1-0.3,0.2c-0.1,0-0.1,0.1-0.2,0.1c-0.1,0.1-0.2,0.1-0.3,0.2c0,0-0.1,0.1-0.1,0.1
	c-0.1,0.1-0.2,0.2-0.3,0.4c0,0,0,0,0,0.1c-0.1,0.1-0.1,0.2-0.2,0.4c0,0.1,0,0.1-0.1,0.2c0,0.1-0.1,0.1-0.1,0.2H3.8
	c-1.2,0-2.2-1-2.2-2.2v-2.2h10.3c1.5,0,2.7-1.2,2.7-2.8V4.5h1.1c0.5,0,0.9,0.2,1.1,0.6L17.7,7c-0.1,0-0.1,0-0.2,0c0,0-0.1,0-0.1,0
	c-0.1,0-0.2,0-0.3,0.1c0,0,0,0-0.1,0c-0.1,0-0.2,0.1-0.3,0.1c0,0,0,0,0,0c-0.1,0.1-0.2,0.1-0.3,0.2c0,0,0,0,0,0
	c-0.2,0.2-0.3,0.3-0.4,0.5c0,0,0,0,0,0C16,8.3,16,8.5,16,8.8v3c0,1,0.8,1.8,1.8,1.8H20V15.8z"/>
</svg>
