<?xml version="1.0" encoding="utf-8"?>
<!-- Generator: Adobe Illustrator 26.0.1, SVG Export Plug-In . SVG Version: 6.00 Build 0)  -->
<svg version="1.1" id="Layer_1" xmlns="http://www.w3.org/2000/svg" xmlns:xlink="http://www.w3.org/1999/xlink" x="0px" y="0px"
	 viewBox="0 0 20 20" style="enable-background:new 0 0 20 20;" xml:space="preserve">
<style type="text/css">
	.st0{fill:#389583;}
</style>
<g>
	<path class="st0" d="M18.4,6.1l-4.5-4.5C12.7,0.5,11.2-0.1,9.6,0l-5,0.2c-2.4,0.1-4.3,2-4.4,4.4L0,9.6c-0.1,1.6,0.5,3.1,1.6,4.2h0
		l4.5,4.5c1.1,1.1,2.5,1.6,3.9,1.6s2.8-0.5,3.9-1.6l4.4-4.4C20.5,11.8,20.5,8.3,18.4,6.1z M17.3,12.9l-4.4,4.4
		c-1.6,1.6-4.1,1.6-5.7,0l-4.5-4.5c-0.8-0.8-1.2-1.9-1.2-3l0.2-5c0.1-1.6,1.4-2.9,3-3l5-0.2c1.1-0.1,2.2,0.4,3,1.2l4.5,4.5
		C18.9,8.8,18.9,11.3,17.3,12.9z"/>
	<path class="st0" d="M7.5,4.2c-1.8,0-3.2,1.5-3.2,3.2s1.5,3.2,3.2,3.2s3.2-1.5,3.2-3.2S9.3,4.2,7.5,4.2z M7.5,9.2
		c-1,0-1.8-0.8-1.8-1.8s0.8-1.8,1.8-1.8s1.8,0.8,1.8,1.8S8.5,9.2,7.5,9.2z"/>
	<path class="st0" d="M14.5,10.4l-4,4c-0.3,0.3-0.3,0.8,0,1.1c0.1,0.1,0.3,0.2,0.5,0.2s0.4-0.1,0.5-0.2l4-4c0.3-0.3,0.3-0.8,0-1.1
		S14.7,10.2,14.5,10.4z"/>
</g>
</svg>
