<?xml version="1.0" encoding="utf-8"?>
<!-- Generator: Adobe Illustrator 26.0.1, SVG Export Plug-In . SVG Version: 6.00 Build 0)  -->
<svg version="1.1" id="Layer_1" xmlns="http://www.w3.org/2000/svg" xmlns:xlink="http://www.w3.org/1999/xlink" x="0px" y="0px"
	 viewBox="0 0 19.8 18.8" style="enable-background:new 0 0 19.8 18.8;" xml:space="preserve">
<style type="text/css">
	.st0{fill:#05396B;}
</style>
<g>
	<path class="st0" d="M19.1,16.3h-10c-0.4,0-0.8,0.3-0.8,0.8s0.3,0.8,0.8,0.8h10c0.4,0,0.8-0.3,0.8-0.8S19.5,16.3,19.1,16.3z"/>
	<path class="st0" d="M19.1,9.3h-10c-0.4,0-0.8,0.3-0.8,0.8s0.3,0.8,0.8,0.8h10c0.4,0,0.8-0.3,0.8-0.8S19.5,9.3,19.1,9.3z"/>
	<path class="st0" d="M9.1,3.8h10c0.4,0,0.8-0.3,0.8-0.8s-0.3-0.8-0.8-0.8h-10c-0.4,0-0.8,0.3-0.8,0.8S8.6,3.8,9.1,3.8z"/>
	<path class="st0" d="M4.5,0.5L2.9,2.1L1.8,2.7L1.6,2.5c-0.3-0.3-0.8-0.3-1.1,0s-0.3,0.8,0,1.1l1,1c0.1,0.1,0.3,0.2,0.5,0.2
		s0.4-0.1,0.5-0.2l3-3c0.3-0.3,0.3-0.8,0-1.1S4.8,0.2,4.5,0.5z"/>
	<path class="st0" d="M4.5,7.5L2.9,9.1L1.8,9.7L1.6,9.5c-0.3-0.3-0.8-0.3-1.1,0s-0.3,0.8,0,1.1l1,1c0.1,0.1,0.3,0.2,0.5,0.2
		s0.4-0.1,0.5-0.2l3-3c0.3-0.3,0.3-0.8,0-1.1S4.8,7.2,4.5,7.5z"/>
	<path class="st0" d="M4.5,14.5l-1.6,1.6l-1.2,0.6l-0.2-0.2c-0.3-0.3-0.8-0.3-1.1,0s-0.3,0.8,0,1.1l1,1c0.1,0.1,0.3,0.2,0.5,0.2
		s0.4-0.1,0.5-0.2l3-3c0.3-0.3,0.3-0.8,0-1.1S4.8,14.2,4.5,14.5z"/>
</g>
</svg>
