<?xml version="1.0" encoding="utf-8"?>
<!-- Generator: Adobe Illustrator 26.0.1, SVG Export Plug-In . SVG Version: 6.00 Build 0)  -->
<svg version="1.1" id="Layer_1" xmlns="http://www.w3.org/2000/svg" xmlns:xlink="http://www.w3.org/1999/xlink" x="0px" y="0px"
	 viewBox="0 0 21.5 21.5" style="enable-background:new 0 0 21.5 21.5;" xml:space="preserve">
<style type="text/css">
	.st0{fill:#BBBFCF;}
</style>
<g>
	<path class="st0" d="M10.8,0C4.8,0,0,4.8,0,10.8c0,5.9,4.8,10.7,10.7,10.7c0,0,0,0,0,0c5.9,0,10.8-4.8,10.8-10.8S16.7,0,10.8,0z
		 M10.8,20c-5.1,0-9.2-4.2-9.3-9.2c0-5.1,4.1-9.2,9.2-9.2S20,5.6,20,10.8C20,15.8,15.9,20,10.8,20z"/>
	<path class="st0" d="M14.5,7.4l-5.1,5.1L7,10.2c-0.3-0.3-0.8-0.3-1.1,0S5.7,11,6,11.3l2.8,2.8c0.1,0.1,0.3,0.2,0.5,0.2
		s0.4-0.1,0.5-0.2l5.7-5.7c0.3-0.3,0.3-0.8,0-1.1C15.2,7.1,14.8,7.1,14.5,7.4z"/>
</g>
</svg>
