<?xml version="1.0" encoding="utf-8"?>
<!-- Generator: Adobe Illustrator 26.0.1, SVG Export Plug-In . SVG Version: 6.00 Build 0)  -->
<svg version="1.1" id="Layer_1" xmlns="http://www.w3.org/2000/svg" xmlns:xlink="http://www.w3.org/1999/xlink" x="0px" y="0px"
	 viewBox="0 0 17.5 17.5" style="enable-background:new 0 0 17.5 17.5;" xml:space="preserve">
<style type="text/css">
	.st0{fill:#292D32;}
</style>
<g>
	<path class="st0" d="M12,0H5.5C1.9,0,0,1.9,0,5.5V16c0,0.9,0.7,1.5,1.5,1.5H12c3.6,0,5.5-1.9,5.5-5.5V5.5C17.5,1.9,15.6,0,12,0z
		 M16,12c0,2.8-1.2,4-4,4L1.5,16V5.5c0-2.8,1.2-4,4-4H12c2.8,0,4,1.2,4,4V12z"/>
	<path class="st0" d="M12.6,4.9c-0.8-1-2.2-1.2-3.2-0.5C9.2,4.6,9.1,4.7,8.9,4.9L4.8,9.1c-0.3,0.3-0.5,0.7-0.5,1.1L4,11.7
		c-0.2,0.8,0.3,1.6,1.1,1.8c0.1,0,0.2,0,0.3,0c0.1,0,0.2,0,0.3,0l1.6-0.2c0.4-0.1,0.8-0.3,1.1-0.6l4.1-4.1c0.5-0.4,0.8-0.9,0.9-1.5
		c0.1-0.6,0-1.2-0.4-1.8C12.9,5.2,12.8,5,12.6,4.9z M10.1,5.9c0.1-0.1,0.1-0.1,0.2-0.2c0.1-0.1,0.3-0.2,0.5-0.2
		c0.3,0,0.5,0.1,0.7,0.4c0,0.1,0.1,0.1,0.2,0.2c0.1,0.1,0.1,0.1,0.2,0.2c0.3,0.4,0.2,0.9-0.2,1.2c0,0-0.1,0-0.1,0.1l-0.2,0.2
		c-0.7-0.3-1.3-0.9-1.6-1.5L10.1,5.9C10,5.9,10.1,5.9,10.1,5.9z M7.4,11.6c-0.1,0.1-0.2,0.1-0.3,0.2L5.5,12l0.2-1.5
		c0-0.1,0.1-0.2,0.1-0.3l2.8-2.8C9,8,9.6,8.5,10.2,8.9L7.4,11.6z"/>
</g>
</svg>
