<?xml version="1.0" encoding="utf-8"?>
<!-- Generator: Adobe Illustrator 26.0.1, SVG Export Plug-In . SVG Version: 6.00 Build 0)  -->
<svg version="1.1" id="Layer_1" xmlns="http://www.w3.org/2000/svg" xmlns:xlink="http://www.w3.org/1999/xlink" x="0px" y="0px"
	 viewBox="0 0 17.9 19.1" style="enable-background:new 0 0 17.9 19.1;" xml:space="preserve">
<style type="text/css">
	.st0{fill:#EC1E24;}
</style>
<g>
	<path class="st0" d="M13.6,7.4c0-2.6-2.1-4.6-4.6-4.6c-2.6,0-4.6,2.1-4.6,4.6s2.1,4.6,4.6,4.6C11.5,12.1,13.6,10,13.6,7.4z M9,10.6
		c-1.7,0-3.1-1.4-3.1-3.1S7.2,4.3,9,4.3c1.7,0,3.1,1.4,3.1,3.1S10.7,10.6,9,10.6z"/>
	<path class="st0" d="M9.1,13c-4,0-7.2,2.4-7.2,5.3v0.8h14.5v-0.8C16.4,15.4,13.1,13,9.1,13z M3.5,17.6c0.5-1.7,2.9-3,5.6-3
		c2.8,0,5.1,1.3,5.6,3H3.5z"/>
	<path class="st0" d="M15.9,4.3C14.7,1.7,12.1,0,9.2,0C6.3,0,3.6,1.7,2.4,4.3H2.1C0.9,4.3,0,5.3,0,6.4v1.9c0,1,0.7,1.8,1.6,2v1.1
		c0,0.8,0.7,1.5,1.5,1.5h1.6c0.4,0,0.8-0.3,0.8-0.8s-0.3-0.8-0.8-0.8l-1.6,0v-1h0.2c0.5,0,0.9-0.4,0.9-0.9V5.2
		c0-0.2-0.1-0.4-0.2-0.6c1-1.9,3-3.2,5.2-3.2c2.1,0,4.1,1.1,5.1,2.9c-0.3,0.1-0.5,0.4-0.5,0.8v4.3c0,0.5,0.4,0.9,0.9,0.9h1.2
		c1.1,0,2.1-0.9,2.1-2.1V6.4C17.9,5.3,17.1,4.4,15.9,4.3z M1.5,6.4c0-0.3,0.3-0.6,0.6-0.6h0.6v3.1H2.1c-0.3,0-0.6-0.3-0.6-0.6V6.4z
		 M16.4,8.4c0,0.3-0.3,0.6-0.6,0.6h-0.6V5.8h0.6c0.3,0,0.6,0.3,0.6,0.6V8.4z"/>
</g>
</svg>
