<?xml version="1.0" encoding="utf-8"?>
<!-- Generator: Adobe Illustrator 26.0.1, SVG Export Plug-In . SVG Version: 6.00 Build 0)  -->
<svg version="1.1" id="Layer_1" xmlns="http://www.w3.org/2000/svg" xmlns:xlink="http://www.w3.org/1999/xlink" x="0px" y="0px"
	 viewBox="0 0 19.7 20.6" style="enable-background:new 0 0 19.7 20.6;" xml:space="preserve">
<path d="M18.5,16.8c0.6-0.6,1-1.4,1-2.3c0-0.4-0.3-0.8-0.7-0.8c-0.4,0-0.8,0.3-0.8,0.7c0,0.5-0.2,0.9-0.6,1.2l-2.3-2.3l2.5-1.1
	c1.1-0.5,1.7-1.6,1.8-2.8c0-0.4-0.3-0.8-0.7-0.8C18.4,8.7,18,9,18,9.4c0,0.6-0.4,1.2-1,1.5l-3,1.3l-2.4-2.4L17,7.4
	c1.5-0.7,1.7-1.6,1.7-2.1c0-0.5-0.2-1.4-1.7-2.1l-5.9-2.6c0,0,0,0,0,0c-1-0.4-2-0.4-3,0L4.2,2.4L2.3,0.5C2,0.2,1.5,0.2,1.2,0.5
	s-0.3,0.8,0,1.1l1.5,1.5L2.1,3.3C0.6,4,0.4,4.9,0.4,5.4c0,0.5,0.2,1.4,1.7,2.1l5.9,2.6c0.5,0.2,1,0.3,1.5,0.3c0.1,0,0.3,0,0.4,0
	l2.6,2.6l-2.3,1c-0.3,0.1-0.7,0.1-1,0l-6.8-3c-0.6-0.3-1-0.9-1-1.5c0-0.4-0.4-0.7-0.8-0.7C0.3,8.7,0,9.1,0,9.5
	c0.1,1.2,0.8,2.2,1.8,2.8l6.8,3c0.4,0.2,0.7,0.2,1.1,0.2s0.8-0.1,1.1-0.2l2.8-1.3l2.3,2.3L10.3,19c-0.3,0.1-0.7,0.1-1,0l-6.8-3
	c-0.6-0.3-1-0.8-1-1.5c0-0.4-0.3-0.7-0.8-0.7c0,0,0,0,0,0c-0.4,0-0.7,0.3-0.7,0.8c0,1.2,0.7,2.3,1.8,2.8l6.8,3
	c0.4,0.2,0.7,0.2,1.1,0.2s0.8-0.1,1.1-0.2l6.3-2.8l1,1c0.1,0.1,0.3,0.2,0.5,0.2s0.4-0.1,0.5-0.2c0.3-0.3,0.3-0.8,0-1.1L18.5,16.8z
	 M8.6,2.1c0.3-0.1,0.6-0.2,1-0.2c0.3,0,0.6,0.1,0.9,0.2l5.9,2.6C17,5,17.2,5.3,17.2,5.4c0,0.1-0.2,0.4-0.8,0.7l-5.9,2.6
	c0,0,0,0-0.1,0L5.3,3.6L8.6,2.1z M2.7,6.1C2.1,5.8,1.9,5.5,1.9,5.4c0-0.1,0.2-0.4,0.8-0.7l1.1-0.5l4.2,4.2L2.7,6.1z"/>
</svg>
