<?xml version="1.0" encoding="utf-8"?>
<!-- Generator: Adobe Illustrator 26.0.1, SVG Export Plug-In . SVG Version: 6.00 Build 0)  -->
<svg version="1.1" id="Layer_1" xmlns="http://www.w3.org/2000/svg" xmlns:xlink="http://www.w3.org/1999/xlink" x="0px" y="0px"
	 viewBox="0 0 14.8 21.3" style="enable-background:new 0 0 14.8 21.3;" xml:space="preserve">
<style type="text/css">
	.st0{fill:#FFFFFF;}
</style>
<g>
	<path class="st0" d="M14.1,17.5h-1.2v-1.2c0-0.4-0.3-0.8-0.8-0.8s-0.8,0.3-0.8,0.8v1.2h-1.2c-0.4,0-0.8,0.3-0.8,0.8S9.7,19,10.1,19
		h1.2v1.2c0,0.4,0.3,0.8,0.8,0.8s0.8-0.3,0.8-0.8V19h1.2c0.4,0,0.8-0.3,0.8-0.8S14.5,17.5,14.1,17.5z"/>
	<path class="st0" d="M7.5,10.4c0.1,0,0.1,0,0.2,0c0,0,0,0,0.1,0c0,0,0,0,0,0c2.7-0.1,4.9-2.3,5-5c0.1-1.4-0.4-2.7-1.4-3.7
		S9.2,0.1,7.8,0C6.4,0,5.1,0.4,4.1,1.4C3,2.3,2.5,3.6,2.4,5C2.3,7.9,4.5,10.3,7.5,10.4z M5.1,2.5c0.7-0.6,1.6-1,2.5-1
		c0,0,0.1,0,0.1,0c1,0,1.9,0.5,2.6,1.2c0.7,0.7,1,1.7,1,2.6c-0.1,1.9-1.6,3.5-3.5,3.5c-0.1,0-0.3,0-0.3,0c-2-0.1-3.6-1.8-3.5-3.8
		C3.9,4.1,4.4,3.2,5.1,2.5z"/>
	<path class="st0" d="M7.6,19.8c-1.6,0-3.2-0.4-4.6-1.3c-1-0.6-1.5-1.5-1.5-2.3c0-0.9,0.5-1.7,1.4-2.3c2.8-1.7,6.4-1.7,9.2,0
		c0.4,0.2,0.8,0.1,1-0.3c0.2-0.4,0.1-0.8-0.3-1c-3.3-2-7.5-2-10.8,0C0.8,13.6,0,14.9,0,16.2c0,1.4,0.8,2.6,2.2,3.6
		c1.6,1,3.4,1.5,5.2,1.5c0.1,0,0.1,0,0.2,0c0.4,0,0.7-0.4,0.7-0.8S8,19.8,7.6,19.8z"/>
</g>
</svg>
