<?xml version="1.0" encoding="utf-8"?>
<!-- Generator: Adobe Illustrator 26.0.1, SVG Export Plug-In . SVG Version: 6.00 Build 0)  -->
<svg version="1.1" id="Layer_1" xmlns="http://www.w3.org/2000/svg" xmlns:xlink="http://www.w3.org/1999/xlink" x="0px" y="0px"
	 viewBox="0 0 12.5 17.6" style="enable-background:new 0 0 12.5 17.6;" xml:space="preserve">
<style type="text/css">
	.st0{fill:#FFFFFF;}
</style>
<g>
	<path class="st0" d="M6,8.7C6,8.7,6,8.7,6,8.7c0.1,0,0.1,0,0.2,0s0,0,0.1,0c0,0,0.1,0,0.1,0h0c2.3-0.1,4.1-1.9,4.2-4.2
		C10.6,2.1,8.7,0.1,6.3,0S1.9,1.8,1.8,4.2C1.7,6.6,3.6,8.6,6,8.7z M6.1,1.5c1.5,0,2.8,1.2,2.9,2.7c0.1,1.6-1.1,2.9-2.7,3
		c-0.1,0-0.2,0-0.3,0C4.5,7.1,3.3,5.9,3.3,4.4C3.3,2.8,4.6,1.5,6.1,1.5z"/>
	<path class="st0" d="M10.7,10.3C9.4,9.5,7.9,9,6.3,9.1c-1.6,0-3.1,0.4-4.5,1.2c-0.6,0.3-1.1,0.8-1.4,1.4c-0.9,1.7-0.3,3.7,1.4,4.6
		c1.3,0.8,2.9,1.3,4.5,1.2c1.6,0,3.1-0.4,4.5-1.2c0.6-0.3,1.1-0.8,1.4-1.4C13,13.3,12.4,11.2,10.7,10.3z M9.9,15.1
		c-1.1,0.7-2.4,1-3.6,1c-1.3,0-2.5-0.3-3.6-1c-0.4-0.2-0.8-0.5-1-1c-0.4-1,0-2.1,1-2.5c1.1-0.7,2.4-1,3.6-1c1.3,0,2.5,0.3,3.6,1
		c0.4,0.2,0.8,0.5,1,1C11.3,13.5,10.9,14.6,9.9,15.1z"/>
</g>
</svg>
