<?xml version="1.0" encoding="utf-8"?>
<!-- Generator: Adobe Illustrator 26.0.1, SVG Export Plug-In . SVG Version: 6.00 Build 0)  -->
<svg version="1.1" id="Layer_1" xmlns="http://www.w3.org/2000/svg" xmlns:xlink="http://www.w3.org/1999/xlink" x="0px" y="0px"
	 viewBox="0 0 19 21.5" style="enable-background:new 0 0 19 21.5;" xml:space="preserve">
<style type="text/css">
	.st0{fill:#05396B;}
</style>
<g>
	<path class="st0" d="M9.5,6C9.1,6,8.8,6.3,8.8,6.8v5c0,0.4,0.3,0.8,0.8,0.8s0.8-0.3,0.8-0.8v-5C10.2,6.3,9.9,6,9.5,6z"/>
	<path class="st0" d="M9.5,2.5C4.3,2.5,0,6.8,0,12s4.3,9.5,9.5,9.5c0.4,0,0.8-0.3,0.8-0.8S9.9,20,9.5,20c-4.4,0-8-3.6-8-8s3.6-8,8-8
		s8,3.6,8,8c0,0.4,0.3,0.8,0.8,0.8S19,12.4,19,12C19,6.8,14.7,2.5,9.5,2.5z"/>
	<path class="st0" d="M6.5,1.5h6c0.4,0,0.8-0.3,0.8-0.8S12.9,0,12.5,0h-6C6.1,0,5.8,0.3,5.8,0.8S6.1,1.5,6.5,1.5z"/>
	<path class="st0" d="M17,15.3L15,14.1c-0.8-0.5-1.7-0.5-2.3-0.2c-0.7,0.4-1,1.1-1,2.1v2.3c0,1,0.4,1.7,1,2.1c0.3,0.2,0.6,0.2,1,0.2
		c0.4,0,0.9-0.1,1.4-0.4l1.9-1.1c0.6-0.2,1-0.7,1.2-1.3c0.2-0.5,0.2-1.1-0.1-1.6C17.9,15.8,17.5,15.5,17,15.3z M16.8,17.5
		c-0.1,0.2-0.2,0.3-0.4,0.4c0,0-0.1,0-0.1,0.1l-2,1.2c-0.3,0.2-0.7,0.3-0.8,0.2c-0.2-0.1-0.3-0.4-0.3-0.8v-2.3
		c0-0.4,0.1-0.7,0.3-0.8c0.1,0,0.1-0.1,0.2-0.1c0.2,0,0.4,0.1,0.6,0.2l2,1.2c0,0,0.1,0,0.1,0.1c0.2,0.1,0.3,0.2,0.4,0.3
		C16.8,17.1,16.9,17.3,16.8,17.5z"/>
</g>
</svg>
