<?xml version="1.0" encoding="utf-8"?>
<!-- Generator: Adobe Illustrator 26.0.1, SVG Export Plug-In . SVG Version: 6.00 Build 0)  -->
<svg version="1.1" id="Layer_1" xmlns="http://www.w3.org/2000/svg" xmlns:xlink="http://www.w3.org/1999/xlink" x="0px" y="0px"
	 viewBox="0 0 19.6 21.7" style="enable-background:new 0 0 19.6 21.7;" xml:space="preserve">
<style type="text/css">
	.st0{fill:#FFFFFF;}
</style>
<path class="st0" d="M19.3,3.6l-1.8-2.7c-0.6-0.9-1.8-1.2-2.8-0.5L9,4.1C8.9,4.2,8.7,4.4,8.7,4.6c0,0.1,0,0.3,0,0.4L4.6,7.8
	C4.4,7.9,4.3,8.1,4.3,8.3c0,0,0,0,0,0.1l-3.5,2.3C0.4,11,0.1,11.3,0,11.8c-0.1,0.5,0,0.9,0.3,1.3l1.1,1.7c0.3,0.5,0.9,0.8,1.5,0.8
	c0.3,0,0.7-0.1,1-0.3c0,0,0,0,0,0l3.5-2.3C7.4,13,7.5,13,7.6,13c0.1,0,0.3,0,0.4-0.1l-3.5,7.5c-0.2,0.4,0,0.8,0.4,1
	c0.1,0,0.2,0.1,0.3,0.1c0.3,0,0.6-0.2,0.7-0.4l3.8-8.2l3.7,8.2c0.1,0.3,0.4,0.4,0.7,0.4c0.1,0,0.2,0,0.3-0.1c0.4-0.2,0.5-0.6,0.4-1
	l-4.2-9.3l1.6-1.1c0.1,0.1,0.3,0.2,0.5,0.2c0.1,0,0.3,0,0.4-0.1l5.7-3.8C19.6,5.7,19.9,4.5,19.3,3.6z M9.6,6.3l1.7,2.6l-3.5,2.4
	L6,8.6L9.6,6.3z M3,14c-0.1,0.1-0.3,0-0.3-0.1l-1.1-1.7c-0.1-0.1,0-0.1,0-0.2s0-0.1,0.1-0.2l3.3-2.2l1.4,2.1L3,14z M17.9,5.1l-5,3.4
	l-2.4-3.5l5-3.4c0.2-0.2,0.5-0.1,0.7,0.1L18,4.4C18.2,4.7,18.1,5,17.9,5.1z"/>
</svg>
