<?xml version="1.0" encoding="utf-8"?>
<!-- Generator: Adobe Illustrator 26.0.1, SVG Export Plug-In . SVG Version: 6.00 Build 0)  -->
<svg version="1.1" id="Layer_1" xmlns="http://www.w3.org/2000/svg" xmlns:xlink="http://www.w3.org/1999/xlink" x="0px" y="0px"
	 viewBox="0 0 21.5 21.5" style="enable-background:new 0 0 21.5 21.5;" xml:space="preserve">
<style type="text/css">
	.st0{fill:#292D32;}
</style>
<path class="st0" d="M10.8,0C4.8,0,0,4.8,0,10.8s4.8,10.8,10.8,10.8s10.8-4.8,10.8-10.8S16.7,0,10.8,0z M19.5,13
	c-1.2,0.4-2.5,0.7-3.8,0.9c0.2-2.1,0.2-4.3,0-6.5c1.3,0.2,2.5,0.5,3.8,0.9c0.1,0,0.1,0,0.2,0C19.9,9.2,20,10,20,10.8
	c0,0.8-0.1,1.5-0.3,2.3C19.6,13,19.6,13,19.5,13z M1.8,13c-0.2-0.7-0.3-1.5-0.3-2.3c0-0.8,0.1-1.5,0.3-2.3c0.1,0,0.1,0,0.2,0
	c1.2-0.4,2.5-0.7,3.8-0.9c-0.2,2.1-0.2,4.3,0,6.5C4.5,13.8,3.2,13.4,2,13C1.9,13,1.9,13,1.8,13z M7.3,7.3c2.3-0.3,4.6-0.3,6.9,0
	c0.3,2.3,0.3,4.6,0,6.9c-2.3,0.3-4.6,0.3-6.9,0C7,11.9,7,9.6,7.3,7.3z M19.1,6.8c-1.2-0.3-2.3-0.6-3.5-0.8c-0.2-1.2-0.5-2.4-0.8-3.5
	C16.6,3.3,18.2,4.9,19.1,6.8z M13,1.8c0,0.1,0,0.1,0,0.2c0.4,1.2,0.7,2.5,0.9,3.8c-2.1-0.2-4.3-0.2-6.5,0C7.7,4.5,8.1,3.2,8.5,2
	c0-0.1,0-0.1,0-0.2c0.7-0.2,1.5-0.3,2.3-0.3C11.5,1.5,12.3,1.6,13,1.8z M6.6,2.5C6.7,2.5,6.7,2.5,6.6,2.5C6.4,3.6,6.1,4.8,6,5.9
	C4.8,6.1,3.6,6.4,2.4,6.8C3.3,4.9,4.8,3.4,6.6,2.5z M2.5,14.9C2.5,14.8,2.5,14.8,2.5,14.9c1.2,0.2,2.3,0.5,3.5,0.7
	c0.2,1.2,0.4,2.3,0.8,3.5c0,0-0.1,0-0.1,0C4.8,18.1,3.4,16.7,2.5,14.9z M8.5,19.7c0-0.1,0-0.1,0-0.2c-0.4-1.2-0.7-2.5-0.9-3.8
	c1.1,0.1,2.2,0.2,3.2,0.2c1.1,0,2.2-0.1,3.2-0.2c-0.2,1.3-0.5,2.5-0.9,3.8c0,0.1,0,0.1,0,0.2c-0.7,0.2-1.5,0.3-2.3,0.3
	C10,20,9.2,19.9,8.5,19.7z M14.7,19.1c0.3-1.2,0.6-2.4,0.8-3.5c1.2-0.2,2.3-0.4,3.4-0.8c0,0,0,0.1,0,0.1
	C18.1,16.7,16.6,18.2,14.7,19.1z"/>
</svg>
