<?xml version="1.0" encoding="utf-8"?>
<!-- Generator: Adobe Illustrator 26.0.1, SVG Export Plug-In . SVG Version: 6.00 Build 0)  -->
<svg version="1.1" id="Layer_1" xmlns="http://www.w3.org/2000/svg" xmlns:xlink="http://www.w3.org/1999/xlink" x="0px" y="0px"
	 viewBox="0 0 21.5 22.1" style="enable-background:new 0 0 21.5 22.1;" xml:space="preserve">
<style type="text/css">
	.st0{fill:#FFFFFF;}
</style>
<g>
	<path class="st0" d="M18.5,14.4V5.6c0-1.5-1.2-2.7-2.8-2.7h-3.9l1.4-1.2c0.3-0.3,0.4-0.7,0.1-1.1c-0.3-0.3-0.7-0.4-1.1-0.1L9.3,3
		C9.1,3.1,9,3.3,9,3.6S9.1,4,9.3,4.1l3,2.5c0.1,0.1,0.3,0.2,0.5,0.2c0.2,0,0.4-0.1,0.6-0.3c0.3-0.3,0.2-0.8-0.1-1.1l-1.4-1.2h3.9
		c0.7,0,1.2,0.6,1.3,1.2v8.8c-1.7,0.3-3,1.9-3,3.7c0,2.1,1.7,3.8,3.8,3.8s3.8-1.7,3.8-3.8C21.5,16.2,20.2,14.7,18.5,14.4z
		 M17.8,20.3c-1.2,0-2.2-1-2.2-2.2s1-2.2,2.2-2.2s2.2,1,2.2,2.2S19,20.3,17.8,20.3z"/>
	<path class="st0" d="M9.2,15.5c-0.3-0.3-0.8-0.2-1.1,0.1c-0.3,0.3-0.2,0.8,0.1,1.1l1.4,1.2H5.8c-0.7,0-1.2-0.6-1.3-1.2V7.7
		c1.7-0.3,3-1.9,3-3.7c0-2.1-1.7-3.8-3.8-3.8S0,2,0,4.1c0,1.8,1.3,3.3,3,3.7v8.8c0,1.5,1.2,2.7,2.8,2.7h3.9l-1.4,1.2
		c-0.3,0.3-0.4,0.7-0.1,1.1c0.1,0.2,0.4,0.3,0.6,0.3c0.2,0,0.3-0.1,0.5-0.2l3-2.5c0.2-0.1,0.3-0.4,0.3-0.6s-0.1-0.4-0.3-0.6
		L9.2,15.5z M1.5,4.1c0-1.2,1-2.2,2.2-2.2S6,2.8,6,4.1S5,6.3,3.8,6.3S1.5,5.3,1.5,4.1z"/>
</g>
</svg>
