<?xml version="1.0" encoding="utf-8"?>
<!-- Generator: Adobe Illustrator 26.0.1, SVG Export Plug-In . SVG Version: 6.00 Build 0)  -->
<svg version="1.1" id="Layer_1" xmlns="http://www.w3.org/2000/svg" xmlns:xlink="http://www.w3.org/1999/xlink" x="0px" y="0px"
	 viewBox="0 0 21.5 21.5" style="enable-background:new 0 0 21.5 21.5;" xml:space="preserve">
<style type="text/css">
	.st0{fill:#FFFFFF;}
</style>
<g>
	<path class="st0" d="M9.2,13.2c-0.3-0.3-0.8-0.2-1.1,0.1c-0.3,0.3-0.2,0.8,0.1,1.1l0.2,0.2H7.3c-0.1,0-0.2-0.1-0.2-0.2V9
		c1-0.3,1.8-1.3,1.8-2.4C8.9,5.1,7.7,4,6.3,4C4.9,4,3.8,5.1,3.8,6.5c0,1.1,0.8,2.1,1.8,2.4v5.3c0,1,0.8,1.8,1.8,1.8h1.1l-0.2,0.2
		c-0.3,0.3-0.4,0.7-0.1,1.1c0.1,0.2,0.4,0.3,0.6,0.3c0.2,0,0.3-0.1,0.5-0.2l1.8-1.5c0.2-0.1,0.3-0.4,0.3-0.6s-0.1-0.4-0.3-0.6
		L9.2,13.2z M6.3,5.5c0.6,0,1.1,0.5,1.1,1S6.9,7.6,6.3,7.6s-1-0.5-1-1.1S5.7,5.5,6.3,5.5z"/>
	<path class="st0" d="M17.8,6.5c0-1.4-1.1-2.5-2.5-2.5s-2.5,1.1-2.5,2.5c0,1.1,0.8,2.1,1.8,2.4v3.2c-1.2,0.3-2.1,1.3-2.1,2.6
		c0,1.5,1.2,2.7,2.7,2.7s2.7-1.2,2.7-2.7c0-1.2-0.8-2.2-1.8-2.5V9C17,8.7,17.8,7.7,17.8,6.5z M15.2,5.5c0.6,0,1,0.5,1,1
		s-0.5,1.1-1,1.1s-1-0.5-1-1.1S14.6,5.5,15.2,5.5z M15,16c-0.7,0-1.2-0.5-1.2-1.2s0.5-1.2,1.2-1.2s1.2,0.5,1.2,1.2S15.7,16,15,16z"
		/>
	<path class="st0" d="M13.8,0h-6C2.3,0,0,2.3,0,7.8v6c0,5.4,2.3,7.8,7.8,7.8h6c5.4,0,7.8-2.3,7.8-7.8v-6C21.5,2.3,19.2,0,13.8,0z
		 M20,13.8c0,4.6-1.6,6.2-6.2,6.2h-6c-4.6,0-6.2-1.6-6.2-6.2v-6c0-4.6,1.6-6.2,6.2-6.2h6c4.6,0,6.2,1.6,6.2,6.2V13.8z"/>
</g>
</svg>
