<svg xmlns="http://www.w3.org/2000/svg" xmlns:xlink="http://www.w3.org/1999/xlink" width="24" height="23.989" viewBox="0 0 24 23.989">
  <defs>
    <clipPath id="clip-path">
      <rect id="Rectangle_4865" data-name="Rectangle 4865" width="24" height="23.989" fill="#fff"/>
    </clipPath>
  </defs>
  <g id="Group_24634" data-name="Group 24634" clip-path="url(#clip-path)">
    <g id="Group_24739" data-name="Group 24739">
      <path id="Path_13753" data-name="Path 13753" d="M17.823,22.049H15.409V20.362h2.414a2.564,2.564,0,0,0,2.566-2.556V15.533h1.687v2.273a4.253,4.253,0,0,1-4.253,4.243" transform="translate(1.924 1.939)" fill="#fff"/>
      <path id="Path_13754" data-name="Path 13754" d="M1.687,6.809H0V4.243A4.253,4.253,0,0,1,4.254,0H6.668V1.687H4.254A2.564,2.564,0,0,0,1.687,4.243Z" transform="translate(0 0)" fill="#fff"/>
      <path id="Path_13755" data-name="Path 13755" d="M6.668,22.049H4.254A4.254,4.254,0,0,1,0,17.806V15.533H1.687v2.273a2.565,2.565,0,0,0,2.567,2.556H6.668Z" transform="translate(0 1.939)" fill="#fff"/>
      <path id="Path_13756" data-name="Path 13756" d="M22.076,6.809H20.389V4.243a2.563,2.563,0,0,0-2.566-2.556H15.408V0h2.415a4.253,4.253,0,0,1,4.253,4.243Z" transform="translate(1.924 0)" fill="#fff"/>
      <path id="Path_13757" data-name="Path 13757" d="M8.61,11.414H5.566a2.205,2.205,0,0,1-2.2-2.2V6.166a2.2,2.2,0,0,1,2.2-2.2H8.61a2.205,2.205,0,0,1,2.2,2.2V9.21a2.206,2.206,0,0,1-2.2,2.2M5.566,5.651a.516.516,0,0,0-.515.515V9.21a.516.516,0,0,0,.515.516H8.61a.518.518,0,0,0,.516-.516V6.166a.518.518,0,0,0-.516-.515Z" transform="translate(0.42 0.495)" fill="#fff"/>
      <path id="Path_13758" data-name="Path 13758" d="M8.61,18.846H5.566a2.205,2.205,0,0,1-2.2-2.2V13.6a2.205,2.205,0,0,1,2.2-2.2H8.61a2.206,2.206,0,0,1,2.2,2.2v3.043a2.206,2.206,0,0,1-2.2,2.2M5.566,13.083a.516.516,0,0,0-.515.516v3.043a.516.516,0,0,0,.515.516H8.61a.518.518,0,0,0,.516-.516V13.6a.518.518,0,0,0-.516-.516Z" transform="translate(0.42 1.423)" fill="#fff"/>
      <path id="Path_13759" data-name="Path 13759" d="M16.316,11.414H13.273a2.206,2.206,0,0,1-2.2-2.2V6.166a2.205,2.205,0,0,1,2.2-2.2h3.044a2.2,2.2,0,0,1,2.2,2.2V9.21a2.205,2.205,0,0,1-2.2,2.2M13.273,5.651a.517.517,0,0,0-.516.515V9.21a.517.517,0,0,0,.516.516h3.044a.516.516,0,0,0,.515-.516V6.166a.516.516,0,0,0-.515-.515Z" transform="translate(1.382 0.495)" fill="#fff"/>
      <path id="Path_13760" data-name="Path 13760" d="M16.418,18.717H14.894V17.03h1.524l-.064-4.6h1.687v4.665a1.625,1.625,0,0,1-1.623,1.623" transform="translate(1.859 1.552)" fill="#fff"/>
      <path id="Path_13761" data-name="Path 13761" d="M13.011,14.765H11.324V13.16a1.625,1.625,0,0,1,1.623-1.623h1.525v1.687H12.947Z" transform="translate(1.414 1.44)" fill="#fff"/>
      <path id="Path_13762" data-name="Path 13762" d="M12.8,15.606a.656.656,0,1,1-.657-.657.657.657,0,0,1,.657.657" transform="translate(1.435 1.866)" fill="#fff"/>
      <path id="Path_13763" data-name="Path 13763" d="M12.8,17.316a.656.656,0,1,1-.657-.657.657.657,0,0,1,.657.657" transform="translate(1.435 2.08)" fill="#fff"/>
    </g>
  </g>
</svg>
