<?xml version="1.0" encoding="utf-8"?>
<!-- Generator: Adobe Illustrator 26.0.1, SVG Export Plug-In . SVG Version: 6.00 Build 0)  -->
<svg version="1.1" id="Layer_1" xmlns="http://www.w3.org/2000/svg" xmlns:xlink="http://www.w3.org/1999/xlink" x="0px" y="0px"
	 viewBox="0 0 21.8 17.7" style="enable-background:new 0 0 21.8 17.7;" xml:space="preserve">
<style type="text/css">
	.st0{fill:#F8F8F8;}
</style>
<g id="Group_24576" transform="translate(-266.125 -28.145)">
	<g id="Line_525">
		<path class="st0" d="M287.2,29.6h-19.9c-0.4,0-0.8-0.3-0.8-0.8s0.3-0.8,0.8-0.8h19.9c0.4,0,0.8,0.3,0.8,0.8S287.6,29.6,287.2,29.6
			z"/>
	</g>
	<g id="Line_526">
		<path class="st0" d="M287.2,45.9h-19.9c-0.4,0-0.8-0.3-0.8-0.8s0.3-0.8,0.8-0.8h19.9c0.4,0,0.8,0.3,0.8,0.8S287.6,45.9,287.2,45.9
			z"/>
	</g>
	<g id="Path_13320">
		<path class="st0" d="M287.2,37.7h-19.9c-0.4,0-0.8-0.3-0.8-0.8s0.3-0.8,0.8-0.8h19.9c0.4,0,0.8,0.3,0.8,0.8S287.6,37.7,287.2,37.7
			z"/>
	</g>
</g>
</svg>
