<?xml version="1.0" encoding="utf-8"?>
<!-- Generator: Adobe Illustrator 26.0.1, SVG Export Plug-In . SVG Version: 6.00 Build 0)  -->
<svg version="1.1" id="Layer_1" xmlns="http://www.w3.org/2000/svg" xmlns:xlink="http://www.w3.org/1999/xlink" x="0px" y="0px"
	 viewBox="0 0 21.8 17.7" style="enable-background:new 0 0 21.8 17.7;" xml:space="preserve">
<style type="text/css">
	.st0{fill:#F8F8F8;}
</style>
<g>
	<path class="st0" d="M0.8,1.5h20.3c0.4,0,0.8-0.3,0.8-0.8S21.5,0,21.1,0H0.8C0.3,0,0,0.3,0,0.8S0.3,1.5,0.8,1.5z"/>
	<path class="st0" d="M21.1,16.2H0.8C0.3,16.2,0,16.5,0,17s0.3,0.8,0.8,0.8h20.3c0.4,0,0.8-0.3,0.8-0.8S21.5,16.2,21.1,16.2z"/>
	<path class="st0" d="M21.1,8.1H0.8C0.3,8.1,0,8.4,0,8.9s0.3,0.8,0.8,0.8h20.3c0.4,0,0.8-0.3,0.8-0.8S21.5,8.1,21.1,8.1z"/>
</g>
</svg>
