<?xml version="1.0" encoding="utf-8"?>
<!-- Generator: Adobe Illustrator 26.0.1, SVG Export Plug-In . SVG Version: 6.00 Build 0)  -->
<svg version="1.1" id="Layer_1" xmlns="http://www.w3.org/2000/svg" xmlns:xlink="http://www.w3.org/1999/xlink" x="0px" y="0px"
	 viewBox="0 0 43.7 43.7" style="enable-background:new 0 0 43.7 43.7;" xml:space="preserve">
<style type="text/css">
	.st0{fill:#ED2024;}
</style>
<path class="st0" d="M42.5,35.4h-6.9V14.6c0-1.3-0.5-2.5-1.3-3.4L40,5.6c0.3-0.3,0.3-0.8,0-1.1s-0.8-0.3-1.1,0l-5.7,5.7
	c-0.8-0.5-1.8-0.9-2.9-0.9H9.6V3.9c0-0.4-0.3-0.8-0.8-0.8S8.1,3.5,8.1,3.9v5.4H1.2c-0.4,0-0.8,0.3-0.8,0.8s0.3,0.8,0.8,0.8h6.9v20.8
	c0,2.9,2.3,5.2,5.2,5.2h20.7v5.4c0,0.4,0.3,0.8,0.8,0.8s0.8-0.3,0.8-0.8v-5.4h6.9c0.4,0,0.8-0.3,0.8-0.8S42.9,35.4,42.5,35.4z
	 M13.4,35.4c-2.1,0-3.7-1.7-3.7-3.7V10.9h20.7c0.6,0,1.2,0.2,1.8,0.5L10.5,32.9c-0.3,0.3-0.3,0.8,0,1.1c0.1,0.1,0.3,0.2,0.5,0.2
	s0.4-0.1,0.5-0.2l21.7-21.7c0.5,0.6,0.8,1.4,0.8,2.3v20.8H13.4z"/>
</svg>
