<svg xmlns="http://www.w3.org/2000/svg" width="21.5" height="21.5" viewBox="0 0 21.5 21.5">
  <g id="Group_24578" data-name="Group 24578" transform="translate(-12.25 -12.25)">
    <path id="Path_13728" data-name="Path 13728" d="M11.4,382.75H7.6c-2.259,0-3.794-.483-4.83-1.52s-1.52-2.572-1.52-4.83v-3.8c0-2.259.483-3.794,1.52-4.83s2.572-1.52,4.83-1.52h3a.75.75,0,0,1,0,1.5h-3c-3.581,0-4.85,1.269-4.85,4.85v3.8c0,3.581,1.269,4.85,4.85,4.85h3.8c3.581,0,4.85-1.269,4.85-4.85v-3a.75.75,0,0,1,1.5,0v3c0,2.259-.483,3.794-1.52,4.83S13.659,382.75,11.4,382.75Z" transform="translate(11 -349)" fill="#fff"/>
    <path id="Path_13729" data-name="Path 13729" d="M17,374.15H13.8a4.028,4.028,0,0,1-3.03-.92,4.028,4.028,0,0,1-.92-3.03V367a.75.75,0,0,1,1.28-.53l6.4,6.4a.75.75,0,0,1-.53,1.28Zm-5.65-5.339V370.2c0,1.992.458,2.45,2.45,2.45h1.389Z" transform="translate(11 -349)" fill="#fff"/>
    <path id="Path_13730" data-name="Path 13730" d="M15.6,362.75h-4a.75.75,0,0,1,0-1.5h4a.75.75,0,1,1,0,1.5Z" transform="translate(11 -349)" fill="#fff"/>
    <path id="Path_13731" data-name="Path 13731" d="M7,365.75a.75.75,0,0,1-.75-.75A3.754,3.754,0,0,1,10,361.25h2.62a.75.75,0,1,1,0,1.5H10A2.253,2.253,0,0,0,7.75,365,.75.75,0,0,1,7,365.75Z" transform="translate(11 -349)" fill="#fff"/>
    <path id="Path_13732" data-name="Path 13732" d="M19.19,377.75a.75.75,0,1,1,0-1.5,2.062,2.062,0,0,0,2.06-2.06V368a.75.75,0,0,1,1.5,0v6.19A3.564,3.564,0,0,1,19.19,377.75Z" transform="translate(11 -349)" fill="#fff"/>
    <path id="Path_13733" data-name="Path 13733" d="M22,368.75H19a3.817,3.817,0,0,1-2.874-.876A3.817,3.817,0,0,1,15.25,365v-3a.75.75,0,0,1,1.28-.53l6,6a.75.75,0,0,1-.53,1.28Zm-5.25-4.939V365a2.6,2.6,0,0,0,.437,1.813A2.6,2.6,0,0,0,19,367.25h1.189Z" transform="translate(11 -349)" fill="#fff"/>
  </g>
</svg>
