<svg xmlns="http://www.w3.org/2000/svg" width="21.5" height="21.5" viewBox="0 0 21.5 21.5">
  <g id="Group_23524" data-name="Group 23524" transform="translate(0.75 0.75)">
    <path id="Path_13551" data-name="Path 13551" d="M12,1270.75a10.779,10.779,0,1,1,7.593-3.157A10.673,10.673,0,0,1,12,1270.75Zm0-20a9.25,9.25,0,1,0,9.25,9.25A9.26,9.26,0,0,0,12,1250.75Z" transform="translate(-2 -1250)" fill="#05396b"/>
    <path id="Path_13552" data-name="Path 13552" d="M16.005,1261H16a1,1,0,1,1,0-2h.009a1,1,0,1,1,0,2Z" transform="translate(-2 -1250)" fill="#05396b"/>
    <path id="Path_13553" data-name="Path 13553" d="M12,1261H12a1,1,0,1,1,0-2H12a1,1,0,1,1,0,2Z" transform="translate(-2 -1250)" fill="#05396b"/>
    <path id="Path_13554" data-name="Path 13554" d="M8,1261H7.995a1,1,0,0,1,0-2H8a1,1,0,0,1,0,2Z" transform="translate(-2 -1250)" fill="#05396b"/>
  </g>
</svg>
