<svg xmlns="http://www.w3.org/2000/svg" width="19.593" height="21.5" viewBox="0 0 19.593 21.5">
  <g id="Group_23729" data-name="Group 23729" transform="translate(-2.398 -181.25)">
    <path id="Path_13710" data-name="Path 13710" d="M15.031,191.52a.749.749,0,0,1-.624-.332l-3.2-4.77a.75.75,0,0,1,.206-1.041l5.66-3.79a1.96,1.96,0,0,1,1.1-.337,1.987,1.987,0,0,1,1.658.884l1.819,2.708a1.991,1.991,0,0,1-.547,2.762l-5.659,3.789A.747.747,0,0,1,15.031,191.52Zm-2.16-5.315,2.364,3.524,5.037-3.373a.485.485,0,0,0,.208-.314.476.476,0,0,0-.071-.362l-1.822-2.713a.491.491,0,0,0-.411-.218.471.471,0,0,0-.265.08Z" fill="#fff"/>
    <path id="Path_13711" data-name="Path 13711" d="M12.174,185.729a.75.75,0,0,1,.623.333l2.56,3.822a.75.75,0,0,1-.206,1.041l-4.778,3.2a.75.75,0,0,1-1.041-.206L6.773,190.1a.75.75,0,0,1,.206-1.041l4.778-3.2A.75.75,0,0,1,12.174,185.729Zm1.519,4.366-1.725-2.576-3.531,2.365,1.725,2.576Z" fill="#fff"/>
    <path id="Path_13712" data-name="Path 13712" d="M5.275,196.815h0a1.735,1.735,0,0,1-1.449-.769L2.7,194.369a1.749,1.749,0,0,1,.473-2.431L7.123,189.3a.75.75,0,0,1,1.04.206l2.24,3.34a.75.75,0,0,1-.206,1.041l-3.95,2.64-.007,0A1.762,1.762,0,0,1,5.275,196.815Zm2.059-5.855-3.327,2.224a.244.244,0,0,0-.1.158.248.248,0,0,0,.039.189l1.13,1.681a.24.24,0,0,0,.2.1.265.265,0,0,0,.143-.042l3.321-2.219Z" fill="#fff"/>
    <path id="Path_13713" data-name="Path 13713" d="M7.56,202.75a.75.75,0,0,1-.681-1.063l4.49-9.8a.75.75,0,0,1,1.364.625l-4.49,9.8A.75.75,0,0,1,7.56,202.75Z" fill="#fff"/>
    <path id="Path_13714" data-name="Path 13714" d="M16.44,202.75a.75.75,0,0,1-.684-.441l-4.44-9.8a.75.75,0,1,1,1.366-.619l4.44,9.8a.75.75,0,0,1-.683,1.06Z" fill="#fff"/>
  </g>
</svg>
