<svg xmlns="http://www.w3.org/2000/svg" width="12.548" height="17.546" viewBox="0 0 12.548 17.546">
  <g id="Group_23555" data-name="Group 23555" transform="translate(0.75 0.75)">
    <path id="Path_13365" data-name="Path 13365" d="M8.286,249.185a1.472,1.472,0,0,0-.267,0,3.6,3.6,0,1,1,.267,0Z" transform="translate(-2.766 -242)" fill="rgba(255,255,255,0)"/>
    <path id="Path_13365_-_Outline" data-name="Path 13365 - Outline" d="M8.286,249.935q-.037,0-.075,0c-.009,0-.028,0-.056,0s-.047,0-.069,0a.763.763,0,0,1-.093,0,4.35,4.35,0,1,1,.318,0Zm-.13-7.185A2.844,2.844,0,0,0,8,248.433a2.254,2.254,0,0,1,.3,0,2.843,2.843,0,0,0-.145-5.683Z" transform="translate(-2.766 -242)" fill="#fff"/>
    <path id="Path_13367" data-name="Path 13367" d="M3.815,254.3c-1.96,1.312-1.96,3.451,0,4.755a7.91,7.91,0,0,0,8.108,0c1.96-1.312,1.96-3.451,0-4.755A7.948,7.948,0,0,0,3.815,254.3Z" transform="translate(-2.345 -244.126)" fill="rgba(255,255,255,0)"/>
    <path id="Path_13367_-_Outline" data-name="Path 13367 - Outline" d="M7.875,252.438a8.107,8.107,0,0,1,4.464,1.238,3.4,3.4,0,0,1,0,6,8.108,8.108,0,0,1-4.471,1.245A8.107,8.107,0,0,1,3.4,259.677a3.4,3.4,0,0,1,0-6A8.17,8.17,0,0,1,7.875,252.438Zm-.006,6.984a6.7,6.7,0,0,0,3.637-.991,1.921,1.921,0,0,0,0-3.507,6.7,6.7,0,0,0-3.632-.986,6.756,6.756,0,0,0-3.646.987,1.92,1.92,0,0,0,0,3.505A6.7,6.7,0,0,0,7.869,259.422Z" transform="translate(-2.345 -244.126)" fill="#fff"/>
  </g>
</svg>
