<svg xmlns="http://www.w3.org/2000/svg" width="21.967" height="24.443" viewBox="0 0 21.967 24.443">
  <g id="Group_23468" data-name="Group 23468" transform="translate(0.75 0.75)">
    <path id="Path_13458" data-name="Path 13458" d="M8,54.192a.75.75,0,0,1-.75-.75V50a.75.75,0,0,1,1.5,0v3.441A.75.75,0,0,1,8,54.192Z" transform="translate(-2.315 -50)" fill="#05396b"/>
    <path id="Path_13459" data-name="Path 13459" d="M16,54.192a.75.75,0,0,1-.75-.75V50a.75.75,0,0,1,1.5,0v3.441A.75.75,0,0,1,16,54.192Z" transform="translate(-1.218 -50)" fill="#05396b"/>
    <path id="Path_13460" data-name="Path 13460" d="M22.83,57.84H3.5a.75.75,0,0,1,0-1.5H22.83a.75.75,0,1,1,0,1.5Z" transform="translate(-2.931 -48.957)" fill="#05396b"/>
    <path id="Path_13461" data-name="Path 13461" d="M8.685,50.75h9.1a6.34,6.34,0,0,1,4.887,1.819,6.66,6.66,0,0,1,1.548,4.666v9.751a6.66,6.66,0,0,1-1.548,4.666,6.34,6.34,0,0,1-4.887,1.819h-9.1A6.34,6.34,0,0,1,3.8,71.653,6.66,6.66,0,0,1,2.25,66.987V57.236A6.66,6.66,0,0,1,3.8,52.569,6.34,6.34,0,0,1,8.685,50.75Zm9.1,21.223a4.924,4.924,0,0,0,3.783-1.335,5.233,5.233,0,0,0,1.152-3.651V57.236a5.233,5.233,0,0,0-1.152-3.651,4.924,4.924,0,0,0-3.783-1.335h-9.1A4.924,4.924,0,0,0,4.9,53.585,5.233,5.233,0,0,0,3.75,57.236v9.751A5.233,5.233,0,0,0,4.9,70.637a4.924,4.924,0,0,0,3.783,1.335Z" transform="translate(-3 -49.779)" fill="#05396b"/>
    <path id="Path_13462" data-name="Path 13462" d="M15.7,62.7h-.01a1,1,0,1,1,0-2h.01a1,1,0,0,1,0,2Z" transform="translate(-1.26 -48.278)" fill="#05396b"/>
    <path id="Path_13463" data-name="Path 13463" d="M15.7,65.7h-.01a1,1,0,1,1,0-2h.01a1,1,0,0,1,0,2Z" transform="translate(-1.26 -47.837)" fill="#05396b"/>
    <path id="Path_13464" data-name="Path 13464" d="M12.006,62.7H12a1,1,0,1,1,0-2h.01a1,1,0,0,1,0,2Z" transform="translate(-1.767 -48.278)" fill="#05396b"/>
    <path id="Path_13465" data-name="Path 13465" d="M12.006,65.7H12a1,1,0,1,1,0-2h.01a1,1,0,0,1,0,2Z" transform="translate(-1.767 -47.837)" fill="#05396b"/>
    <path id="Path_13466" data-name="Path 13466" d="M8.3,62.7h-.01a1,1,0,0,1,0-2H8.3a1,1,0,0,1,0,2Z" transform="translate(-2.274 -48.278)" fill="#05396b"/>
    <path id="Path_13467" data-name="Path 13467" d="M8.3,65.7h-.01a1,1,0,0,1,0-2H8.3a1,1,0,0,1,0,2Z" transform="translate(-2.274 -47.837)" fill="#05396b"/>
  </g>
</svg>
