<svg xmlns="http://www.w3.org/2000/svg" width="15.149" height="15.5" viewBox="0 0 15.149 15.5">
  <g id="Group_23706" data-name="Group 23706" transform="translate(-1.5 -385.25)">
    <path id="Path_13376" data-name="Path 13376" d="M6.275,401.2h5.6c2.814,0,3.318-1.127,3.465-2.5l.525-5.6c.189-1.708-.3-3.1-3.29-3.1h-7c-2.989,0-3.479,1.393-3.29,3.1l.525,5.6C2.957,400.073,3.461,401.2,6.275,401.2Z" transform="translate(0 -1.2)" fill="rgba(255,255,255,0)"/>
    <path id="Path_13376_-_Outline" data-name="Path 13376 - Outline" d="M11.875,401.95h-5.6a4.664,4.664,0,0,1-3.238-.931,3.368,3.368,0,0,1-.972-2.238v-.01l-.524-5.594a3.445,3.445,0,0,1,.678-2.81,4.289,4.289,0,0,1,3.358-1.117h7a4.289,4.289,0,0,1,3.358,1.117,3.445,3.445,0,0,1,.678,2.81l-.524,5.594v.01a3.368,3.368,0,0,1-.972,2.238A4.664,4.664,0,0,1,11.875,401.95Zm-8.319-3.323c.1.9.2,1.823,2.719,1.823h5.6c2.518,0,2.623-.926,2.719-1.823l.525-5.6v-.012a2.065,2.065,0,0,0-.3-1.651,3.027,3.027,0,0,0-2.241-.617h-7a3.027,3.027,0,0,0-2.241.617,2.065,2.065,0,0,0-.3,1.651v.012Z" transform="translate(0 -1.2)" fill="#fff"/>
    <path id="Path_13377" data-name="Path 13377" d="M8,388.8v-.56C8,387,8,386,10.24,386h1.12c2.24,0,2.24,1,2.24,2.24v.56" transform="translate(-1.725)" fill="rgba(255,255,255,0)"/>
    <path id="Path_13377_-_Outline" data-name="Path 13377 - Outline" d="M13.6,389.55a.75.75,0,0,1-.75-.75v-.56a2.49,2.49,0,0,0-.147-1.158c-.148-.214-.625-.332-1.343-.332H10.24c-.718,0-1.2.118-1.343.332a2.49,2.49,0,0,0-.147,1.158v.56a.75.75,0,0,1-1.5,0v-.56a3.392,3.392,0,0,1,.413-2.011,3,3,0,0,1,2.577-.979h1.12a3,3,0,0,1,2.577.979,3.392,3.392,0,0,1,.413,2.011v.56A.75.75,0,0,1,13.6,389.55Z" transform="translate(-1.725)" fill="#fff"/>
    <path id="Path_13378" data-name="Path 13378" d="M12.8,396.7v.714c0,.763-.007,1.386-1.4,1.386s-1.4-.616-1.4-1.379V396.7c0-.7,0-.7.7-.7h1.4C12.8,396,12.8,396,12.8,396.7Z" transform="translate(-2.325 -3)" fill="rgba(255,255,255,0)"/>
    <path id="Path_13378_-_Outline" data-name="Path 13378 - Outline" d="M10.7,395.25h1.4a1.441,1.441,0,0,1,1.143.307,1.441,1.441,0,0,1,.307,1.143v.714c0,.746,0,2.136-2.15,2.136a2.131,2.131,0,0,1-1.832-.72,2.328,2.328,0,0,1-.318-1.409V396.7a1.441,1.441,0,0,1,.307-1.143A1.441,1.441,0,0,1,10.7,395.25Zm1.35,1.5h-1.3v.671a2.1,2.1,0,0,0,.04.538,1.241,1.241,0,0,0,.61.091,1.239,1.239,0,0,0,.61-.091,2.114,2.114,0,0,0,.04-.545Z" transform="translate(-2.325 -3)" fill="#fff"/>
    <path id="Path_13379" data-name="Path 13379" d="M19.355,395A11.539,11.539,0,0,1,14,397.114" transform="translate(-3.525 -2.7)" fill="rgba(255,255,255,0)"/>
    <path id="Path_13379_-_Outline" data-name="Path 13379 - Outline" d="M14,397.864a.75.75,0,0,1-.093-1.494,10.834,10.834,0,0,0,5.008-1.976.75.75,0,0,1,.882,1.213,12.338,12.338,0,0,1-5.7,2.252A.753.753,0,0,1,14,397.864Z" transform="translate(-3.525 -2.7)" fill="#fff"/>
    <path id="Path_13380" data-name="Path 13380" d="M2.62,395.27A11.4,11.4,0,0,0,7.786,397.2" transform="translate(-0.111 -2.781)" fill="rgba(255,255,255,0)"/>
    <path id="Path_13380_-_Outline" data-name="Path 13380 - Outline" d="M7.787,397.952a.758.758,0,0,1-.084,0A12.193,12.193,0,0,1,2.2,395.889a.75.75,0,0,1,.847-1.238,10.688,10.688,0,0,0,4.826,1.806.75.75,0,0,1-.083,1.5Z" transform="translate(-0.111 -2.781)" fill="#fff"/>
  </g>
</svg>
