<svg xmlns="http://www.w3.org/2000/svg" width="23.972" height="24.333" viewBox="0 0 23.972 24.333">
  <g id="Group_23726" data-name="Group 23726" transform="matrix(0.891, -0.454, 0.454, 0.891, -69.226, -120.801)">
    <path id="Path_13667" data-name="Path 13667" d="M12.02,146.16a6.758,6.758,0,0,1,6.75,6.75v2.89a4.208,4.208,0,0,0,.457,1.68l1.146,1.9a2.752,2.752,0,0,1-1.487,4.029,21.671,21.671,0,0,1-13.743,0,2.782,2.782,0,0,1-1.762-1.646,2.732,2.732,0,0,1,.277-2.382l1.15-1.91A4.067,4.067,0,0,0,5.27,155.8v-2.89A6.758,6.758,0,0,1,12.02,146.16Zm-.005,16.87a20.151,20.151,0,0,0,6.4-1.041,1.236,1.236,0,0,0,.775-.749,1.25,1.25,0,0,0-.1-1.084l-1.157-1.921a5.672,5.672,0,0,1-.66-2.435v-2.89a5.25,5.25,0,0,0-10.5,0v2.89a5.546,5.546,0,0,1-.676,2.444l-1.152,1.913a1.264,1.264,0,0,0-.154,1.092,1.276,1.276,0,0,0,.832.741A20.147,20.147,0,0,0,12.015,163.03Z" fill="#05396b"/>
    <path id="Path_13668" data-name="Path 13668" d="M13.87,147.95a.749.749,0,0,1-.209-.03,5.264,5.264,0,0,0-.841-.176,6.581,6.581,0,0,0-.814-.052,5.824,5.824,0,0,0-1.626.227.75.75,0,0,1-.908-.994,2.738,2.738,0,0,1,5.1,0,.75.75,0,0,1-.7,1.024Z" fill="#05396b"/>
    <path id="Path_13669" data-name="Path 13669" d="M12.02,166.81a3.755,3.755,0,0,1-3.75-3.75h1.5a2.25,2.25,0,1,0,4.5,0h1.5A3.754,3.754,0,0,1,12.02,166.81Z" fill="#05396b"/>
  </g>
</svg>
