<svg xmlns="http://www.w3.org/2000/svg" width="16.553" height="14.5" viewBox="0 0 16.553 14.5">
  <g id="Group_23478" data-name="Group 23478" transform="translate(-0.25 -98.26)">
    <path id="Path_13468" data-name="Path 13468" d="M16.053,118.75H1a.75.75,0,1,1,0-1.5H16.053a.75.75,0,0,1,0,1.5Z" transform="translate(0 -5.997)" fill="#fff"/>
    <path id="Path_13469" data-name="Path 13469" d="M19.78,117.352a.75.75,0,0,1-.75-.75V113.55a.75.75,0,0,1,1.5,0V116.6A.75.75,0,0,1,19.78,117.352Z" transform="translate(-5.931 -4.592)" fill="#fff"/>
    <path id="Path_13470" data-name="Path 13470" d="M19.105,106.14a2.258,2.258,0,0,1,2.255,2.255v1.553a2.255,2.255,0,1,1-4.511,0V108.4A2.258,2.258,0,0,1,19.105,106.14Zm0,4.564a.747.747,0,0,0,.755-.755V108.4a.755.755,0,1,0-1.511,0v1.553A.747.747,0,0,0,19.105,110.7Z" transform="translate(-5.242 -2.488)" fill="#fff"/>
    <path id="Path_13471" data-name="Path 13471" d="M10.447,112.753A.75.75,0,0,1,9.7,112V101.076c0-.96-.349-1.316-1.289-1.316H4.146c-.945,0-1.3.357-1.3,1.316V112a.75.75,0,1,1-1.5,0V101.076a2.554,2.554,0,0,1,2.8-2.816H8.409a2.551,2.551,0,0,1,2.789,2.816V112A.75.75,0,0,1,10.447,112.753Z" transform="translate(-0.347)" fill="#fff"/>
    <path id="Path_13472" data-name="Path 13472" d="M9.187,105H5.8a.75.75,0,0,1,0-1.5H9.187a.75.75,0,0,1,0,1.5Z" transform="translate(-1.516 -1.655)" fill="#fff"/>
    <path id="Path_13473" data-name="Path 13473" d="M9.187,108.75H5.8a.75.75,0,0,1,0-1.5H9.187a.75.75,0,0,1,0,1.5Z" transform="translate(-1.516 -2.839)" fill="#fff"/>
    <path id="Path_13474" data-name="Path 13474" d="M8.25,117.566a.75.75,0,0,1-.75-.75V114.25a.75.75,0,0,1,1.5,0v2.566A.75.75,0,0,1,8.25,117.566Z" transform="translate(-2.289 -4.813)" fill="#fff"/>
  </g>
</svg>
