<svg xmlns="http://www.w3.org/2000/svg" xmlns:xlink="http://www.w3.org/1999/xlink" width="47.143" height="44.019" viewBox="0 0 47.143 44.019">
  <defs>
    <clipPath id="clip-path">
      <rect id="Rectangle_4962" data-name="Rectangle 4962" width="47.143" height="44.019" transform="translate(0 0)" fill="none" stroke="#05396b" stroke-width="2"/>
    </clipPath>
  </defs>
  <g id="Group_24446" data-name="Group 24446" clip-path="url(#clip-path)">
    <path id="Path_14091" data-name="Path 14091" d="M5.26,27.177a3.906,3.906,0,0,1-3.9-3.9v-8.43a3.9,3.9,0,0,1,7.8,0v8.43A3.906,3.906,0,0,1,5.26,27.177Zm0-14.233a1.9,1.9,0,0,0-1.9,1.9v8.43a1.9,1.9,0,0,0,3.8,0v-8.43A1.9,1.9,0,0,0,5.26,12.944Z" transform="translate(1.121 5.676)" fill="#05396b"/>
    <path id="Rectangle_4961" data-name="Rectangle 4961" d="M1.724-1H8.636a2.728,2.728,0,0,1,2.725,2.725V4.44A2.727,2.727,0,0,1,8.637,7.164H1.724A2.727,2.727,0,0,1-1,4.44V1.724A2.727,2.727,0,0,1,1.724-1ZM8.637,5.164a.725.725,0,0,0,.724-.724V1.725A.726.726,0,0,0,8.636,1H1.724A.725.725,0,0,0,1,1.724V4.44a.725.725,0,0,0,.724.724Z" transform="translate(18.342 37.117)" fill="#05396b"/>
    <path id="Path_14092" data-name="Path 14092" d="M4.241,24.58.974,23.215A2.437,2.437,0,0,1-.5,20.941V15.484a2.432,2.432,0,0,1,1.643-2.338l3.1-1.016Zm-2-9.69-.475.156a.453.453,0,0,0-.266.438v5.457a.459.459,0,0,0,.244.428l.5.208Z" transform="translate(0.238 6.42)" fill="#05396b"/>
    <path id="Path_14093" data-name="Path 14093" d="M28.345,27.177a4.129,4.129,0,0,1-4.125-4.125V15.067a4.125,4.125,0,0,1,8.249,0v7.986A4.129,4.129,0,0,1,28.345,27.177Zm0-14.233a2.126,2.126,0,0,0-2.125,2.123v7.986a2.125,2.125,0,0,0,4.249,0V15.067A2.126,2.126,0,0,0,28.345,12.944Z" transform="translate(11.986 5.676)" fill="#05396b"/>
    <path id="Path_14094" data-name="Path 14094" d="M28.456,24.539V12.16l3.215.979a2.437,2.437,0,0,1,1.736,2.345v5.457a2.463,2.463,0,0,1-1.565,2.284Zm2-9.68v6.758l.664-.258a.451.451,0,0,0,.287-.419V15.484a.448.448,0,0,0-.318-.432Z" transform="translate(13.999 6.42)" fill="#05396b"/>
    <path id="Path_14095" data-name="Path 14095" d="M25.828,31.018H19.455v-2h6.373a4.6,4.6,0,0,0,4.591-4.591V21.58h2v2.847A6.6,6.6,0,0,1,25.828,31.018Z" transform="translate(9.246 10.255)" fill="#05396b"/>
    <path id="Path_14096" data-name="Path 14096" d="M14.16,10.709a3.892,3.892,0,0,1,4.157,3.874c0,2.672-1.592,3.61-4.759,4.849-1.043.406-2.282.832-2.282,2v.513H17.7c.356,0,.46.124.46.46v.671c0,.336-.1.46-.46.46H9.966c-.354,0-.478-.124-.478-.477V21.767c0-2.388,1.788-3.185,3.594-3.893,1.732-.671,3.448-1.255,3.448-3.219A2.324,2.324,0,0,0,14.107,12.3a2.878,2.878,0,0,0-2.92,1.875c-.142.336-.266.406-.584.3L9.842,14.2c-.319-.106-.406-.266-.282-.584a4.465,4.465,0,0,1,4.6-2.9" transform="translate(4.509 5.089)" fill="#05396b"/>
    <path id="Path_14097" data-name="Path 14097" d="M26.289,19.234v.6c0,.336-.108.46-.462.46h-1.45v2.723c0,.336-.124.46-.46.46h-.673c-.353,0-.459-.124-.459-.46V20.3h-6.1c-.354,0-.459-.124-.459-.46v-.5c0-.319.016-.389.158-.566L22.5,11.165a.688.688,0,0,1,.655-.336H23.9c.353,0,.477.106.477.46v7.484h1.45c.354,0,.462.124.462.46m-8.068-.46h4.564V13.148Z" transform="translate(7.71 5.146)" fill="#05396b"/>
    <path id="Path_14098" data-name="Path 14098" d="M39.61,17.392h-2v-.4A15.518,15.518,0,0,0,22.1,1.5H20.833A15.518,15.518,0,0,0,5.325,16.993v.384h-2v-.384A17.494,17.494,0,0,1,20.833-.5H22.1A17.487,17.487,0,0,1,39.61,16.993Z" transform="translate(2.055 0.237)" fill="#05396b"/>
    <path id="Line_628" data-name="Line 628" d="M1,.28H-1V0H1Z" transform="translate(40.665 31.835)" fill="#05396b"/>
  </g>
</svg>
