<svg xmlns="http://www.w3.org/2000/svg" width="19.966" height="19.951" viewBox="0 0 19.966 19.951">
  <g id="Group_24577" data-name="Group 24577" transform="translate(-12.515 -12.524)">
    <path id="Path_13726" data-name="Path 13726" d="M12.071,345.975a5.481,5.481,0,0,1-3.9-1.615l-4.53-4.53a5.566,5.566,0,0,1-1.619-4.174l.24-5a4.6,4.6,0,0,1,4.405-4.383l5-.24c.091,0,.186-.007.28-.007a5.538,5.538,0,0,1,3.886,1.616l4.539,4.519a5.54,5.54,0,0,1,0,7.812l-4.39,4.39A5.508,5.508,0,0,1,12.071,345.975Zm-.127-18.451c-.068,0-.137,0-.2.005l-5,.24a3.107,3.107,0,0,0-2.977,2.958l-.24,5A4.061,4.061,0,0,0,4.7,338.77l4.53,4.53a4.03,4.03,0,0,0,5.691,0l4.389-4.389a4.036,4.036,0,0,0,0-5.691L14.771,328.7A4.028,4.028,0,0,0,11.944,327.524Z" transform="translate(10.5 -313.499)" fill="#fff"/>
    <path id="Path_13727" data-name="Path 13727" d="M9.5,336.75a3.25,3.25,0,1,1,3.25-3.25A3.254,3.254,0,0,1,9.5,336.75Zm0-5a1.75,1.75,0,1,0,1.75,1.75A1.752,1.752,0,0,0,9.5,331.75Z" transform="translate(10.5 -313.499)" fill="#fff"/>
  </g>
</svg>
