<svg id="Icon_ionic-md-star" data-name="Icon ionic-md-star" xmlns="http://www.w3.org/2000/svg" width="21.718" height="21.552" viewBox="0 0 21.718 21.552">
  <path id="Path_13639" data-name="Path 13639" d="M13.856,963.526l1.779,3.558a2.2,2.2,0,0,0,1.435,1.061l3.224.536c2.062.344,2.547,1.839,1.061,3.315L18.849,974.5a2.195,2.195,0,0,0-.526,1.829l.718,3.1c.566,2.456-.738,3.406-2.911,2.123l-3.022-1.789a2.185,2.185,0,0,0-2,0l-3.022,1.789c-2.163,1.284-3.477.323-2.911-2.123l.718-3.1a2.195,2.195,0,0,0-.526-1.829L2.859,972c-1.476-1.476-1-2.972,1.061-3.315l3.224-.536a2.2,2.2,0,0,0,1.425-1.061l1.779-3.558C11.319,961.595,12.9,961.595,13.856,963.526Z" transform="translate(-1.251 -961.328)" fill="#fff"/>
  <path id="Path_13639_-_Outline" data-name="Path 13639 - Outline" d="M12.106,961.328c.558,0,1.615.242,2.421,1.864l1.778,3.556,0,.005a1.465,1.465,0,0,0,.885.651l3.224.536a2.509,2.509,0,0,1,1.467,4.587l-2.5,2.5a1.455,1.455,0,0,0-.324,1.134l.717,3.1a3.27,3.27,0,0,1-.354,2.889,1.971,1.971,0,0,1-1.584.724,4.2,4.2,0,0,1-2.086-.676l-3.023-1.79a1.273,1.273,0,0,0-.615-.138,1.318,1.318,0,0,0-.625.14L8.467,982.2a4.166,4.166,0,0,1-2.078.674,1.979,1.979,0,0,1-1.59-.728,3.26,3.26,0,0,1-.355-2.884l.717-3.1a1.455,1.455,0,0,0-.324-1.134l-2.507-2.507a2.751,2.751,0,0,1-.979-2.843A2.749,2.749,0,0,1,3.8,967.941l3.225-.536a1.487,1.487,0,0,0,.875-.651l0-.005,1.779-3.558C10.493,961.569,11.549,961.328,12.106,961.328Zm2.857,6.089-1.778-3.555c-.322-.648-.725-1.033-1.079-1.033s-.762.387-1.087,1.035l-1.777,3.555a2.944,2.944,0,0,1-1.971,1.467l-3.227.536c-.684.114-1.157.383-1.266.721s.12.833.612,1.324L5.9,973.972a2.946,2.946,0,0,1,.727,2.524v0L5.9,979.6c-.254,1.1-.012,1.511.068,1.612a.465.465,0,0,0,.416.162,2.828,2.828,0,0,0,1.313-.465l3.023-1.79,0,0a2.786,2.786,0,0,1,1.382-.344,2.742,2.742,0,0,1,1.379.347l3.022,1.789a2.862,2.862,0,0,0,1.322.467.458.458,0,0,0,.41-.158c.08-.1.32-.513.066-1.618l-.718-3.1v0a2.946,2.946,0,0,1,.727-2.524l2.507-2.507c.494-.491.724-.984.616-1.321s-.583-.609-1.271-.724l-3.224-.536A2.946,2.946,0,0,1,14.963,967.416Z" transform="translate(-1.251 -961.328)" fill="#889caf"/>
</svg>
