<svg xmlns="http://www.w3.org/2000/svg" width="16.705" height="16.7" viewBox="0 0 16.705 16.7">
  <g id="Icon_feather-plus" data-name="Icon feather-plus" transform="translate(-2.299 -0.991)">
    <g id="edit" transform="translate(0 0)">
      <path id="Path_13754" data-name="Path 13754" d="M18.5,1h0A4.338,4.338,0,0,1,21.51,2.49c1.991,1.991,1.991,4.01,0,6l-7.88,7.88-.009.009a3.508,3.508,0,0,1-1.736.864l-3.01.43A2.752,2.752,0,0,1,8.5,17.7a2.178,2.178,0,0,1-1.683-.735,2.265,2.265,0,0,1-.49-1.843l.43-3.007A3.421,3.421,0,0,1,7.63,10.37l7.88-7.88A4.264,4.264,0,0,1,18.5,1ZM12.575,15.3,20.45,7.43c1.164-1.164,1.61-2.27,0-3.879A2.943,2.943,0,0,0,18.5,2.5h0A2.892,2.892,0,0,0,16.57,3.55L8.69,11.43a2,2,0,0,0-.448.893l-.43,3.012a.8.8,0,0,0,.14.648A.7.7,0,0,0,8.5,16.2a1.234,1.234,0,0,0,.167-.012l3.006-.429A2.1,2.1,0,0,0,12.575,15.3Z" transform="translate(-4 -0.008)" fill="#fff"/>
      <path id="Path_13755" data-name="Path 13755" d="M19.85,9.84a.75.75,0,0,1-.2-.029A7.944,7.944,0,0,1,16.2,7.791a7.884,7.884,0,0,1-2.013-3.439.75.75,0,1,1,1.444-.4,6.437,6.437,0,0,0,4.422,4.421.75.75,0,0,1-.2,1.472Z" transform="translate(-4 0.251)" fill="#fff"/>
    </g>
  </g>
</svg>
