<?xml version="1.0" encoding="utf-8"?>
<!-- Generator: Adobe Illustrator 26.0.1, SVG Export Plug-In . SVG Version: 6.00 Build 0)  -->
<svg version="1.1" id="Layer_1" xmlns="http://www.w3.org/2000/svg" xmlns:xlink="http://www.w3.org/1999/xlink" x="0px" y="0px"
	 viewBox="0 0 43.7 43.7" style="enable-background:new 0 0 43.7 43.7;" xml:space="preserve">
<style type="text/css">
	.st0{fill:#ED2024;}
</style>
<g>
	<path class="st0" d="M39.9,4.8H3.7c-1.9,0-3.5,1.5-3.5,3.5v29.8c0,1.9,1.5,3.5,3.5,3.5h36.2c1.9,0,3.5-1.5,3.5-3.5V8.3
		C43.3,6.4,41.8,4.8,39.9,4.8z M3.7,6.3h36.2c1.1,0,2,0.9,2,2v14.6L38,20.2c-3.8-2.7-10.1-2.7-13.9,0L18.7,24
		c-0.5,0.4-1.2,0.5-1.9,0.4c-5.2-0.9-10.7,0.2-14.5,2.9l-0.6,0.4V8.3C1.7,7.2,2.6,6.3,3.7,6.3z M39.9,40.1H3.7c-1.1,0-2-0.9-2-2
		v-8.5l1.4-1c3.5-2.5,8.5-3.5,13.4-2.6c1.1,0.2,2.2-0.1,3-0.7l5.5-3.9c3.3-2.4,8.8-2.4,12.1,0l4.7,3.3v13.4
		C41.8,39.2,40.9,40.1,39.9,40.1z"/>
	<path class="st0" d="M12.2,21.1c2.8,0,5-2.3,5-5c0-2.8-2.3-5-5-5c-2.8,0-5,2.3-5,5C7.2,18.8,9.5,21.1,12.2,21.1z M12.2,12.6
		c1.9,0,3.5,1.6,3.5,3.5c0,1.9-1.6,3.5-3.5,3.5c-1.9,0-3.5-1.6-3.5-3.5C8.7,14.1,10.3,12.6,12.2,12.6z"/>
</g>
</svg>
