<?xml version="1.0" encoding="utf-8"?>
<!-- Generator: Adobe Illustrator 26.0.1, SVG Export Plug-In . SVG Version: 6.00 Build 0)  -->
<svg version="1.1" id="Layer_1" xmlns="http://www.w3.org/2000/svg" xmlns:xlink="http://www.w3.org/1999/xlink" x="0px" y="0px"
	 viewBox="0 0 21.5 21.5" style="enable-background:new 0 0 21.5 21.5;" xml:space="preserve">
<style type="text/css">
	.st0{fill:#2A2E32;}
</style>
<path class="st0" d="M17,0h-3.2c-3.1,0-4.5,1.4-4.5,4.5v0.1H9.1C6,4.6,4.6,6,4.6,9.1v0.1H4.5C1.4,9.2,0,10.7,0,13.8V17
	c0,3.1,1.4,4.5,4.5,4.5h3.2c3.1,0,4.5-1.4,4.5-4.5v-0.1h0.1c3.1,0,4.5-1.4,4.5-4.5v-0.1H17c3.1,0,4.5-1.4,4.5-4.5V4.5
	C21.5,1.4,20.1,0,17,0z M10.8,17c0,2.3-0.7,3-3,3H4.5c-2.3,0-3-0.7-3-3v-3.2c0-2.3,0.7-3,3-3h0.1v1.6c0,3.1,1.4,4.5,4.5,4.5h0h1.6
	V17z M15.4,12.4c0,2.3-0.7,3-3,3h-0.8H9.1c-2.3,0-3-0.7-3-3V10c0,0,0,0,0,0V9.1c0-2.3,0.7-3,3-3h0.8c0,0,0,0,0,0h2.4
	c2.3,0,3,0.7,3,3v2.4V12.4z M20,7.8c0,2.3-0.7,3-3,3h-0.1V9.1v0c0-3.1-1.4-4.5-4.5-4.5h-1.6V4.5c0-2.3,0.7-3,3-3H17c2.3,0,3,0.7,3,3
	V7.8z"/>
</svg>
