<?xml version="1.0" encoding="utf-8"?>
<!-- Generator: Adobe Illustrator 26.0.1, SVG Export Plug-In . SVG Version: 6.00 Build 0)  -->
<svg version="1.1" id="Layer_1" xmlns="http://www.w3.org/2000/svg" xmlns:xlink="http://www.w3.org/1999/xlink" x="0px" y="0px"
	 viewBox="0 0 22.5 20.6" style="enable-background:new 0 0 22.5 20.6;" xml:space="preserve">
<style type="text/css">
	.st0{fill:#2A2E32;}
</style>
<g>
	<path class="st0" d="M16.8,0h-10C3.3,0,1,2.3,1,5.7v6c0,0.4,0,0.7,0.1,1.1c-0.7,0.8-1.1,1.9-1.1,3c0,0.9,0.2,1.7,0.7,2.4
		c0.2,0.4,0.5,0.8,0.9,1.1c0.9,0.8,2,1.2,3.2,1.2c1.7,0,3.2-0.9,4.1-2.3C9,18,9.1,17.8,9.2,17.5h1.3l4.3,2.8c0.3,0.2,0.6,0.3,1,0.3
		c0.3,0,0.6-0.1,0.8-0.2c0.6-0.3,0.9-0.9,0.9-1.5v-1.4c1.4-0.1,2.5-0.7,3.4-1.6c1-1,1.6-2.5,1.6-4.2v-6C22.5,2.3,20.2,0,16.8,0z
		 M4.8,19.1c-0.8,0-1.6-0.3-2.2-0.8C2.3,18,2.1,17.8,2,17.5c-0.3-0.5-0.5-1.1-0.5-1.7c0-0.9,0.3-1.7,0.9-2.3
		c1.3-1.3,3.6-1.3,4.7,0.1C7.7,14.3,8,15,8,15.8c0,0.2,0,0.5-0.1,0.7c0,0,0,0,0,0c-0.1,0.3-0.2,0.6-0.4,0.9
		C6.9,18.5,5.9,19.1,4.8,19.1z M21,11.7c0,1.3-0.4,2.3-1.2,3.1C19.1,15.6,18,16,16.8,16c-0.4,0-0.8,0.3-0.8,0.7v2.1
		c0,0.1-0.1,0.2-0.1,0.2c0,0-0.1,0.1-0.2,0l-4.4-3C11,16,10.9,16,10.8,16H9.5c0-0.1,0-0.1,0-0.2c0-1.2-0.4-2.3-1.2-3.2
		c-0.9-1-2.2-1.6-3.5-1.6c-0.3,0-0.6,0-0.9,0.1c-0.1,0-0.1,0-0.2,0c-0.3,0.1-0.5,0.1-0.8,0.2c0,0-0.1,0-0.1,0.1
		c-0.1,0-0.2,0.1-0.3,0.1V5.7c0-2.6,1.7-4.2,4.2-4.2h10c2.6,0,4.2,1.7,4.2,4.2V11.7z"/>
	<path class="st0" d="M6.2,15.1H5.5v-0.7c0-0.4-0.3-0.8-0.8-0.8S4,13.9,4,14.3v0.7H3.3c-0.4,0-0.8,0.3-0.8,0.8
		c0,0.4,0.3,0.7,0.8,0.7H4v0.8c0,0.4,0.3,0.8,0.8,0.8s0.8-0.3,0.8-0.8v-0.8h0.7c0.4,0,0.8-0.3,0.8-0.7C7,15.4,6.7,15.1,6.2,15.1z"/>
	<path class="st0" d="M15.3,9.1h-7c-0.4,0-0.8,0.3-0.8,0.8s0.3,0.8,0.8,0.8h7c0.4,0,0.7-0.3,0.7-0.8S15.7,9.1,15.3,9.1z"/>
	<path class="st0" d="M15.3,5.9h-7c-0.4,0-0.8,0.3-0.8,0.8s0.3,0.8,0.8,0.8h7c0.4,0,0.7-0.3,0.7-0.8S15.7,5.9,15.3,5.9z"/>
</g>
</svg>
