<?xml version="1.0" encoding="utf-8"?>
<!-- Generator: Adobe Illustrator 26.0.1, SVG Export Plug-In . SVG Version: 6.00 Build 0)  -->
<svg version="1.1" id="Layer_1" xmlns="http://www.w3.org/2000/svg" xmlns:xlink="http://www.w3.org/1999/xlink" x="0px" y="0px"
	 viewBox="0 0 43.7 43.7" style="enable-background:new 0 0 43.7 43.7;" xml:space="preserve">
<style type="text/css">
	.st0{fill:#ED2024;}
</style>
<g>
	<path class="st0" d="M33.5,16.3c0-6.2-5-11.2-11.2-11.2S11,10.1,11,16.3s5,11.2,11.2,11.2S33.5,22.5,33.5,16.3z M22.3,25.9
		c-5.3,0-9.6-4.3-9.6-9.6s4.3-9.6,9.6-9.6s9.6,4.3,9.6,9.6S27.5,25.9,22.3,25.9z"/>
	<path class="st0" d="M22.3,29.9c-10,0-18.2,5.8-18.2,13v0.8h36.3v-0.8C40.4,35.7,32.3,29.9,22.3,29.9z M5.8,42
		c0.6-5.8,7.8-10.4,16.4-10.4c8.7,0,15.8,4.6,16.4,10.4H5.8z"/>
	<path class="st0" d="M40.7,10.1H38C35.2,4,29.1,0,22.3,0C15.5,0,9.5,3.9,6.6,10.1H3c-1.2,0-2.1,1-2.1,2.1v8.6C0.8,22,1.8,23,3,23
		h1.8v3.2c0,1.5,1.2,2.7,2.7,2.7h3.9c0.4,0,0.8-0.3,0.8-0.8s-0.3-0.8-0.8-0.8H7.5c-0.6,0-1.2-0.5-1.2-1.2V23H8
		c0.5,0,0.9-0.4,0.9-0.9V11c0-0.4-0.3-0.7-0.6-0.9c2.7-5.3,8-8.6,14-8.6c5.9,0,11.3,3.3,14,8.5h-0.7c-0.5,0-0.9,0.4-0.9,0.9v11
		c0,0.5,0.4,0.9,0.9,0.9h5c1.2,0,2.1-1,2.1-2.1v-8.6C42.8,11.1,41.9,10.1,40.7,10.1z M7.4,21.4H3c-0.3,0-0.6-0.3-0.6-0.6v-8.6
		c0-0.3,0.3-0.6,0.6-0.6h4.4V21.4z M41.3,20.8c0,0.3-0.3,0.6-0.6,0.6h-4.4v-9.8h4.4c0.3,0,0.6,0.3,0.6,0.6V20.8z"/>
</g>
</svg>
