<svg xmlns="http://www.w3.org/2000/svg" width="20.217" height="20.052" viewBox="0 0 20.217 20.052">
  <path id="Path_13639" data-name="Path 13639" d="M13.856,963.526l1.779,3.558a2.2,2.2,0,0,0,1.435,1.061l3.224.536c2.062.344,2.547,1.839,1.061,3.315L18.849,974.5a2.195,2.195,0,0,0-.526,1.829l.718,3.1c.566,2.456-.738,3.406-2.911,2.123l-3.022-1.789a2.185,2.185,0,0,0-2,0l-3.022,1.789c-2.163,1.284-3.477.323-2.911-2.123l.718-3.1a2.195,2.195,0,0,0-.526-1.829L2.859,972c-1.476-1.476-1-2.972,1.061-3.315l3.224-.536a2.2,2.2,0,0,0,1.425-1.061l1.779-3.558C11.319,961.595,12.9,961.595,13.856,963.526Z" transform="translate(-2.001 -962.078)" fill="#5cdb94"/>
</svg>
