<?xml version="1.0" encoding="utf-8"?>
<!-- Generator: Adobe Illustrator 26.0.1, SVG Export Plug-In . SVG Version: 6.00 Build 0)  -->
<svg version="1.1" id="Layer_1" xmlns="http://www.w3.org/2000/svg" xmlns:xlink="http://www.w3.org/1999/xlink" x="0px" y="0px"
	 viewBox="0 0 21.5 21.5" style="enable-background:new 0 0 21.5 21.5;" xml:space="preserve">
<style type="text/css">
	.st0{fill:#2A2E32;}
</style>
<g>
	<path class="st0" d="M13.8,0h-6C2.3,0,0,2.3,0,7.8v6c0,5.4,2.3,7.8,7.8,7.8h6c5.4,0,7.7-2.3,7.7-7.8v-6C21.5,2.3,19.2,0,13.8,0z
		 M20,13.8c0,4.6-1.6,6.2-6.2,6.2h-6c-4.6,0-6.2-1.6-6.2-6.2v-6c0-4.6,1.6-6.2,6.2-6.2h6c4.6,0,6.2,1.6,6.2,6.2V13.8z"/>
	<path class="st0" d="M12.7,7.2H7.5l0.3-0.3c0.3-0.3,0.3-0.8,0-1.1s-0.8-0.3-1.1,0L5.2,7.4c-0.3,0.3-0.3,0.8,0,1.1L6.8,10
		c0.1,0.1,0.3,0.2,0.5,0.2c0.2,0,0.4-0.1,0.5-0.2c0.3-0.3,0.3-0.8,0-1.1L7.6,8.7h5.1c1.3,0,2.3,1,2.3,2.3s-1,2.3-2.3,2.3H7.8
		c-0.4,0-0.8,0.3-0.8,0.8s0.3,0.8,0.8,0.8h4.9c2.1,0,3.8-1.7,3.8-3.8S14.8,7.2,12.7,7.2z"/>
</g>
</svg>
