<?xml version="1.0" encoding="utf-8"?>
<!-- Generator: Adobe Illustrator 26.0.1, SVG Export Plug-In . SVG Version: 6.00 Build 0)  -->
<svg version="1.1" id="Layer_1" xmlns="http://www.w3.org/2000/svg" xmlns:xlink="http://www.w3.org/1999/xlink" x="0px" y="0px"
	 viewBox="0 0 43.7 43.7" style="enable-background:new 0 0 43.7 43.7;" xml:space="preserve">
<style type="text/css">
	.st0{fill:#ED2024;}
</style>
<g>
	<path class="st0" d="M39.6,39c0,0.3-0.3,0.6-0.6,0.6H4.7C4.3,39.6,4,39.3,4,39V4.6C4,4.3,4.3,4,4.7,4H19V0H4.7C2.1,0,0,2.1,0,4.6
		V39c0,2.6,2.1,4.7,4.7,4.7H39c2.6,0,4.7-2.1,4.7-4.7V24.4h-4V39z"/>
	<path class="st0" d="M27.6,0.4c-1.1,0-2,0.9-2,2s0.9,2,2,2h9.2L14.1,27.2v-9c0-1.1-0.9-2-2-2s-2,0.9-2,2v15.5h16c1.1,0,2-0.9,2-2
		c0-1.1-0.9-2-2-2h-8.7L39.6,7.4v8.5c0,1.1,0.9,2,2,2s2-0.9,2-2V0.4H27.6z"/>
</g>
</svg>
