<?xml version="1.0" encoding="utf-8"?>
<!-- Generator: Adobe Illustrator 26.0.1, SVG Export Plug-In . SVG Version: 6.00 Build 0)  -->
<svg version="1.1" id="Layer_1" xmlns="http://www.w3.org/2000/svg" xmlns:xlink="http://www.w3.org/1999/xlink" x="0px" y="0px"
	 viewBox="0 0 43.7 43.7" style="enable-background:new 0 0 43.7 43.7;" xml:space="preserve">
<style type="text/css">
	.st0{fill:#ED2024;}
</style>
<g>
	<path class="st0" d="M42.1,19.7l-1.3-0.4c-0.2-1.2-1.3-2.1-2.5-2.3C38.1,8.5,31,1.5,22.4,1.5h-1.2C12.6,1.5,5.5,8.5,5.3,17
		c-1.3,0-2.5,1-2.6,2.3l-1.2,0.4c-0.8,0.3-1.4,1.1-1.4,2v5c0,0.9,0.5,1.6,1.3,1.9l1.3,0.5c0.2,1.3,1.3,2.4,2.7,2.4h1.4
		c1.5,0,2.7-1.2,2.7-2.7v-9.1c0-1.5-1.2-2.7-2.6-2.7C7,9.3,13.4,3,21.2,3h1.2c7.8,0,14.2,6.3,14.4,14h-0.3c-1.6,0-2.9,1.3-2.9,2.9
		v8.8c0,1.6,1.3,2.9,2.9,2.9h0.3v1.8c0,2.4-2,4.4-4.4,4.4h-5.1v-0.4c0-1.4-1.1-2.5-2.5-2.5h-6.1c-1.4,0-2.5,1.1-2.5,2.5v2.2
		c0,1.4,1.1,2.5,2.5,2.5h6.1c1.4,0,2.5-1.1,2.5-2.5v-0.3h5.1c3.2,0,5.9-2.6,5.9-5.9v-1.9c1.3-0.1,2.3-1.1,2.5-2.3l1.4-0.6
		c0.8-0.3,1.3-1.1,1.3-1.9v-5C43.6,20.8,43,20,42.1,19.7z M1.6,26.7v-5c0-0.3,0.1-0.5,0.4-0.6L2.6,21v6.6l-0.7-0.3
		C1.7,27.2,1.6,27,1.6,26.7z M8,19.8v9.1c0,0.7-0.5,1.2-1.2,1.2H5.3c-0.7,0-1.2-0.5-1.2-1.2v-9.1c0-0.7,0.5-1.2,1.2-1.2h1.4
		C7.4,18.5,8,19.1,8,19.8z M25.8,39.6c0,0.5-0.4,1-1,1h-6.1c-0.5,0-1-0.4-1-1v-2.2c0-0.5,0.4-1,1-1h6.1c0.5,0,1,0.4,1,1V39.6z
		 M38,30.1h-1.5c-0.8,0-1.4-0.6-1.4-1.4v-8.8c0-0.8,0.6-1.4,1.4-1.4H38c0.8,0,1.4,0.6,1.4,1.4v8.8C39.3,29.5,38.7,30.1,38,30.1z
		 M42.1,26.7c0,0.2-0.1,0.5-0.4,0.5l-0.8,0.3v-6.7l0.8,0.2c0.2,0.1,0.4,0.3,0.4,0.6V26.7z"/>
	<path class="st0" d="M21,27.5v-0.6c0-0.3-0.1-0.4-0.4-0.4h-5.9V26c0-1.1,1.1-1.5,2.1-1.8c2.9-1.1,4.4-2,4.4-4.5
		c0-1.9-1.4-3.6-3.8-3.6c-2.3,0-3.5,1-4.2,2.7c-0.1,0.3,0,0.4,0.3,0.5l0.7,0.3c0.3,0.1,0.4,0,0.5-0.3c0.5-1.1,1.3-1.7,2.7-1.7
		c1.3,0,2.2,1,2.2,2.2c0,1.8-1.6,2.3-3.2,3c-1.7,0.6-3.3,1.4-3.3,3.6v1.2c0,0.3,0.1,0.4,0.4,0.4h7.1C20.9,27.9,21,27.8,21,27.5z"/>
	<path class="st0" d="M29.2,16.3h-0.7c-0.3,0-0.4,0.1-0.6,0.3l-5.6,7c-0.1,0.2-0.1,0.2-0.1,0.5v0.5c0,0.3,0.1,0.4,0.4,0.4h5.6v2.5
		c0,0.3,0.1,0.4,0.4,0.4h0.6c0.3,0,0.4-0.1,0.4-0.4V25H31c0.3,0,0.4-0.1,0.4-0.4V24c0-0.3-0.1-0.4-0.4-0.4h-1.3v-6.9
		C29.6,16.4,29.5,16.3,29.2,16.3z M28.2,23.6H24l4.2-5.2V23.6z"/>
</g>
</svg>
